<svg id="Layer_1" data-name="Layer 1" xmlns="http://www.w3.org/2000/svg" viewBox="0 0 2040 1218" width="2040" height="1218"><defs><style>.cls-1{fill:none;}.cls-2{clip-path:url(#clip-path);}.cls-3{fill:#29e392;}.cls-4{fill:#1e9c65;}</style><clipPath id="clip-path"><path class="cls-1" d="M-13 1233.65c52.41 0 103.91 3.85 156.16 3.18 55.07-.71 110.18-1.24 165.19-2.75 30-.82 392 3.1 452 1.52 0-.72 51 3.29 66.62.93 36.24-5.45 78.88-9.15 115-4.81 60.54 7.28 123.1.56 184.15 2.75 21.56.77 36.11 5.52 55.21-2.06 17.36-6.89 36.62 2.1 55.35 1.4 26.28-1 52.68-.18 79-.16 34.55 0 75.91 3.35 109.17-5.41 34.62-9.13 77.26 3 113.17 4.48 73.51 2.95 145.86 5.66 219.16 3.4 61.14-1.88 250.27 2 284.87 2L2065-25.33c-29.39 0-58.22-4.69-87.49-6.47-48-2.92-95.8-8.21-143.91-8.78-31.46-.37-62.81-3.59-94.28-3.56-38.86 0-75.16 9.76-113.59 13.47-44.68 4.31-92.91 1.89-137.82-.45-32.69-1.7-65.12-4.63-97.89-5.95-47.55-1.91-93.47-2.06-141-.11-24.62 1-49.39-.91-74 .83-39.64 2.8-79.23 4.77-118.91 6.34-21.2.83-42.42-.12-63.58-.76-19.95-.61-38.09-.76-57.93-2.29a296.37 296.37 0 0 0-47 .3c-37.24 3.22-70.82 3.92-107.58 10-47 7.73-101.48 1.14-149 1.1-20.17 0-39.53 1.45-59.48 2.62-41.79 2.47-84.83-7.8-126-12-12.38-1.25-25.08-.33-37.55-.52-41.2-.65-81.55-8.1-122.74-8.1a582.51 582.51 0 0 0-82.46 5.37c-32.49 4.59-65.71 9.83-98.64 9.85C68.27-24.42 32.73-31-3-30.71z"/></clipPath></defs><title>bits-bg</title><g class="cls-2"><path class="cls-3" d="M23.09-45.44h1999.49v1464.41H23.09z"/><path class="cls-3" d="M-5.41-50.69h2072.5v1392.81H-5.41z"/><path class="cls-4" d="M1825.73 203.07c.13 5 .42 9.5.27 14a4.57 4.57 0 0 1-2.26 3.43c-1.14.45-3.64.07-4.1-.76a44.49 44.49 0 0 1-4.56-10.84c-.27-1.1 2.16-3.36 3.81-4.28s4.04-.96 6.84-1.55zM1782.56 260.09c-2.62.11-4.69.79-5.3.12a54.34 54.34 0 0 1-7.9-10.12c-1.77-3.2.88-6.52 4.5-5.82 2.16.42 5.07 1.8 5.84 3.54 1.54 3.52 1.85 7.58 2.86 12.28zM1802 95.21c10.78 4.69 10.78 4.69 10.4 14.6-7.89.19-12.48-5.86-10.4-14.6zM1855.62 96.57c2.68 4.68 4.55 7.19 5.55 10 .49 1.38-.19 3.69-1.18 4.9-.59.72-2.79.23-4.25.1a2.54 2.54 0 0 1-1.57-.94c-1.79-2.31-4.76-4.63-4.84-7-.07-1.96 3.39-4.01 6.29-7.06zM895.21 136c2.68 4.68 4.55 7.19 5.55 10 .49 1.38-.19 3.69-1.18 4.9-.59.72-2.79.23-4.25.1a2.54 2.54 0 0 1-1.57-.94c-1.79-2.31-4.76-4.63-4.84-7-.07-1.92 3.39-3.98 6.29-7.06zM1446.75 89.69c2.68 4.68 4.55 7.19 5.55 10 .49 1.38-.19 3.69-1.18 4.9-.59.72-2.79.23-4.25.1a2.54 2.54 0 0 1-1.57-.94c-1.79-2.31-4.76-4.63-4.84-7-.06-1.95 3.4-4 6.29-7.06zM1870.76 172.74c3.3-4.16 5.78-4.26 8.75-.59 2.65 3.27 5.71 6.34 3 10.7-.49.8-4.47.78-5.29-.18-2.55-3.01-4.4-6.67-6.46-9.93zM1898.12 263.16c-9.69-4.35-12.54-8.66-9.9-15 7.62 3.26 11.91 9.76 9.9 15zM1714 362.4c-9.69-4.35-12.54-8.66-9.9-15 7.67 3.25 11.96 9.75 9.9 15zM1726.69 141.25l2.65 8.53c-8.42 2.82-12.35.55-13.54-7.41.52-.31 1-.86 1.57-.88 2.8-.15 5.63-.16 9.32-.24zM1787.14 166l-12.51-10.19c3.46-6.84 4.24-7.14 8.53-2.49 3.02 3.24 6.78 6.48 3.98 12.68zM630.88 1195.08c10.78 4.69 10.78 4.69 10.4 14.6-7.9.19-12.5-5.87-10.4-14.6zM684.48 1196.43c2.68 4.68 4.55 7.19 5.55 10 .49 1.38-.19 3.69-1.18 4.9-.59.72-2.79.23-4.25.1a2.54 2.54 0 0 1-1.57-.94c-1.79-2.31-4.76-4.63-4.84-7-.07-1.95 3.39-4 6.29-7.06zM1647.81 350.74l-12.51-10.19c3.46-6.84 4.24-7.14 8.53-2.49 3.02 3.28 6.77 6.52 3.98 12.68zM1874.51 286.08c2.19 4.92 6.28 9.3 1.4 16.49l-8.66-7.88c2.41-3.13 1.45-7.97 7.26-8.61zM1743.65 212.35c-8.67-2-10-3.92-9.17-12.6 9.76 2.37 12.24 4.25 9.17 12.6zM1561 219.33c-8.67-2-10-3.92-9.17-12.6 9.75 2.37 12.22 4.27 9.17 12.6zM1796.15 312.37c-2-.95-4.31-1.5-5.82-2.94a13.83 13.83 0 0 1-3.8-6.23c-.26-1 1.73-3.37 3.12-3.83s4.09.26 4.72 1.34c1.67 2.89 2.54 6.24 3.72 9.41zM1548.76 354.9c-2-.95-4.31-1.5-5.82-2.94a13.83 13.83 0 0 1-3.8-6.23c-.26-1 1.73-3.37 3.12-3.83s4.09.26 4.72 1.34c1.67 2.89 2.54 6.24 3.72 9.41zM1841.78 255.77c-5.58 1.35-7.86-2.15-9.64-5.78a5.14 5.14 0 0 1 .7-4.78c.91-.86 3.45-.86 4.78-.22 4.24 2.01 5.04 5.81 4.16 10.78zM1987.78 171.78l-5.29 12.65c-6.32-1.68-7.66-5.22-6.93-11zM1915.89 213c3 3.92 5.36 7 7.65 10.23.27.37-.08 1.18-.23 2.64l-8.62 2c1.83-5.13-6.36-9.17 1.2-14.87zM1931.37 179.82c-8-2.53-8.95-8.5-10.68-14.6 8.05 1.91 10.77 5.48 10.68 14.6zM1766.09 75.25c-8-2.53-8.95-8.5-10.68-14.6 8.05 1.91 10.77 5.48 10.68 14.6zM977.13 62.59c3.3-4.16 5.78-4.26 8.75-.59 2.65 3.27 5.71 6.34 3 10.7-.49.8-4.47.78-5.29-.18-2.59-3.01-4.41-6.66-6.46-9.93zM1094.14 61.62l-5.29 12.65c-6.32-1.68-7.66-5.22-6.93-11zM1037.73 69.67c-8-2.53-8.95-8.5-10.68-14.6 8.05 1.93 10.77 5.48 10.68 14.6zM1722.57 287.37c-8-2.53-8.95-8.5-10.68-14.6 8.05 1.92 10.77 5.49 10.68 14.6zM1825.76 309.44c9.42 1 11 3.5 9.22 14.1-7.65-1.95-7.38-8.45-9.22-14.1zM1974.19 284.41c-3.5-.15-6.78.41-9.39-.67-1.54-.63-2-3.85-3-5.9 1.83-.75 3.8-2.35 5.47-2.09 4.11.63 6.29 3.55 6.92 8.66zM1899.87 396.15c-3.5-.15-6.78.41-9.39-.67-1.54-.63-2-3.85-3-5.9 1.83-.75 3.8-2.35 5.47-2.09 4.12.64 6.3 3.56 6.92 8.66zM1956.38 121.09c1.82-4 5.22-4.55 8-3.26 1.71.81 2.66 3.93 3.22 6.19.26 1.07-.88 3.13-1.95 3.7a4.52 4.52 0 0 1-4.17-.46c-2.02-1.77-3.48-4.13-5.1-6.17zM1838.28 49.26c1.82-4 5.22-4.55 8-3.26 1.71.81 2.66 3.93 3.22 6.19.26 1.07-.88 3.13-1.95 3.7a4.52 4.52 0 0 1-4.17-.46c-2.02-1.77-3.49-4.13-5.1-6.17zM1927.15 123.71l6.6 8.91c-4.61 3.76-7.83 2.57-10.35-.68s-.56-5.62 3.75-8.23zM1607 63.2c3.3-4.16 5.78-4.26 8.75-.59 2.65 3.27 5.71 6.34 3 10.7-.49.8-4.47.78-5.29-.18-2.51-3.01-4.36-6.66-6.46-9.93zM1386.76 173.52c3.3-4.16 5.78-4.26 8.75-.59 2.65 3.27 5.71 6.34 3 10.7-.49.8-4.47.78-5.29-.18-2.56-3.01-4.4-6.66-6.46-9.93zM1724.06 62.23l-5.29 12.65c-6.32-1.68-7.66-5.22-6.93-11zM1667.65 70.27c-8-2.53-8.95-8.5-10.68-14.6 8.03 1.92 10.76 5.49 10.68 14.6zM1692.65 11.55c1.82-4 5.22-4.55 8-3.26 1.71.81 2.66 3.93 3.22 6.19.26 1.07-.88 3.13-1.95 3.7a4.52 4.52 0 0 1-4.17-.46c-2.01-1.78-3.48-4.13-5.1-6.17zM1663.42 14.16l6.6 8.91c-4.61 3.76-7.83 2.57-10.35-.68s-.55-5.62 3.75-8.23zM223.94 377.25l-5.29 12.65c-6.32-1.68-7.66-5.22-6.93-11zM167.53 385.29c-8-2.53-8.95-8.5-10.68-14.6 8.05 1.91 10.77 5.49 10.68 14.6zM192.54 326.57c1.82-4 5.22-4.55 8-3.26 1.71.81 2.66 3.93 3.22 6.19.26 1.07-.88 3.13-1.95 3.7a4.52 4.52 0 0 1-4.17-.46c-2.02-1.74-3.49-4.13-5.1-6.17zM163.31 329.18l6.6 8.91c-4.61 3.76-7.83 2.57-10.35-.68s-.56-5.62 3.75-8.23zM1716.37 111.58l6.6 8.91c-4.61 3.76-7.83 2.57-10.35-.68s-.56-5.62 3.75-8.23zM1893.69 89.59c-4.57 2.92-7.47 2.08-9.14-1.81s.68-5.66 5.19-7.43zM760.12 54.67c10.78 4.69 10.78 4.69 10.4 14.6-7.91.19-12.52-5.87-10.4-14.6zM813.71 56c2.68 4.68 4.55 7.19 5.55 10 .49 1.38-.19 3.69-1.18 4.9-.59.72-2.79.23-4.25.1a2.54 2.54 0 0 1-1.57-.94c-1.79-2.31-4.76-4.63-4.84-7-.06-1.93 3.4-3.98 6.29-7.06zM885.25 83.17l6.6 8.91c-4.61 3.76-7.83 2.57-10.35-.68s-.56-5.62 3.75-8.23zM851.79 49.05c-4.57 2.92-7.47 2.08-9.14-1.81s.68-5.66 5.19-7.43zM1883.8 330c2.17-3.76 6.38-3.21 9.68-4.32.7-.24 2.43.91 2.8 1.8a3.86 3.86 0 0 1-.65 3.33c-3.15 3.66-7.35 3.39-11.83-.81zM1967.16 240.1c6.71 2.43 7.45 3.82 6.89 11.68-7.12-.22-7.12-.22-6.89-11.68zM1937.93 287.14c-.14 1.1.23 3.91-.73 4.48a9.5 9.5 0 0 1-6.52.81c-.72-.17-1.6-4-.85-5.22 1.6-2.6 4.37-3.21 8.1-.07zM1947.46 73.34c-9.69-4.35-12.54-8.66-9.9-15 7.62 3.26 11.91 9.76 9.9 15zM2010.74 236.21c-9.69-4.35-12.54-8.66-9.9-15 7.63 3.26 11.91 9.79 9.9 15zM572.11 334c-9.69-4.35-12.54-8.66-9.9-15 7.63 3.26 11.92 9.76 9.9 15zM1064.29 152.66c-9.69-4.35-12.54-8.66-9.9-15 7.61 3.26 11.91 9.76 9.9 15zM1577.93 403.45c-9.69-4.35-12.54-8.66-9.9-15 7.63 3.26 11.92 9.76 9.9 15zM1965.23 23.21c3 3.92 5.36 7 7.65 10.23.27.37-.08 1.18-.23 2.64l-8.62 2c1.83-5.15-6.36-9.2 1.2-14.87zM2023.53 94.59c-3.5-.15-6.78.41-9.39-.67-1.54-.63-2-3.85-3-5.9 1.83-.75 3.8-2.35 5.47-2.09 4.11.64 6.29 3.56 6.92 8.66zM2016.5 50.28c6.71 2.43 7.45 3.82 6.89 11.68-7.12-.22-7.12-.22-6.89-11.68zM1987.27 97.33c-.14 1.1.23 3.91-.73 4.48a9.5 9.5 0 0 1-6.52.81c-.72-.17-1.6-4-.85-5.22 1.6-2.6 4.37-3.18 8.1-.07zM1395.18 111.71c-.14 1.1.23 3.91-.73 4.48a9.5 9.5 0 0 1-6.52.81c-.72-.17-1.6-4-.85-5.22 1.61-2.6 4.37-3.17 8.1-.07zM621.32 62.12c-9.69-4.35-12.54-8.66-9.9-15 7.58 3.26 11.92 9.76 9.9 15zM639.1 12c3 3.92 5.36 7 7.65 10.23.27.37-.08 1.18-.23 2.64l-8.62 2c1.83-5.16-6.36-9.21 1.2-14.87zM697.4 83.37c-3.5-.15-6.78.41-9.39-.67-1.54-.63-2-3.85-3-5.9 1.83-.75 3.8-2.35 5.47-2.09 4.11.63 6.29 3.55 6.92 8.66zM690.36 39.06c6.71 2.43 7.45 3.82 6.89 11.68-7.12-.22-7.12-.22-6.89-11.68zM661.14 86.1c-.14 1.1.23 3.91-.73 4.48a9.5 9.5 0 0 1-6.52.81c-.72-.17-1.6-4-.85-5.22 1.6-2.6 4.36-3.17 8.1-.07zM1174.29 836.63c-9.69-4.35-12.54-8.66-9.9-15 7.61 3.26 11.92 9.76 9.9 15zM1150.69 859.55c2.19 4.92 6.28 9.3 1.4 16.49l-8.66-7.88c2.41-3.16 1.45-7.97 7.26-8.61zM1118 829.25c-5.58 1.35-7.86-2.15-9.64-5.78a5.14 5.14 0 0 1 .7-4.78c.91-.86 3.45-.86 4.78-.22 4.16 2.01 4.99 5.81 4.16 10.78zM1250.37 857.88c-3.5-.15-6.78.41-9.39-.67-1.54-.63-2-3.85-3-5.9 1.83-.75 3.8-2.35 5.47-2.09 4.11.64 6.29 3.56 6.92 8.66zM1243.33 813.57c6.71 2.43 7.45 3.82 6.89 11.68-7.12-.25-7.12-.25-6.89-11.68zM1214.11 860.61c-.14 1.1.23 3.91-.73 4.48a9.5 9.5 0 0 1-6.52.81c-.72-.17-1.6-4-.85-5.22 1.6-2.59 4.36-3.17 8.1-.07zM146.74 491.83c-9.69-4.35-12.54-8.66-9.9-15 7.63 3.25 11.92 9.75 9.9 15zM123.14 514.74c2.19 4.92 6.28 9.3 1.4 16.49l-8.66-7.88c2.41-3.13 1.45-7.97 7.26-8.61zM90.41 484.44c-5.58 1.35-7.86-2.15-9.64-5.78a5.14 5.14 0 0 1 .7-4.78c.91-.86 3.45-.86 4.78-.22 4.24 2.02 5.04 5.81 4.16 10.78zM222.82 513.07c-3.5-.15-6.78.41-9.39-.67-1.54-.63-2-3.85-3-5.9 1.83-.75 3.8-2.35 5.47-2.09 4.1.59 6.29 3.59 6.92 8.66zM215.78 468.76c6.71 2.43 7.45 3.82 6.89 11.68-7.12-.22-7.12-.22-6.89-11.68zM186.56 515.81c-.14 1.1.23 3.91-.73 4.48a9.5 9.5 0 0 1-6.52.81c-.72-.17-1.6-4-.85-5.22 1.6-2.6 4.36-3.18 8.1-.07zM1730.28 485.08c-.14 1.1.23 3.91-.73 4.48a9.5 9.5 0 0 1-6.52.81c-.72-.17-1.6-4-.85-5.22 1.6-2.6 4.37-3.15 8.1-.07zM1776.12 207.64c.61-3.19.45-5.48 1.5-6.82.81-1 3.13-.89 4.79-1.27.38 2.25 1.37 4.64.86 6.66-.21.79-3.69.79-7.15 1.43zM1828.75 161.33c-1.58-5.12-.07-7.13 4.6-7.15 1.71 4.16-.35 5.82-4.6 7.15zM1521.32 203.85c.13 5 .42 9.5.27 14a4.57 4.57 0 0 1-2.26 3.43c-1.14.45-3.64.07-4.1-.76a44.49 44.49 0 0 1-4.56-10.84c-.27-1.1 2.16-3.36 3.81-4.28s4.04-.96 6.84-1.55zM1478.15 260.87c-2.62.11-4.69.79-5.3.12a54.34 54.34 0 0 1-7.9-10.12c-1.77-3.2.88-6.52 4.5-5.82 2.16.42 5.07 1.8 5.84 3.54 1.53 3.52 1.85 7.57 2.86 12.28zM1497.61 96c10.78 4.69 10.78 4.69 10.4 14.6-7.91.18-12.51-5.88-10.4-14.6zM1551.2 97.34c2.68 4.68 4.55 7.19 5.55 10 .49 1.38-.19 3.69-1.18 4.9-.59.72-2.79.23-4.25.1a2.54 2.54 0 0 1-1.57-.94c-1.79-2.31-4.76-4.63-4.84-7-.06-1.95 3.4-4 6.29-7.06zM1513.68 67c2.68 4.68 4.55 7.19 5.55 10 .49 1.38-.19 3.69-1.18 4.9-.59.72-2.79.23-4.25.1a2.54 2.54 0 0 1-1.57-.94c-1.79-2.31-4.76-4.63-4.84-7-.07-1.92 3.39-3.97 6.29-7.06zM1566.35 173.52c3.3-4.16 5.78-4.26 8.75-.59 2.65 3.27 5.71 6.34 3 10.7-.49.8-4.47.78-5.29-.18-2.55-3.01-4.4-6.66-6.46-9.93zM1593.7 263.94c-9.69-4.35-12.54-8.66-9.9-15 7.63 3.26 11.92 9.75 9.9 15zM1444.58 134l2.65 8.53c-8.42 2.82-12.35.55-13.54-7.41.52-.31 1-.86 1.57-.88 2.8-.16 5.61-.17 9.32-.24zM1482.73 166.74l-12.51-10.19c3.46-6.84 4.24-7.14 8.53-2.49 3.02 3.28 6.78 6.52 3.98 12.68zM1570.1 286.86c2.19 4.92 6.28 9.3 1.4 16.49l-8.66-7.88c2.41-3.13 1.45-7.98 7.26-8.61zM1439.24 213.13c-8.67-2-10-3.92-9.17-12.6 9.76 2.36 12.24 4.24 9.17 12.6zM1491.74 313.15c-2-.95-4.31-1.5-5.82-2.94a13.83 13.83 0 0 1-3.8-6.23c-.26-1 1.73-3.37 3.12-3.83s4.09.26 4.72 1.34c1.67 2.89 2.54 6.24 3.72 9.41zM1537.37 256.55c-5.58 1.35-7.86-2.15-9.64-5.78a5.14 5.14 0 0 1 .7-4.78c.91-.86 3.45-.86 4.78-.22 4.24 2.02 5.04 5.81 4.16 10.78zM1683.37 172.55l-5.29 12.65c-6.32-1.68-7.66-5.22-6.93-11zM1611.48 213.81c3 3.92 5.36 7 7.65 10.23.27.37-.08 1.18-.23 2.64l-8.62 2c1.83-5.16-6.36-9.2 1.2-14.87zM52.6 835.06c-8.67-2-10-3.92-9.17-12.6 9.77 2.36 12.24 4.24 9.17 12.6zM85.32 879.67c-9.69-4.35-12.54-8.66-9.9-15 7.58 3.25 11.92 9.75 9.9 15zM103.1 829.54c3 3.92 5.36 7 7.65 10.23.27.37-.08 1.18-.23 2.64l-8.62 2c1.83-5.16-6.36-9.21 1.2-14.87zM9.64 160.14c-8.67-2-10-3.92-9.17-12.6 9.76 2.36 12.24 4.24 9.17 12.6zM42.36 204.74c-9.69-4.35-12.54-8.66-9.9-15 7.63 3.26 11.92 9.76 9.9 15zM60.14 154.61c3 3.92 5.36 7 7.65 10.23.27.37-.08 1.18-.23 2.64l-8.62 2c1.83-5.16-6.36-9.2 1.2-14.87zM149.64 862c3 3.92 5.36 7 7.65 10.23.27.37-.08 1.18-.23 2.64l-8.62 2c1.83-5.18-6.36-9.23 1.2-14.87zM1627 180.6c-8-2.53-8.95-8.5-10.68-14.6 8.01 1.91 10.68 5.48 10.68 14.6zM1521.35 310.22c9.42 1 11 3.5 9.22 14.1-7.65-1.95-7.39-8.45-9.22-14.1zM1669.78 285.18c-3.5-.15-6.78.41-9.39-.67-1.54-.63-2-3.85-3-5.9 1.83-.75 3.8-2.35 5.47-2.09 4.14.64 6.29 3.56 6.92 8.66zM1652 121.87c1.82-4 5.22-4.55 8-3.26 1.71.81 2.66 3.93 3.22 6.19.26 1.07-.88 3.13-1.95 3.7a4.52 4.52 0 0 1-4.27-.5c-2-1.73-3.42-4.09-5-6.13zM1622.74 124.49l6.6 8.91c-4.61 3.76-7.83 2.57-10.35-.68s-.56-5.62 3.75-8.23zM1589.28 90.37c-4.57 2.92-7.47 2.08-9.14-1.81s.68-5.66 5.19-7.43zM1040.81 101.36c-4.57 2.92-7.47 2.08-9.14-1.81s.68-5.66 5.19-7.43zM1108.64 679.09l2.65 8.53c-8.42 2.82-12.35.55-13.54-7.41.52-.31 1-.86 1.57-.88 2.8-.15 5.61-.16 9.32-.24zM942.93 757.18c-8.67-2-10-3.92-9.17-12.6 9.77 2.36 12.24 4.24 9.17 12.6zM1098.32 649.43l6.6 8.91c-4.61 3.76-7.83 2.57-10.35-.68s-.57-5.66 3.75-8.23zM933.15 635.19c2.68 4.68 4.55 7.19 5.55 10 .49 1.38-.19 3.69-1.18 4.9-.59.72-2.79.23-4.25.1a2.54 2.54 0 0 1-1.57-.94c-1.79-2.31-4.76-4.63-4.84-7-.06-1.95 3.4-4.01 6.29-7.06zM948.3 711.36c3.3-4.16 5.78-4.26 8.75-.59 2.65 3.27 5.71 6.34 3 10.7-.49.8-4.47.78-5.29-.18-2.55-3.01-4.4-6.65-6.46-9.93zM1065.32 710.4L1060 723c-6.32-1.68-7.66-5.22-6.93-11zM993.43 751.65c3 3.92 5.36 7 7.65 10.23.27.37-.08 1.18-.23 2.64l-8.62 2c1.83-5.15-6.36-9.2 1.2-14.87zM1008.91 718.44c-8-2.53-8.95-8.5-10.68-14.6 8.05 1.91 10.77 5.49 10.68 14.6zM1033.91 659.71c1.82-4 5.22-4.55 8-3.26 1.71.81 2.66 3.93 3.22 6.19.26 1.07-.88 3.13-1.95 3.7a4.52 4.52 0 0 1-4.17-.46c-2.01-1.77-3.48-4.13-5.1-6.17zM1004.69 662.33l6.6 8.91c-4.61 3.76-7.83 2.57-10.35-.68s-.56-5.62 3.75-8.23zM971.23 628.21c-4.57 2.92-7.47 2.08-9.14-1.81s.68-5.66 5.19-7.43zM1505 464.13c3.3-4.16 5.78-4.26 8.75-.59 2.65 3.27 5.71 6.34 3 10.7-.49.8-4.47.78-5.29-.18-2.57-3.01-4.46-6.65-6.46-9.93zM1565.59 471.21c-8-2.53-8.95-8.5-10.68-14.6 8.09 1.92 10.77 5.49 10.68 14.6zM1561.37 415.1l6.63 8.9c-4.61 3.76-7.83 2.57-10.35-.68s-.59-5.61 3.72-8.22zM1527.91 381c-4.57 2.92-7.47 2.08-9.14-1.81s.68-5.66 5.19-7.43zM1095.45 504.89c3.3-4.16 5.78-4.26 8.75-.59 2.65 3.27 5.71 6.34 3 10.7-.49.8-4.47.78-5.29-.18-2.56-3.01-4.4-6.65-6.46-9.93zM1156.05 512c-8-2.53-8.95-8.5-10.68-14.6 8.05 1.88 10.77 5.46 10.68 14.6zM1151.83 455.86l6.6 8.91c-4.61 3.76-7.83 2.57-10.35-.68s-.56-5.62 3.75-8.23zM1118.37 421.74c-4.57 2.92-7.47 2.08-9.14-1.81s.68-5.66 5.19-7.43zM1236.31 1024.09c3.3-4.16 5.78-4.26 8.75-.59 2.65 3.27 5.71 6.34 3 10.7-.49.8-4.47.78-5.29-.18-2.56-3.02-4.41-6.65-6.46-9.93zM1296.91 1031.17c-8-2.53-8.95-8.5-10.68-14.6 8.05 1.92 10.77 5.49 10.68 14.6zM1292.69 975.06l6.6 8.91c-4.61 3.76-7.83 2.57-10.35-.68s-.56-5.62 3.75-8.23zM1259.23 940.95c-4.57 2.92-7.47 2.08-9.14-1.81s.68-5.66 5.19-7.43zM1579.39 330.79c2.17-3.76 6.38-3.21 9.68-4.32.7-.24 2.43.91 2.8 1.8a3.86 3.86 0 0 1-.65 3.33c-3.15 3.65-7.35 3.4-11.83-.81zM1662.75 240.88c6.71 2.43 7.45 3.82 6.89 11.68-7.12-.22-7.12-.22-6.89-11.68zM1633.52 287.92c-.14 1.1.23 3.91-.73 4.48a9.5 9.5 0 0 1-6.52.81c-.72-.17-1.6-4-.85-5.22 1.58-2.6 4.37-3.17 8.1-.07zM1471.71 208.42c.61-3.19.45-5.48 1.5-6.82.81-1 3.13-.89 4.79-1.27.38 2.25 1.37 4.64.86 6.66-.21.81-3.69.8-7.15 1.43zM1524.34 162.11c-1.58-5.12-.07-7.13 4.6-7.15 1.71 4.15-.32 5.81-4.6 7.15zM1699 465.56c.13 5 .42 9.5.27 14A4.57 4.57 0 0 1 1697 483c-1.14.45-3.64.07-4.1-.76a44.49 44.49 0 0 1-4.56-10.84c-.27-1.1 2.16-3.36 3.81-4.28s4.03-.97 6.85-1.56zM1655.81 522.58c-2.62.11-4.69.79-5.3.12a54.34 54.34 0 0 1-7.9-10.12c-1.77-3.2.88-6.52 4.5-5.82 2.16.42 5.07 1.8 5.84 3.54 1.53 3.52 1.85 7.57 2.86 12.28zM1675.27 357.7c10.78 4.69 10.78 4.69 10.4 14.6-7.91.19-12.51-5.87-10.4-14.6zM1728.86 359.05c2.68 4.68 4.55 7.19 5.55 10 .49 1.38-.19 3.69-1.18 4.9-.59.72-2.79.23-4.25.1a2.54 2.54 0 0 1-1.57-.94c-1.79-2.31-4.76-4.63-4.84-7-.06-1.95 3.43-4 6.29-7.06zM1744 435.23c3.3-4.16 5.78-4.26 8.75-.59 2.65 3.27 5.71 6.34 3 10.7-.49.8-4.47.78-5.29-.18-2.54-3.01-4.39-6.66-6.46-9.93zM1771.36 525.65c-9.69-4.35-12.54-8.66-9.9-15 7.63 3.26 11.92 9.75 9.9 15zM1622.24 395.7l2.65 8.53c-8.42 2.82-12.35.55-13.54-7.41.52-.31 1-.86 1.57-.88 2.8-.15 5.61-.16 9.32-.24zM1660.39 428.45l-12.51-10.19c3.46-6.84 4.24-7.14 8.53-2.49 3.02 3.23 6.78 6.52 3.98 12.68zM1747.76 548.57c2.19 4.92 6.28 9.3 1.4 16.49l-8.66-7.88c2.41-3.18 1.5-7.98 7.26-8.61zM1616.9 474.84c-8.67-2-10-3.92-9.17-12.6 9.76 2.36 12.27 4.24 9.17 12.6zM1669.4 574.86c-2-.95-4.31-1.5-5.82-2.94a13.83 13.83 0 0 1-3.8-6.23c-.26-1 1.73-3.37 3.12-3.83s4.09.26 4.72 1.34c1.67 2.89 2.54 6.24 3.72 9.41zM1715 518.26c-5.58 1.35-7.86-2.15-9.64-5.78a5.14 5.14 0 0 1 .7-4.78c.91-.86 3.45-.86 4.78-.22 4.27 2.02 5.07 5.81 4.16 10.78zM1861 434.26l-5.29 12.65c-6.32-1.68-7.66-5.22-6.93-11zM1789.14 475.52c3 3.92 5.36 7 7.65 10.23.27.37-.08 1.18-.23 2.64l-8.62 2c1.83-5.16-6.36-9.21 1.2-14.87zM1804.62 442.31c-8-2.53-8.95-8.5-10.68-14.6 8.06 1.91 10.76 5.48 10.68 14.6zM1699 571.93c9.42 1 11 3.5 9.22 14.1-7.64-1.95-7.38-8.45-9.22-14.1zM1847.44 546.89c-3.5-.15-6.78.41-9.39-.67-1.54-.63-2-3.85-3-5.9 1.83-.75 3.8-2.35 5.47-2.09 4.11.64 6.29 3.56 6.92 8.66zM1829.62 383.58c1.82-4 5.22-4.55 8-3.26 1.71.81 2.66 3.93 3.22 6.19.26 1.07-.88 3.13-1.95 3.7a4.52 4.52 0 0 1-4.17-.46c-2.01-1.75-3.48-4.13-5.1-6.17zM1800.39 386.2l6.6 8.91c-4.61 3.76-7.83 2.57-10.35-.68s-.55-5.62 3.75-8.23zM1766.94 352.08c-4.57 2.92-7.47 2.08-9.14-1.81s.68-5.66 5.19-7.43zM1757 592.5c2.17-3.76 6.38-3.21 9.68-4.32.7-.24 2.43.91 2.8 1.8a3.86 3.86 0 0 1-.65 3.33c-3.1 3.69-7.3 3.37-11.83-.81zM1840.41 502.59c6.71 2.43 7.45 3.82 6.89 11.68-7.12-.27-7.12-.27-6.89-11.68zM1811.18 549.63c-.14 1.1.23 3.91-.73 4.48a9.5 9.5 0 0 1-6.52.81c-.72-.17-1.6-4-.85-5.22 1.6-2.6 4.36-3.17 8.1-.07zM1649.37 470.13c.61-3.19.45-5.48 1.5-6.82.81-1 3.13-.89 4.79-1.27.38 2.25 1.37 4.64.86 6.66-.21.81-3.69.8-7.15 1.43zM1702 423.82c-1.58-5.12-.07-7.13 4.6-7.15 1.71 4.15-.33 5.81-4.6 7.15zM398 665.27c.13 5 .42 9.5.27 14a4.57 4.57 0 0 1-2.26 3.43c-1.14.45-3.64.07-4.1-.76a44.49 44.49 0 0 1-4.56-10.84c-.27-1.1 2.16-3.36 3.81-4.28s4.03-.95 6.84-1.55zM354.82 722.29c-2.62.11-4.69.79-5.3.12a54.34 54.34 0 0 1-7.9-10.12c-1.77-3.2.88-6.52 4.5-5.82 2.16.42 5.07 1.8 5.84 3.54 1.54 3.52 1.85 7.58 2.86 12.28zM374.28 557.42c10.78 4.69 10.78 4.69 10.4 14.6-7.9.19-12.5-5.87-10.4-14.6zM427.88 558.77c2.68 4.68 4.55 7.19 5.55 10 .49 1.38-.19 3.69-1.18 4.9-.59.72-2.79.23-4.25.1a2.54 2.54 0 0 1-1.57-.94c-1.79-2.31-4.76-4.63-4.84-7-.07-1.95 3.41-4 6.29-7.06zM19 551.9c2.68 4.68 4.55 7.19 5.55 10 .49 1.38-.19 3.69-1.18 4.9-.59.72-2.79.23-4.25.1a2.54 2.54 0 0 1-1.57-.94c-1.79-2.31-4.76-4.63-4.84-7-.05-1.96 3.41-3.96 6.29-7.06zM443 634.94c3.3-4.16 5.78-4.26 8.75-.59 2.65 3.27 5.71 6.34 3 10.7-.49.8-4.47.78-5.29-.18-2.53-3.01-4.38-6.65-6.46-9.93zM470.38 725.37c-9.69-4.35-12.54-8.66-9.9-15 7.62 3.25 11.91 9.75 9.9 15zM286.31 824.6c-9.69-4.35-12.54-8.66-9.9-15 7.59 3.26 11.91 9.75 9.9 15zM299 603.45l2.6 8.55c-8.42 2.82-12.35.55-13.54-7.41.52-.31 1-.86 1.57-.88 2.8-.17 5.61-.18 9.37-.26zM359.4 628.17L346.89 618c3.46-6.84 4.24-7.14 8.53-2.49 3.03 3.26 6.78 6.49 3.98 12.66zM220.07 812.95l-12.51-10.19c3.46-6.84 4.24-7.14 8.53-2.49 3.02 3.28 6.77 6.51 3.98 12.68zM446.77 748.28c2.19 4.92 6.28 9.3 1.4 16.49l-8.66-7.88c2.41-3.13 1.49-7.97 7.26-8.61zM315.91 674.56c-8.67-2-10-3.92-9.17-12.6 9.77 2.36 12.26 4.24 9.17 12.6zM133.24 681.54c-8.67-2-10-3.92-9.17-12.6 9.77 2.36 12.24 4.24 9.17 12.6zM368.42 774.58c-2-.95-4.31-1.5-5.82-2.94a13.83 13.83 0 0 1-3.8-6.23c-.26-1 1.73-3.37 3.12-3.83s4.09.26 4.72 1.34c1.67 2.89 2.54 6.24 3.72 9.41zM121 817.1c-2-.95-4.31-1.5-5.82-2.94a13.83 13.83 0 0 1-3.8-6.23c-.26-1 1.73-3.37 3.12-3.83s4.09.26 4.72 1.34c1.67 2.89 2.54 6.24 3.72 9.41zM414 718c-5.58 1.35-7.86-2.15-9.64-5.78a5.14 5.14 0 0 1 .7-4.78c.91-.86 3.45-.86 4.78-.22 4.28 2 5.08 5.78 4.16 10.78zM560 634l-5.29 12.65c-6.32-1.68-7.66-5.22-6.93-11zM488.15 675.24c3 3.92 5.36 7 7.65 10.23.27.37-.08 1.18-.23 2.64l-8.62 2c1.83-5.16-6.36-9.21 1.2-14.87zM503.63 642c-8-2.53-8.95-8.5-10.68-14.6 8.05 1.94 10.77 5.51 10.68 14.6zM294.83 749.58c-8-2.53-8.95-8.5-10.68-14.6 8.05 1.91 10.77 5.48 10.68 14.6zM398 771.65c9.42 1 11 3.5 9.22 14.1-7.63-1.95-7.36-8.45-9.22-14.1zM546.45 746.61c-3.5-.15-6.78.41-9.39-.67-1.54-.63-2-3.85-3-5.9 1.83-.75 3.8-2.35 5.47-2.09 4.11.64 6.29 3.56 6.92 8.66zM472.14 858.36c-3.5-.15-6.78.41-9.39-.67-1.54-.63-2-3.85-3-5.9 1.83-.75 3.8-2.35 5.47-2.09 4.11.64 6.29 3.56 6.92 8.66zM528.64 583.3c1.82-4 5.22-4.55 8-3.26 1.71.81 2.66 3.93 3.22 6.19.26 1.07-.88 3.13-1.95 3.7a4.52 4.52 0 0 1-4.17-.46c-2.02-1.78-3.49-4.13-5.1-6.17zM499.41 585.91l6.6 8.91c-4.61 3.76-7.83 2.57-10.35-.68s-.56-5.62 3.75-8.23zM288.63 573.79l6.6 8.91c-4.61 3.76-7.83 2.57-10.35-.68s-.56-5.62 3.75-8.23zM465.95 551.8c-4.57 2.92-7.47 2.08-9.14-1.81s.68-5.66 5.19-7.43zM456.06 792.21c2.17-3.76 6.38-3.21 9.68-4.32.7-.24 2.43.91 2.8 1.8a3.86 3.86 0 0 1-.65 3.33c-3.14 3.66-7.35 3.38-11.83-.81zM539.42 702.3c6.71 2.43 7.45 3.82 6.89 11.68-7.12-.22-7.12-.22-6.89-11.68zM510.19 749.35c-.14 1.1.23 3.91-.73 4.48a9.5 9.5 0 0 1-6.52.81c-.72-.17-1.6-4-.85-5.22 1.6-2.6 4.37-3.18 8.1-.07zM302.54 947.29c-.14 1.1.23 3.91-.73 4.48a9.5 9.5 0 0 1-6.52.81c-.72-.17-1.6-4-.85-5.22 1.56-2.6 4.37-3.18 8.1-.07zM348.38 669.84c.61-3.19.45-5.48 1.5-6.82.81-1 3.13-.89 4.79-1.27.38 2.25 1.37 4.64.86 6.66-.21.82-3.69.8-7.15 1.43zM401 623.54c-1.58-5.12-.07-7.13 4.6-7.15 1.72 4.15-.31 5.8-4.6 7.15zM93.58 666.05c.13 5 .42 9.5.27 14a4.57 4.57 0 0 1-2.26 3.43c-1.14.45-3.64.07-4.1-.76a44.49 44.49 0 0 1-4.56-10.84c-.27-1.1 2.16-3.36 3.81-4.28s4.04-.96 6.84-1.55zM50.41 723.07c-2.62.11-4.69.79-5.3.12a54.34 54.34 0 0 1-7.9-10.12c-1.77-3.2.88-6.52 4.5-5.82 2.16.42 5.07 1.8 5.84 3.54 1.54 3.52 1.85 7.58 2.86 12.28zM69.87 558.19c10.78 4.69 10.78 4.69 10.4 14.6-7.91.21-12.5-5.86-10.4-14.6zM123.46 559.55c2.68 4.68 4.55 7.19 5.55 10 .49 1.38-.19 3.69-1.18 4.9-.59.72-2.79.23-4.25.1a2.54 2.54 0 0 1-1.57-.94c-1.79-2.31-4.76-4.63-4.84-7-.06-1.95 3.4-4.01 6.29-7.06zM138.61 635.72c3.3-4.16 5.78-4.26 8.75-.59 2.65 3.27 5.71 6.34 3 10.7-.49.8-4.47.78-5.29-.18-2.55-3.01-4.4-6.65-6.46-9.93zM166 726.14c-9.69-4.35-12.54-8.66-9.9-15 7.59 3.26 11.9 9.76 9.9 15zM16.84 596.19l2.65 8.53c-8.42 2.82-12.35.55-13.54-7.41.52-.31 1-.86 1.57-.88 2.8-.14 5.61-.16 9.32-.24zM55 628.95l-12.52-10.19c3.46-6.84 4.24-7.14 8.53-2.49 2.99 3.27 6.78 6.51 3.99 12.68zM142.36 749.06c2.19 4.92 6.28 9.3 1.4 16.49l-8.66-7.88c2.41-3.13 1.45-7.97 7.26-8.61zM11.5 675.34c-8.67-2-10-3.92-9.17-12.6 9.76 2.36 12.24 4.26 9.17 12.6zM64 775.35c-2-.95-4.31-1.5-5.82-2.94a13.83 13.83 0 0 1-3.8-6.23c-.26-1 1.73-3.37 3.12-3.83s4.09.26 4.72 1.34c1.67 2.89 2.54 6.24 3.72 9.41zM109.63 718.76c-5.58 1.35-7.86-2.15-9.64-5.78a5.14 5.14 0 0 1 .7-4.78c.91-.86 3.45-.86 4.78-.22 4.24 2.02 5.04 5.81 4.16 10.78zM255.63 634.76l-5.29 12.65c-6.32-1.68-7.66-5.22-6.93-11zM183.74 676c3 3.92 5.36 7 7.65 10.23.27.37-.08 1.18-.23 2.64l-8.62 2c1.83-5.14-6.36-9.19 1.2-14.87zM199.22 642.8c-8-2.53-8.95-8.5-10.68-14.6 8.05 1.91 10.76 5.49 10.68 14.6zM93.61 772.42c9.42 1 11 3.5 9.22 14.1-7.65-1.95-7.39-8.45-9.22-14.1zM242 747.39c-3.5-.15-6.78.41-9.39-.67-1.54-.63-2-3.85-3-5.9 1.83-.75 3.8-2.35 5.47-2.09 4.15.64 6.33 3.55 6.92 8.66zM224.22 584.08c1.82-4 5.22-4.55 8-3.26 1.71.81 2.66 3.93 3.22 6.19.26 1.07-.88 3.13-1.95 3.7a4.52 4.52 0 0 1-4.17-.46c-2.01-1.78-3.48-4.13-5.1-6.17zM195 586.69l6.6 8.91c-4.61 3.76-7.83 2.57-10.35-.68s-.56-5.62 3.75-8.23zM161.54 552.57c-4.57 2.92-7.47 2.08-9.14-1.81s.68-5.66 5.19-7.43zM151.65 793c2.17-3.76 6.38-3.21 9.68-4.32.7-.24 2.43.91 2.8 1.8a3.86 3.86 0 0 1-.65 3.33c-3.15 3.64-7.35 3.37-11.83-.81zM235 703.08c6.71 2.43 7.45 3.82 6.89 11.68-7.11-.22-7.11-.22-6.89-11.68zM205.78 750.12c-.14 1.1.23 3.91-.73 4.48a9.5 9.5 0 0 1-6.52.81c-.72-.17-1.6-4-.85-5.22 1.6-2.59 4.32-3.19 8.1-.07zM44 670.62c.61-3.19.45-5.48 1.5-6.82.81-1 3.13-.89 4.79-1.27.38 2.25 1.37 4.64.86 6.66-.24.81-3.72.81-7.15 1.43zM96.6 624.31c-1.58-5.12-.07-7.13 4.6-7.15 1.71 4.16-.32 5.84-4.6 7.15zM271.24 927.76c.13 5 .42 9.5.27 14a4.57 4.57 0 0 1-2.26 3.43c-1.14.45-3.64.07-4.1-.76a44.49 44.49 0 0 1-4.56-10.84c-.27-1.1 2.16-3.36 3.81-4.28s4.04-.96 6.84-1.55zM228.07 984.78c-2.62.11-4.69.79-5.3.12a54.34 54.34 0 0 1-7.9-10.12c-1.77-3.2.88-6.52 4.5-5.82 2.16.42 5.07 1.8 5.84 3.54 1.54 3.5 1.85 7.58 2.86 12.28zM247.53 819.9c10.78 4.69 10.78 4.69 10.4 14.6-7.93.2-12.51-5.86-10.4-14.6zM301.12 821.26c2.68 4.68 4.55 7.19 5.55 10 .49 1.38-.19 3.69-1.18 4.9-.59.72-2.79.23-4.25.1a2.54 2.54 0 0 1-1.57-.94c-1.79-2.31-4.76-4.63-4.84-7-.06-1.95 3.4-4.01 6.29-7.06zM316.27 897.43c3.3-4.16 5.78-4.26 8.75-.59 2.65 3.27 5.71 6.34 3 10.7-.49.8-4.47.78-5.29-.18-2.55-3.01-4.4-6.65-6.46-9.93zM343.63 987.85c-9.69-4.35-12.54-8.66-9.9-15 7.62 3.26 11.91 9.76 9.9 15zM194.5 857.9l2.65 8.53c-8.42 2.82-12.35.55-13.54-7.41.52-.31 1-.86 1.57-.88 2.82-.14 5.61-.14 9.32-.24zM232.65 890.66l-12.51-10.19c3.46-6.84 4.24-7.14 8.53-2.49 3.02 3.27 6.78 6.51 3.98 12.68zM320 1010.77c2.19 4.92 6.28 9.3 1.4 16.49l-8.66-7.88c2.43-3.13 1.47-7.97 7.26-8.61zM189.16 937c-8.67-2-10-3.92-9.17-12.6 9.76 2.41 12.24 4.29 9.17 12.6zM241.66 1037.06c-2-.95-4.31-1.5-5.82-2.94a13.83 13.83 0 0 1-3.8-6.23c-.26-1 1.73-3.37 3.12-3.83s4.09.26 4.72 1.34c1.67 2.89 2.54 6.24 3.72 9.41zM287.29 980.47c-5.58 1.35-7.86-2.15-9.64-5.78a5.14 5.14 0 0 1 .7-4.78c.91-.86 3.45-.86 4.78-.22 4.24 2.01 5.04 5.81 4.16 10.78zM433.29 896.47L428 909.12c-6.32-1.68-7.66-5.22-6.93-11zM361.4 937.72c3 3.92 5.36 7 7.65 10.23.27.37-.08 1.18-.23 2.64l-8.62 2c1.8-5.15-6.36-9.2 1.2-14.87zM376.88 904.51c-8-2.53-8.95-8.5-10.68-14.6 8.05 1.91 10.8 5.49 10.68 14.6zM271.27 1034.13c9.42 1 11 3.5 9.22 14.1-7.65-1.95-7.39-8.45-9.22-14.1zM419.7 1009.1c-3.5-.15-6.78.41-9.39-.67-1.54-.63-2-3.85-3-5.9 1.83-.75 3.8-2.35 5.47-2.09 4.11.64 6.29 3.56 6.92 8.66zM401.88 845.78c1.82-4 5.22-4.55 8-3.26 1.71.81 2.66 3.93 3.22 6.19.26 1.07-.88 3.13-1.95 3.7A4.52 4.52 0 0 1 407 852c-2-1.82-3.5-4.18-5.12-6.22zM372.66 848.4l6.6 8.91c-4.61 3.76-7.83 2.57-10.35-.68s-.56-5.63 3.75-8.23zM339.2 814.28c-4.57 2.92-7.47 2.08-9.14-1.81s.68-5.66 5.19-7.43zM329.31 1054.7c2.17-3.76 6.38-3.21 9.68-4.32.7-.24 2.43.91 2.8 1.8a3.86 3.86 0 0 1-.65 3.33c-3.14 3.65-7.35 3.38-11.83-.81zM412.67 964.79c6.71 2.43 7.45 3.82 6.89 11.68-7.12-.22-7.12-.22-6.89-11.68zM383.44 1011.83c-.14 1.1.23 3.91-.73 4.48a9.5 9.5 0 0 1-6.52.81c-.72-.17-1.6-4-.85-5.22 1.6-2.59 4.37-3.17 8.1-.07zM221.63 932.33c.61-3.19.45-5.48 1.5-6.82.81-1 3.13-.89 4.79-1.27.38 2.25 1.37 4.64.86 6.66-.21.81-3.69.8-7.15 1.43zM274.26 886c-1.58-5.12-.07-7.13 4.6-7.15 1.71 4.15-.32 5.83-4.6 7.15zM-5.28 252.59c2.68 4.68 4.55 7.19 5.55 10 .49 1.38-.19 3.69-1.18 4.9-.59.72-2.79.23-4.25.1a2.54 2.54 0 0 1-1.57-.94c-1.79-2.31-4.76-4.63-4.84-7-.07-1.96 3.39-4.01 6.29-7.06zM9.87 328.76c3.3-4.16 5.78-4.26 8.75-.59 2.65 3.27 5.71 6.34 3 10.7-.49.8-4.47.78-5.29-.18-2.56-3.01-4.4-6.69-6.46-9.93zM37.22 419.18c-9.69-4.35-12.54-8.66-9.9-15 7.63 3.26 11.92 9.75 9.9 15zM13.62 442.1c2.19 4.92 6.28 9.3 1.4 16.49l-8.66-7.88c2.4-3.13 1.45-7.97 7.26-8.61zM126.89 327.8l-5.29 12.65c-6.32-1.68-7.66-5.22-6.93-11zM55 369.05c3 3.92 5.36 7 7.65 10.23.27.37-.08 1.18-.23 2.64l-8.62 2c1.83-5.16-6.36-9.2 1.2-14.87zM70.47 335.84c-8-2.53-8.95-8.5-10.68-14.6 8.05 1.91 10.77 5.48 10.68 14.6zM113.3 440.43c-3.5-.15-6.78.41-9.39-.67-1.54-.63-2-3.85-3-5.9 1.83-.75 3.8-2.35 5.47-2.09 4.11.63 6.29 3.55 6.92 8.66zM39 552.17c-3.5-.15-6.78.41-9.39-.67-1.54-.63-2-3.85-3-5.9 1.83-.75 3.8-2.35 5.47-2.09 4.09.64 6.27 3.56 6.92 8.66zM95.48 277.11c1.82-4 5.22-4.55 8-3.26 1.71.81 2.66 3.93 3.22 6.19.26 1.07-.88 3.13-1.95 3.7a4.52 4.52 0 0 1-4.17-.46c-2.01-1.77-3.49-4.13-5.1-6.17zM66.25 279.73l6.6 8.91c-4.61 3.76-7.83 2.57-10.35-.68s-.56-5.62 3.75-8.23zM32.79 245.61c-4.57 2.92-7.47 2.08-9.14-1.81s.68-5.66 5.19-7.43zM22.9 486c2.17-3.76 6.38-3.21 9.68-4.32.7-.24 2.43.91 2.8 1.8a3.86 3.86 0 0 1-.65 3.33c-3.14 3.68-7.35 3.4-11.83-.81zM106.26 396.12c6.71 2.43 7.45 3.82 6.89 11.68-7.15-.22-7.15-.22-6.89-11.68zM77 443.16c-.14 1.1.23 3.91-.73 4.48a9.5 9.5 0 0 1-6.52.81c-.72-.17-1.6-4-.85-5.22 1.64-2.6 4.4-3.17 8.1-.07zM.13 590.28l-5.29 12.65c-6.32-1.68-7.66-5.22-6.93-11zM458.94 128.9c.13 5 .42 9.5.27 14a4.57 4.57 0 0 1-2.26 3.43c-1.14.45-3.64.07-4.1-.76a44.49 44.49 0 0 1-4.56-10.84c-.27-1.1 2.16-3.36 3.81-4.28s4.03-.95 6.84-1.55zM415.77 185.92c-2.62.11-4.69.79-5.3.12a54.34 54.34 0 0 1-7.9-10.12c-1.77-3.2.88-6.52 4.5-5.82 2.16.42 5.07 1.8 5.84 3.54 1.53 3.52 1.85 7.58 2.86 12.28zM435.23 21c10.78 4.69 10.78 4.69 10.4 14.6-7.91.24-12.51-5.82-10.4-14.6zM488.82 22.4c2.68 4.68 4.55 7.19 5.55 10 .49 1.38-.19 3.69-1.18 4.9-.59.72-2.79.23-4.25.1a2.54 2.54 0 0 1-1.57-.94c-1.79-2.31-4.76-4.63-4.84-7-.06-1.95 3.4-4 6.29-7.06zM80 15.53c2.68 4.68 4.55 7.19 5.55 10 .49 1.38-.19 3.69-1.18 4.9-.59.72-2.79.23-4.25.1a2.54 2.54 0 0 1-1.57-.94c-1.79-2.31-4.76-4.63-4.84-7-.11-1.95 3.35-4.01 6.29-7.06zM504 98.57c3.3-4.16 5.78-4.26 8.75-.59 2.65 3.27 5.71 6.34 3 10.7-.49.8-4.47.78-5.29-.18-2.59-3.01-4.46-6.65-6.46-9.93zM531.32 189c-9.69-4.35-12.54-8.66-9.9-15 7.58 3.25 11.92 9.75 9.9 15zM347.25 288.23c-9.69-4.35-12.54-8.66-9.9-15 7.65 3.26 11.92 9.77 9.9 15zM359.9 67.08l2.65 8.53c-8.42 2.82-12.35.55-13.54-7.41.52-.31 1-.86 1.57-.88 2.8-.15 5.6-.16 9.32-.24zM420.35 91.8l-12.51-10.19c3.46-6.84 4.24-7.14 8.53-2.49 3.02 3.28 6.77 6.51 3.98 12.68zM281 276.58l-12.5-10.19c3.46-6.84 4.24-7.14 8.53-2.49 3.02 3.27 6.78 6.51 3.97 12.68zM507.72 211.91c2.19 4.92 6.28 9.3 1.4 16.49l-8.66-7.88c2.41-3.13 1.45-7.97 7.26-8.61zM376.85 138.19c-8.67-2-10-3.92-9.17-12.6 9.77 2.36 12.24 4.24 9.17 12.6zM194.19 145.17c-8.67-2-10-3.92-9.17-12.6 9.76 2.36 12.24 4.24 9.17 12.6zM429.36 238.2c-2-.95-4.31-1.5-5.82-2.94a13.83 13.83 0 0 1-3.8-6.23c-.26-1 1.73-3.37 3.12-3.83s4.09.26 4.72 1.34c1.67 2.89 2.54 6.24 3.72 9.41zM182 280.73c-2-.95-4.31-1.5-5.82-2.94a13.83 13.83 0 0 1-3.8-6.23c-.26-1 1.73-3.37 3.12-3.83s4.09.26 4.72 1.34c1.67 2.89 2.54 6.24 3.72 9.41zM475 181.61c-5.58 1.35-7.86-2.15-9.64-5.78a5.14 5.14 0 0 1 .7-4.78c.91-.86 3.45-.86 4.78-.22 4.23 2.01 5.03 5.81 4.16 10.78zM621 97.61l-5.29 12.65c-6.32-1.68-7.66-5.22-6.93-11zM549.1 138.87c3 3.92 5.36 7 7.65 10.23.27.37-.08 1.18-.23 2.64l-8.62 2c1.83-5.16-6.36-9.21 1.2-14.87zM564.57 105.65c-8-2.53-8.95-8.5-10.68-14.6 8.05 1.95 10.77 5.49 10.68 14.6zM355.78 213.21c-8-2.53-8.95-8.5-10.68-14.6 8.05 1.91 10.76 5.48 10.68 14.6zM459 235.28c9.42 1 11 3.5 9.22 14.1-7.68-1.95-7.42-8.46-9.22-14.1zM607.4 210.24c-3.5-.15-6.78.41-9.39-.67-1.54-.63-2-3.85-3-5.9 1.83-.75 3.8-2.35 5.47-2.09 4.11.64 6.29 3.56 6.92 8.66zM533.08 322c-3.5-.15-6.78.41-9.39-.67-1.54-.63-2-3.85-3-5.9 1.83-.75 3.8-2.35 5.47-2.09 4.11.66 6.29 3.54 6.92 8.66zM589.58 46.93c1.82-4 5.22-4.55 8-3.26 1.71.81 2.66 3.93 3.22 6.19.26 1.07-.88 3.13-1.95 3.7a4.52 4.52 0 0 1-4.17-.46c-2.01-1.78-3.48-4.1-5.1-6.17zM560.35 49.54l6.6 8.91c-4.61 3.76-7.83 2.57-10.35-.68s-.6-5.62 3.75-8.23zM349.57 37.42l6.6 8.91c-4.61 3.76-7.83 2.57-10.35-.68s-.55-5.65 3.75-8.23zM526.89 15.42c-4.57 2.92-7.47 2.08-9.14-1.81s.68-5.66 5.19-7.43zM517 255.84c2.17-3.76 6.38-3.21 9.68-4.32.7-.24 2.43.91 2.8 1.8a3.86 3.86 0 0 1-.65 3.33c-3.14 3.66-7.34 3.35-11.83-.81zM600.36 165.93c6.71 2.43 7.45 3.82 6.89 11.68-7.12-.22-7.12-.22-6.89-11.68zM571.14 213c-.14 1.1.23 3.91-.73 4.48a9.5 9.5 0 0 1-6.52.81c-.72-.17-1.6-4-.85-5.22 1.6-2.62 4.36-3.2 8.1-.07zM363.49 410.92c-.14 1.1.23 3.91-.73 4.48a9.5 9.5 0 0 1-6.52.81c-.72-.17-1.6-4-.85-5.22 1.61-2.6 4.36-3.18 8.1-.07zM409.33 133.47c.61-3.19.45-5.48 1.5-6.82.81-1 3.13-.89 4.79-1.27.38 2.25 1.37 4.64.86 6.66-.21.82-3.69.8-7.15 1.43zM462 87.16c-1.58-5.12-.07-7.13 4.6-7.15 1.67 4.16-.37 5.81-4.6 7.15zM154.52 129.68c.13 5 .42 9.5.27 14a4.57 4.57 0 0 1-2.26 3.43c-1.14.45-3.64.07-4.1-.76a44.49 44.49 0 0 1-4.56-10.84c-.27-1.1 2.16-3.36 3.81-4.28s4.04-.96 6.84-1.55zM111.35 186.7c-2.62.11-4.69.79-5.3.12a54.34 54.34 0 0 1-7.9-10.12c-1.77-3.2.88-6.52 4.5-5.82 2.16.42 5.07 1.8 5.84 3.54 1.51 3.52 1.86 7.58 2.86 12.28zM130.82 21.82c10.78 4.69 10.78 4.69 10.4 14.6-7.91.2-12.51-5.86-10.4-14.6zM184.41 23.18c2.68 4.68 4.55 7.19 5.55 10 .49 1.38-.19 3.69-1.18 4.9-.59.72-2.79.23-4.25.1a2.54 2.54 0 0 1-1.57-.94c-1.79-2.31-4.76-4.63-4.84-7-.07-1.95 3.39-4.01 6.29-7.06zM199.56 99.35c3.3-4.16 5.78-4.26 8.75-.59 2.65 3.27 5.71 6.34 3 10.7-.49.8-4.47.78-5.29-.18-2.56-3.01-4.4-6.65-6.46-9.93zM226.91 189.77c-9.69-4.35-12.54-8.66-9.9-15 7.63 3.23 11.92 9.76 9.9 15zM77.79 59.82l2.65 8.53c-8.42 2.82-12.35.55-13.54-7.41.52-.31 1-.86 1.57-.88 2.8-.14 5.6-.16 9.32-.24zM115.94 92.58l-12.52-10.19c3.46-6.84 4.24-7.14 8.53-2.49 3.05 3.27 6.78 6.51 3.99 12.68zM203.31 212.69c2.19 4.92 6.28 9.3 1.4 16.49l-8.66-7.88c2.4-3.13 1.45-7.97 7.26-8.61zM72.44 139c-8.67-2-10-3.92-9.17-12.6 9.73 2.33 12.24 4.21 9.17 12.6zM124.95 239c-2-.95-4.31-1.5-5.82-2.94a13.83 13.83 0 0 1-3.8-6.23c-.26-1 1.73-3.37 3.12-3.83s4.09.26 4.72 1.34c1.67 2.89 2.54 6.24 3.72 9.41zM170.58 182.39c-5.58 1.35-7.86-2.15-9.64-5.78a5.14 5.14 0 0 1 .7-4.78c.91-.86 3.45-.86 4.78-.22 4.23 2.01 5.03 5.81 4.16 10.78zM316.57 98.39L311.29 111c-6.32-1.68-7.66-5.22-6.93-11zM244.68 139.64c3 3.92 5.36 7 7.65 10.23.27.37-.08 1.18-.23 2.64l-8.62 2c1.84-5.15-6.35-9.2 1.2-14.87zM260.16 106.43c-8-2.53-8.95-8.5-10.68-14.6 8.05 1.91 10.77 5.49 10.68 14.6zM154.56 236.05c9.42 1 11 3.5 9.22 14.1-7.65-1.95-7.39-8.45-9.22-14.1zM303 211c-3.5-.15-6.78.41-9.39-.67-1.54-.63-2-3.85-3-5.9 1.83-.75 3.8-2.35 5.47-2.09 4.1.66 6.28 3.57 6.92 8.66zM285.17 47.7c1.82-4 5.22-4.55 8-3.26 1.71.81 2.66 3.93 3.22 6.19.26 1.07-.88 3.13-1.95 3.7a4.52 4.52 0 0 1-4.17-.46c-2.02-1.77-3.49-4.13-5.1-6.17zM255.94 50.32l6.6 8.91c-4.61 3.76-7.83 2.57-10.35-.68s-.56-5.62 3.75-8.23zM222.48 16.2c-4.57 2.92-7.47 2.08-9.14-1.81S214 8.73 218.53 7zM212.59 256.62c2.17-3.76 6.38-3.21 9.68-4.32.7-.24 2.43.91 2.8 1.8a3.86 3.86 0 0 1-.65 3.33c-3.14 3.65-7.35 3.38-11.83-.81zM296 166.71c6.71 2.43 7.45 3.82 6.89 11.68-7.17-.22-7.17-.22-6.89-11.68zM266.72 213.75c-.14 1.1.23 3.91-.73 4.48a9.5 9.5 0 0 1-6.52.81c-.72-.17-1.6-4-.85-5.22 1.61-2.59 4.38-3.17 8.1-.07zM104.92 134.25c.61-3.19.45-5.48 1.5-6.82.81-1 3.13-.89 4.79-1.27.38 2.25 1.37 4.64.86 6.66-.21.81-3.69.8-7.15 1.43zM157.54 87.94c-1.58-5.12-.07-7.13 4.6-7.15 1.72 4.16-.32 5.81-4.6 7.15zM332.18 391.39c.13 5 .42 9.5.27 14a4.57 4.57 0 0 1-2.26 3.43c-1.14.45-3.64.07-4.1-.76a44.49 44.49 0 0 1-4.56-10.84c-.27-1.1 2.16-3.36 3.81-4.28s4.04-.94 6.84-1.55zM289 448.41c-2.62.11-4.69.79-5.3.12a54.34 54.34 0 0 1-7.9-10.12c-1.77-3.2.88-6.52 4.5-5.82 2.16.42 5.07 1.8 5.84 3.54 1.55 3.52 1.86 7.58 2.86 12.28zM308.48 283.53c10.78 4.69 10.78 4.69 10.4 14.6-7.88.2-12.51-5.86-10.4-14.6zM362.07 284.89c2.68 4.68 4.55 7.19 5.55 10 .49 1.38-.19 3.69-1.18 4.9-.59.72-2.79.23-4.25.1a2.54 2.54 0 0 1-1.57-.94c-1.79-2.31-4.76-4.63-4.84-7-.07-1.95 3.39-4.01 6.29-7.06zM377.22 361.06c3.3-4.16 5.78-4.26 8.75-.59 2.65 3.27 5.71 6.34 3 10.7-.49.8-4.47.78-5.29-.18-2.56-2.99-4.41-6.65-6.46-9.93zM404.57 451.48c-9.69-4.35-12.54-8.66-9.9-15 7.63 3.26 11.92 9.76 9.9 15zM255.45 321.53l2.65 8.53c-8.42 2.82-12.35.55-13.54-7.41.52-.31 1-.86 1.57-.88 2.8-.14 5.6-.16 9.32-.24zM293.6 354.29l-12.52-10.19c3.46-6.84 4.24-7.14 8.53-2.49 3.03 3.27 6.78 6.51 3.99 12.68zM381 474.4c2.19 4.92 6.28 9.3 1.4 16.49l-8.69-7.89c2.4-3.12 1.45-8 7.29-8.6zM250.1 400.67c-8.67-2-10-3.92-9.17-12.6 9.77 2.37 12.24 4.24 9.17 12.6zM302.61 500.69c-2-.95-4.31-1.5-5.82-2.94a13.83 13.83 0 0 1-3.8-6.23c-.26-1 1.73-3.37 3.12-3.83s4.09.26 4.72 1.34c1.67 2.89 2.54 6.24 3.72 9.41zM348.24 444.1c-5.58 1.35-7.86-2.15-9.64-5.78a5.14 5.14 0 0 1 .7-4.78c.91-.86 3.45-.86 4.78-.22 4.23 2.01 5.03 5.81 4.16 10.78zM494.23 360.1l-5.29 12.65c-6.32-1.68-7.66-5.22-6.93-11zM422.34 401.35c3 3.92 5.36 7 7.65 10.23.27.37-.08 1.18-.23 2.64l-8.62 2c1.86-5.15-6.35-9.22 1.2-14.87zM437.82 368.14c-8-2.53-8.95-8.5-10.68-14.6 8.05 1.91 10.77 5.46 10.68 14.6zM332.22 497.76c9.42 1 11 3.5 9.22 14.1-7.65-1.95-7.44-8.45-9.22-14.1zM480.64 472.73c-3.5-.15-6.78.41-9.39-.67-1.54-.63-2-3.85-3-5.9 1.83-.75 3.8-2.35 5.47-2.09 4.12.63 6.28 3.55 6.92 8.66zM462.83 309.41c1.82-4 5.22-4.55 8-3.26 1.71.81 2.66 3.93 3.22 6.19.26 1.07-.88 3.13-1.95 3.7a4.52 4.52 0 0 1-4.17-.46c-2.02-1.77-3.49-4.13-5.1-6.17zM433.6 312l6.6 8.91c-4.61 3.76-7.83 2.57-10.35-.68s-.56-5.59 3.75-8.23zM400.14 277.91c-4.57 2.92-7.47 2.08-9.14-1.81s.68-5.66 5.19-7.43zM390.25 518.33c2.17-3.76 6.38-3.21 9.68-4.32.7-.24 2.43.91 2.8 1.8a3.86 3.86 0 0 1-.65 3.33c-3.14 3.65-7.35 3.38-11.83-.81zM473.61 428.42c6.71 2.43 7.45 3.82 6.89 11.68-7.12-.22-7.12-.22-6.89-11.68zM444.38 475.46c-.14 1.1.23 3.91-.73 4.48a9.5 9.5 0 0 1-6.52.81c-.72-.17-1.6-4-.85-5.22 1.61-2.6 4.37-3.17 8.1-.07zM282.58 396c.61-3.19.45-5.48 1.5-6.82.81-1 3.13-.89 4.79-1.27.38 2.25 1.37 4.64.86 6.66-.21.77-3.73.76-7.15 1.43zM335.2 349.65c-1.58-5.12-.07-7.13 4.6-7.15 1.72 4.16-.32 5.81-4.6 7.15zM672 477.53c-.13-5-.42-9.5-.27-14a4.57 4.57 0 0 1 2.26-3.43c1.14-.45 3.64-.07 4.1.76a44.49 44.49 0 0 1 4.56 10.84c.27 1.1-2.16 3.36-3.81 4.28s-4 .96-6.84 1.55zM715.21 420.51c2.62-.11 4.69-.79 5.3-.12a54.34 54.34 0 0 1 7.9 10.12c1.77 3.2-.88 6.52-4.5 5.82-2.16-.42-5.07-1.8-5.84-3.54-1.54-3.52-1.85-7.57-2.86-12.28zM695.75 585.39c-10.78-4.69-10.78-4.69-10.4-14.6 7.9-.19 12.5 5.87 10.4 14.6zM642.15 584c-2.68-4.68-4.55-7.19-5.55-10-.49-1.38.19-3.69 1.18-4.9.59-.72 2.79-.23 4.25-.1a2.54 2.54 0 0 1 1.57.94c1.79 2.31 4.76 4.63 4.84 7 .07 1.99-3.44 4.06-6.29 7.06zM1051 590.91c-2.68-4.68-4.55-7.19-5.55-10-.49-1.38.19-3.69 1.18-4.9.59-.72 2.79-.23 4.25-.1a2.54 2.54 0 0 1 1.57.94c1.79 2.31 4.76 4.63 4.84 7 .08 1.95-3.38 4.01-6.29 7.06zM627 507.86c-3.3 4.16-5.78 4.26-8.75.59-2.65-3.27-5.71-6.34-3-10.7.49-.8 4.47-.78 5.29.18 2.56 3.01 4.41 6.66 6.46 9.93zM599.65 417.44c9.69 4.35 12.54 8.66 9.9 15-7.62-3.26-11.91-9.75-9.9-15zM783.72 318.21c9.69 4.35 12.54 8.66 9.9 15-7.62-3.21-11.91-9.76-9.9-15zM771.08 539.36l-2.65-8.53c8.42-2.82 12.35-.55 13.54 7.41-.52.31-1 .86-1.57.88-2.8.14-5.61.16-9.32.24zM710.63 514.64l12.51 10.19c-3.46 6.84-4.24 7.14-8.53 2.49-3.03-3.32-6.78-6.52-3.98-12.68zM850 329.86L862.48 340c-3.46 6.84-4.24 7.14-8.53 2.49-3.03-3.23-6.78-6.49-3.95-12.63zM623.26 394.52c-2.19-4.92-6.28-9.3-1.4-16.49l8.66 7.88c-2.41 3.09-1.45 7.97-7.26 8.61zM754.12 468.25c8.67 2 10 3.92 9.17 12.6-9.77-2.36-12.24-4.24-9.17-12.6zM936.79 461.27c8.67 2 10 3.92 9.17 12.6-9.77-2.36-12.24-4.24-9.17-12.6zM701.61 368.23c2 .95 4.31 1.5 5.82 2.94a13.83 13.83 0 0 1 3.8 6.23c.26 1-1.73 3.37-3.12 3.83s-4.09-.26-4.72-1.34c-1.67-2.89-2.54-6.24-3.72-9.41zM949 325.7c2 .95 4.31 1.5 5.82 2.94a13.83 13.83 0 0 1 3.8 6.23c.26 1-1.73 3.37-3.12 3.83s-4.09-.26-4.72-1.34c-1.67-2.89-2.54-6.24-3.72-9.41zM656 424.83c5.58-1.35 7.86 2.15 9.64 5.78a5.14 5.14 0 0 1-.7 4.78c-.91.86-3.45.86-4.78.22-4.25-2.02-5.05-5.81-4.16-10.78zM510 508.83l5.29-12.65c6.32 1.68 7.66 5.22 6.93 11zM581.88 467.57c-3-3.92-5.36-7-7.65-10.23-.27-.37.08-1.18.23-2.64l8.62-2c-1.83 5.16 6.36 9.2-1.2 14.87zM566.4 500.78c8 2.53 8.95 8.5 10.68 14.6-8.08-1.91-10.77-5.48-10.68-14.6zM775.2 393.23c8 2.53 8.95 8.5 10.68 14.6-8.05-1.91-10.77-5.49-10.68-14.6zM672 371.16c-9.42-1-11-3.5-9.22-14.1 7.66 1.94 7.39 8.45 9.22 14.1zM523.58 396.19c3.5.15 6.78-.41 9.39.67 1.54.63 2 3.85 3 5.9-1.83.75-3.8 2.35-5.47 2.09-4.11-.63-6.29-3.55-6.92-8.66zM597.89 284.45c3.5.15 6.78-.41 9.39.67 1.54.63 2 3.85 3 5.9-1.83.75-3.8 2.35-5.47 2.09-4.11-.64-6.29-3.56-6.92-8.66zM541.39 559.51c-1.82 4-5.22 4.55-8 3.26-1.71-.81-2.66-3.93-3.22-6.19-.26-1.07.88-3.13 1.95-3.7a4.52 4.52 0 0 1 4.17.46c2.02 1.77 3.49 4.13 5.1 6.17zM570.62 556.89L564 548c4.61-3.76 7.83-2.57 10.35.68s.58 5.6-3.73 8.21zM781.4 569l-6.6-8.91c4.61-3.76 7.83-2.57 10.35.68s.56 5.64-3.75 8.23zM604.08 591c4.57-2.92 7.47-2.08 9.14 1.81s-.68 5.66-5.19 7.43zM614 350.59c-2.17 3.76-6.38 3.21-9.68 4.32-.7.24-2.43-.91-2.8-1.8a3.86 3.86 0 0 1 .65-3.33c3.11-3.65 7.32-3.37 11.83.81zM530.61 440.5c-6.71-2.43-7.45-3.82-6.89-11.68 7.12.18 7.12.18 6.89 11.68zM559.84 393.46c.14-1.1-.23-3.91.73-4.48a9.5 9.5 0 0 1 6.52-.81c.72.17 1.6 4 .85 5.22-1.61 2.61-4.37 3.17-8.1.07zM767.49 195.52c.14-1.1-.23-3.91.73-4.48a9.5 9.5 0 0 1 6.52-.81c.72.17 1.6 4 .85 5.22-1.59 2.55-4.37 3.17-8.1.07zM721.65 473c-.61 3.19-.45 5.48-1.5 6.82-.81 1-3.13.89-4.79 1.27-.38-2.25-1.37-4.64-.86-6.66.21-.85 3.69-.84 7.15-1.43zM669 519.27c1.58 5.12.07 7.13-4.6 7.15-1.69-4.15.34-5.81 4.6-7.15zM976.45 476.76c-.13-5-.42-9.5-.27-14a4.57 4.57 0 0 1 2.26-3.43c1.14-.45 3.64-.07 4.1.76a44.49 44.49 0 0 1 4.56 10.84c.27 1.1-2.16 3.36-3.81 4.28s-4.04.95-6.84 1.55zM1019.62 419.74c2.62-.11 4.69-.79 5.3-.12a54.34 54.34 0 0 1 7.9 10.12c1.77 3.2-.88 6.52-4.5 5.82-2.16-.42-5.07-1.8-5.84-3.54-1.54-3.52-1.85-7.58-2.86-12.28zM1000.16 584.61c-10.78-4.69-10.78-4.69-10.4-14.6 7.9-.19 12.5 5.87 10.4 14.6zM946.56 583.26c-2.68-4.68-4.55-7.19-5.55-10-.49-1.38.19-3.69 1.18-4.9.59-.72 2.79-.23 4.25-.1a2.54 2.54 0 0 1 1.57.94c1.79 2.31 4.76 4.63 4.84 7 .07 1.95-3.39 4-6.29 7.06zM931.42 507.09c-3.3 4.16-5.78 4.26-8.75.59-2.65-3.27-5.71-6.34-3-10.7.49-.8 4.47-.78 5.29.18 2.55 3.01 4.4 6.65 6.46 9.93zM904.06 416.66c9.69 4.35 12.54 8.66 9.9 15-7.62-3.25-11.96-9.75-9.9-15zM1053.18 546.62l-2.65-8.53c8.42-2.82 12.35-.55 13.54 7.41-.52.31-1 .86-1.57.88-2.79.14-5.6.16-9.32.24zM1015 513.86l12.51 10.19c-3.46 6.84-4.24 7.14-8.53 2.49-2.98-3.28-6.74-6.54-3.98-12.68zM927.67 393.75c-2.19-4.92-6.28-9.3-1.4-16.49l8.66 7.88c-2.41 3.13-1.45 7.97-7.26 8.61zM1058.53 467.47c8.67 2 10 3.92 9.17 12.6-9.76-2.36-12.24-4.24-9.17-12.6zM1006 367.46c2 .95 4.31 1.5 5.82 2.94a13.83 13.83 0 0 1 3.8 6.23c.26 1-1.73 3.37-3.12 3.83s-4.09-.26-4.72-1.34c-1.67-2.89-2.54-6.24-3.72-9.41zM960.4 424.05c5.58-1.35 7.86 2.15 9.64 5.78a5.14 5.14 0 0 1-.7 4.78c-.91.86-3.45.86-4.78.22-4.24-2.01-5.04-5.83-4.16-10.78zM814.4 508l5.29-12.65c6.32 1.68 7.66 5.22 6.93 11zM886.29 466.79c-3-3.92-5.36-7-7.65-10.23-.27-.37.08-1.18.23-2.64l8.62-2c-1.83 5.16 6.36 9.21-1.2 14.87zM870.81 500c8 2.53 8.95 8.5 10.68 14.6-8.05-1.91-10.77-5.48-10.68-14.6zM976.42 370.38c-9.42-1-11-3.5-9.22-14.1 7.65 1.95 7.38 8.46 9.22 14.1zM828 395.42c3.5.15 6.78-.41 9.39.67 1.54.63 2 3.85 3 5.9-1.83.75-3.8 2.35-5.47 2.09-4.12-.64-6.3-3.56-6.92-8.66zM845.8 558.73c-1.82 4-5.22 4.55-8 3.26-1.71-.81-2.66-3.93-3.22-6.19-.26-1.07.88-3.13 1.95-3.7a4.52 4.52 0 0 1 4.17.46c2.02 1.78 3.49 4.13 5.1 6.17zM875 556.12l-6.6-8.91c4.61-3.76 7.83-2.57 10.35.68s.59 5.62-3.75 8.23zM908.49 590.24c4.57-2.92 7.47-2.08 9.14 1.81s-.68 5.66-5.19 7.43zM918.38 349.82c-2.17 3.76-6.38 3.21-9.68 4.32-.7.24-2.43-.91-2.8-1.8a3.86 3.86 0 0 1 .65-3.33c3.15-3.66 7.35-3.38 11.83.81zM835 439.73c-6.71-2.43-7.45-3.82-6.89-11.68 7.14.22 7.14.22 6.89 11.68zM864.25 392.68c.14-1.1-.23-3.91.73-4.48a9.5 9.5 0 0 1 6.52-.81c.72.17 1.6 4 .85 5.22-1.6 2.6-4.35 3.18-8.1.07zM1026.06 472.19c-.61 3.19-.45 5.48-1.5 6.82-.81 1-3.13.89-4.79 1.27-.38-2.25-1.37-4.64-.86-6.66.21-.82 3.69-.8 7.15-1.43zM973.43 518.5c1.58 5.12.07 7.13-4.6 7.15-1.71-4.16.32-5.81 4.6-7.15zM798.79 215c-.13-5-.42-9.5-.27-14a4.57 4.57 0 0 1 2.26-3.43c1.14-.45 3.64-.07 4.1.76a44.49 44.49 0 0 1 4.56 10.84c.27 1.1-2.16 3.36-3.81 4.28s-4.04 1-6.84 1.55zM842 158c2.62-.11 4.69-.79 5.3-.12a54.34 54.34 0 0 1 7.9 10.12c1.77 3.2-.88 6.52-4.5 5.82-2.16-.42-5.07-1.8-5.84-3.54-1.58-3.49-1.86-7.55-2.86-12.28zM822.5 322.9c-10.78-4.69-10.78-4.69-10.4-14.6 7.9-.19 12.5 5.87 10.4 14.6zM768.9 321.55c-2.68-4.68-4.55-7.19-5.55-10-.49-1.38.19-3.69 1.18-4.9.59-.72 2.79-.23 4.25-.1a2.54 2.54 0 0 1 1.57.94c1.79 2.31 4.76 4.63 4.84 7 .07 1.95-3.39 4-6.29 7.06zM753.76 245.38c-3.3 4.16-5.78 4.26-8.75.59-2.65-3.27-5.71-6.34-3-10.7.49-.8 4.47-.78 5.29.18 2.55 3.01 4.4 6.65 6.46 9.93zM726.4 155c9.69 4.35 12.54 8.66 9.9 15-7.62-3.3-11.91-9.8-9.9-15zM875.53 284.91l-2.65-8.53c8.42-2.82 12.35-.55 13.54 7.41-.52.31-1 .86-1.57.88-2.85.14-5.61.16-9.32.24zM837.38 252.15l12.51 10.19c-3.46 6.84-4.24 7.14-8.53 2.49-3.02-3.28-6.78-6.51-3.98-12.68zM750 132c-2.19-4.92-6.28-9.3-1.4-16.49l8.66 7.88c-2.4 3.17-1.44 8.01-7.26 8.61zM880.87 205.76c8.67 2 10 3.92 9.17 12.6-9.76-2.36-12.24-4.24-9.17-12.6zM828.37 105.74c2 .95 4.31 1.5 5.82 2.94a13.83 13.83 0 0 1 3.8 6.23c.26 1-1.73 3.37-3.12 3.83s-4.09-.26-4.72-1.34c-1.67-2.89-2.54-6.24-3.72-9.41zM782.74 162.34c5.58-1.35 7.86 2.15 9.64 5.78a5.14 5.14 0 0 1-.7 4.78c-.91.86-3.45.86-4.78.22-4.24-2.01-5.04-5.81-4.16-10.78zM636.74 246.34l5.26-12.65c6.32 1.68 7.66 5.22 6.93 11zM708.63 205.08c-3-3.92-5.36-7-7.65-10.23-.27-.37.08-1.18.23-2.64l8.62-2c-1.83 5.16 6.36 9.21-1.2 14.87zM693.15 238.3c8 2.53 8.95 8.5 10.68 14.6-8.05-1.9-10.77-5.49-10.68-14.6zM798.76 108.67c-9.42-1-11-3.5-9.22-14.1 7.65 1.95 7.38 8.43 9.22 14.1zM650.33 133.71c3.5.15 6.78-.41 9.39.67 1.54.63 2 3.85 3 5.9-1.83.75-3.8 2.35-5.47 2.09-4.11-.64-6.25-3.56-6.92-8.66zM668.14 297c-1.82 4-5.22 4.55-8 3.26-1.71-.81-2.66-3.93-3.22-6.19-.26-1.07.88-3.13 1.95-3.7a4.52 4.52 0 0 1 4.17.46c2.02 1.8 3.49 4.17 5.1 6.17zM697.37 294.41l-6.6-8.91c4.61-3.76 7.83-2.57 10.35.68s.56 5.62-3.75 8.23zM730.83 328.52c4.57-2.92 7.47-2.08 9.14 1.81s-.68 5.66-5.19 7.43zM740.72 88.11c-2.17 3.76-6.38 3.21-9.68 4.32-.7.24-2.43-.91-2.8-1.8a3.86 3.86 0 0 1 .65-3.33c3.11-3.66 7.35-3.38 11.83.81zM657.36 178c-6.71-2.43-7.45-3.82-6.89-11.68 7.12.24 7.12.24 6.89 11.68zM686.59 131c.14-1.1-.23-3.91.73-4.48a9.5 9.5 0 0 1 6.52-.81c.72.17 1.6 4 .85 5.22-1.6 2.57-4.37 3.15-8.1.07zM848.4 210.48c-.61 3.19-.45 5.48-1.5 6.82-.81 1-3.13.89-4.79 1.27-.38-2.25-1.37-4.64-.86-6.66.21-.82 3.69-.8 7.15-1.43zM795.77 256.79c1.58 5.12.07 7.13-4.6 7.15-1.71-4.16.32-5.81 4.6-7.15zM1730.54 1014.7c-.13-5-.42-9.5-.27-14a4.57 4.57 0 0 1 2.26-3.43c1.14-.45 3.64-.07 4.1.76a44.49 44.49 0 0 1 4.56 10.84c.27 1.1-2.16 3.36-3.81 4.28s-4.04.95-6.84 1.55zM1773.71 957.67c2.62-.11 4.69-.79 5.3-.12a54.34 54.34 0 0 1 7.9 10.12c1.77 3.2-.88 6.52-4.5 5.82-2.16-.42-5.07-1.8-5.84-3.54-1.57-3.51-1.85-7.57-2.86-12.28zM1754.25 1122.55c-10.78-4.69-10.78-4.69-10.4-14.6 7.91-.19 12.51 5.87 10.4 14.6zM1700.66 1121.2c-2.68-4.68-4.55-7.19-5.55-10-.49-1.38.19-3.69 1.18-4.9.59-.72 2.79-.23 4.25-.1a2.54 2.54 0 0 1 1.57.94c1.79 2.31 4.76 4.63 4.84 7 .05 1.95-3.4 4-6.29 7.06zM1685.51 1045c-3.3 4.16-5.78 4.26-8.75.59-2.65-3.27-5.71-6.34-3-10.7.49-.8 4.47-.78 5.29.18 2.55 3.03 4.4 6.68 6.46 9.93zM1658.16 954.6c9.69 4.35 12.54 8.66 9.9 15-7.63-3.25-11.92-9.75-9.9-15zM1842.23 855.37c9.69 4.35 12.54 8.66 9.9 15-7.63-3.26-11.92-9.76-9.9-15zM1829.58 1076.52l-2.65-8.53c8.42-2.82 12.35-.55 13.54 7.41-.52.31-1 .86-1.57.88-2.8.14-5.61.16-9.32.24zM1769.13 1051.8l12.51 10.19c-3.46 6.84-4.24 7.14-8.53 2.49-3.02-3.28-6.78-6.48-3.98-12.68zM1908.47 867l12.53 10.21c-3.46 6.84-4.24 7.14-8.53 2.49-3.05-3.28-6.8-6.51-4-12.7zM1681.76 931.69c-2.19-4.92-6.28-9.3-1.4-16.49l8.66 7.88c-2.41 3.12-1.45 7.92-7.26 8.61zM1812.62 1005.41c8.67 2 10 3.92 9.17 12.6-9.79-2.36-12.23-4.24-9.17-12.6zM1995.29 998.43c8.67 2 10 3.92 9.17 12.6-9.76-2.36-12.24-4.24-9.17-12.6zM1760.12 905.39c2 .95 4.31 1.5 5.82 2.94a13.83 13.83 0 0 1 3.8 6.23c.26 1-1.73 3.37-3.12 3.83s-4.09-.26-4.72-1.34c-1.67-2.89-2.54-6.24-3.72-9.41zM2007.51 862.87c2 .95 4.31 1.5 5.82 2.94a13.83 13.83 0 0 1 3.8 6.23c.26 1-1.73 3.37-3.12 3.83s-4.09-.26-4.72-1.34c-1.67-2.89-2.54-6.24-3.72-9.41zM1714.49 962c5.58-1.35 7.86 2.15 9.64 5.78a5.14 5.14 0 0 1-.7 4.78c-.91.86-3.45.86-4.78.22-4.24-2.03-5.04-5.78-4.16-10.78zM1568.49 1046l5.29-12.65c6.32 1.68 7.66 5.22 6.93 11zM1640.38 1004.73c-3-3.92-5.36-7-7.65-10.23-.27-.37.08-1.18.23-2.64l8.62-2c-1.83 5.14 6.36 9.21-1.2 14.87zM1624.9 1037.95c8 2.53 8.95 8.5 10.68 14.6-8.05-1.92-10.76-5.49-10.68-14.6zM1833.7 930.39c8 2.53 8.95 8.5 10.68 14.6-8.05-1.91-10.76-5.48-10.68-14.6zM1730.51 908.32c-9.42-1-11-3.5-9.22-14.1 7.65 1.95 7.39 8.45 9.22 14.1zM1582.08 933.36c3.5.15 6.78-.41 9.39.67 1.54.63 2 3.85 3 5.9-1.83.75-3.8 2.35-5.47 2.09-4.11-.64-6.29-3.56-6.92-8.66zM1656.4 821.61c3.5.15 6.78-.41 9.39.67 1.54.63 2 3.85 3 5.9-1.83.75-3.8 2.35-5.47 2.09-4.11-.64-6.32-3.56-6.92-8.66zM1599.9 1096.67c-1.82 4-5.22 4.55-8 3.26-1.71-.81-2.66-3.93-3.22-6.19-.26-1.07.88-3.13 1.95-3.7a4.52 4.52 0 0 1 4.17.46c2.01 1.78 3.48 4.13 5.1 6.17zM1629.13 1094.06l-6.6-8.91c4.61-3.76 7.83-2.57 10.35.68s.55 5.62-3.75 8.23zM1839.9 1106.18l-6.6-8.91c4.61-3.76 7.83-2.57 10.35.68s.56 5.62-3.75 8.23zM1662.58 1128.17c4.57-2.92 7.47-2.08 9.14 1.81s-.68 5.66-5.19 7.43zM1672.47 887.76c-2.17 3.76-6.38 3.21-9.68 4.32-.7.24-2.43-.91-2.8-1.8a3.86 3.86 0 0 1 .65-3.33c3.15-3.66 7.36-3.38 11.83.81zM1589.11 977.66c-6.71-2.43-7.45-3.82-6.89-11.68 7.12.22 7.12.22 6.89 11.68zM1618.34 930.62c.14-1.1-.23-3.91.73-4.48a9.5 9.5 0 0 1 6.52-.81c.72.17 1.6 4 .85 5.22-1.6 2.6-4.36 3.18-8.1.07zM1826 732.68c.14-1.1-.23-3.91.73-4.48a9.5 9.5 0 0 1 6.52-.81c.72.17 1.6 4 .85 5.22-1.61 2.6-4.37 3.18-8.1.07zM1780.15 1010.13c-.61 3.19-.45 5.48-1.5 6.82-.81 1-3.13.89-4.79 1.27-.38-2.25-1.37-4.64-.86-6.66.21-.82 3.69-.8 7.15-1.43zM1727.52 1056.43c1.58 5.12.07 7.13-4.6 7.15-1.71-4.15.33-5.8 4.6-7.15zM2035 1013.92c-.13-5-.42-9.5-.27-14a4.57 4.57 0 0 1 2.26-3.43c1.14-.45 3.64-.07 4.1.76a44.49 44.49 0 0 1 4.56 10.84c.27 1.1-2.16 3.36-3.81 4.28s-4.08.96-6.84 1.55zM2005.07 1120.42c-2.68-4.68-4.55-7.19-5.55-10-.49-1.38.19-3.69 1.18-4.9.59-.72 2.79-.23 4.25-.1a2.54 2.54 0 0 1 1.57.94c1.79 2.31 4.76 4.63 4.84 7 .06 1.95-3.36 4.01-6.29 7.06zM1989.92 1044.25c-3.3 4.16-5.78 4.26-8.75.59-2.65-3.27-5.71-6.34-3-10.7.49-.8 4.47-.78 5.29.18 2.54 3.01 4.4 6.68 6.46 9.93zM1962.57 953.83c9.69 4.35 12.54 8.66 9.9 15-7.63-3.26-11.92-9.76-9.9-15zM1986.17 930.91c-2.19-4.92-6.28-9.3-1.4-16.49l8.66 7.88c-2.43 3.13-1.43 7.97-7.26 8.61zM2018.9 961.21c5.58-1.35 7.86 2.15 9.64 5.78a5.14 5.14 0 0 1-.7 4.78c-.91.86-3.45.86-4.78.22-4.24-1.99-5.06-5.81-4.16-10.78zM1872.9 1045.21l5.29-12.65c6.32 1.68 7.66 5.22 6.93 11zM1944.79 1004c-3-3.92-5.36-7-7.65-10.23-.27-.37.08-1.18.23-2.64l8.62-2c-1.83 5.11 6.36 9.16-1.2 14.87zM1929.32 1037.17c8 2.53 8.95 8.5 10.68 14.6-8.05-1.91-10.77-5.49-10.68-14.6zM2034.92 907.55c-9.42-1-11-3.5-9.22-14.1 7.65 1.95 7.39 8.45 9.22 14.1zM1886.49 932.58c3.5.15 6.78-.41 9.39.67 1.54.63 2 3.85 3 5.9-1.83.75-3.8 2.35-5.47 2.09-4.11-.64-6.29-3.56-6.92-8.66zM1904.31 1095.89c-1.82 4-5.22 4.55-8 3.26-1.71-.81-2.66-3.93-3.22-6.19-.26-1.07.88-3.13 1.95-3.7a4.52 4.52 0 0 1 4.17.46c2.01 1.78 3.48 4.13 5.1 6.17zM1933.54 1093.28l-6.6-8.91c4.61-3.76 7.83-2.57 10.35.68s.56 5.62-3.75 8.23zM1967 1127.4c4.57-2.92 7.47-2.08 9.14 1.81s-.68 5.66-5.19 7.43zM1976.89 887c-2.17 3.76-6.38 3.21-9.68 4.32-.7.24-2.43-.91-2.8-1.8a3.86 3.86 0 0 1 .65-3.33c3.14-3.67 7.34-3.4 11.83.81zM1893.53 976.89c-6.71-2.43-7.45-3.82-6.89-11.68 7.12.22 7.12.22 6.89 11.68zM1922.75 929.85c.14-1.1-.23-3.91.73-4.48a9.5 9.5 0 0 1 6.52-.81c.72.17 1.6 4 .85 5.22-1.6 2.59-4.36 3.17-8.1.07zM2031.94 1055.66c1.58 5.12.07 7.13-4.6 7.15-1.72-4.16.32-5.81 4.6-7.15zM1857.29 752.21c-.13-5-.42-9.5-.27-14a4.57 4.57 0 0 1 2.26-3.43c1.14-.45 3.64-.07 4.1.76a44.49 44.49 0 0 1 4.56 10.84c.27 1.1-2.16 3.36-3.81 4.28s-4.03.95-6.84 1.55zM1900.46 695.19c2.62-.11 4.69-.79 5.3-.12a54.34 54.34 0 0 1 7.9 10.12c1.77 3.2-.88 6.52-4.5 5.82-2.16-.42-5.07-1.8-5.84-3.54-1.53-3.52-1.85-7.58-2.86-12.28zM1881 860.07c-10.78-4.69-10.78-4.69-10.4-14.6 7.91-.2 12.51 5.86 10.4 14.6zM1827.41 858.71c-2.68-4.68-4.55-7.19-5.55-10-.49-1.38.19-3.69 1.18-4.9.59-.72 2.79-.23 4.25-.1a2.54 2.54 0 0 1 1.57.94c1.79 2.31 4.76 4.63 4.84 7 .06 1.95-3.4 4.01-6.29 7.06zM1812.26 782.54c-3.3 4.16-5.78 4.26-8.75.59-2.65-3.27-5.71-6.34-3-10.7.49-.8 4.47-.78 5.29.18 2.56 3.01 4.4 6.65 6.46 9.93zM1784.91 692.12c9.69 4.35 12.54 8.66 9.9 15-7.63-3.26-11.92-9.76-9.9-15zM1934 822.07l-2.65-8.53c8.42-2.82 12.35-.55 13.54 7.41-.52.31-1 .86-1.57.88-2.77.17-5.58.17-9.32.24zM1895.88 789.31l12.51 10.19c-3.46 6.84-4.24 7.14-8.53 2.49-3.02-3.27-6.77-6.51-3.98-12.68zM1808.51 669.2c-2.19-4.92-6.28-9.3-1.4-16.49l8.66 7.88c-2.41 3.13-1.45 7.97-7.26 8.61zM1939.38 742.92c8.67 2 10 3.92 9.17 12.6-9.77-2.36-12.24-4.24-9.17-12.6zM1886.87 642.91c2 .95 4.31 1.5 5.82 2.94a13.83 13.83 0 0 1 3.8 6.23c.26 1-1.73 3.37-3.12 3.83s-4.09-.26-4.72-1.34c-1.67-2.89-2.54-6.24-3.72-9.41zM1841.24 699.5c5.58-1.35 7.86 2.15 9.64 5.78a5.14 5.14 0 0 1-.7 4.78c-.91.86-3.45.86-4.78.22-4.23-2.01-5.03-5.81-4.16-10.78zM1695.24 783.5l5.29-12.65c6.32 1.68 7.66 5.22 6.93 11zM1767.13 742.25c-3-3.92-5.36-7-7.65-10.23-.27-.37.08-1.18.23-2.64l8.62-2c-1.83 5.15 6.36 9.2-1.2 14.87zM1751.66 775.46c8 2.53 8.95 8.5 10.68 14.6-8.05-1.91-10.77-5.49-10.68-14.6zM1857.26 645.84c-9.42-1-11-3.5-9.22-14.1 7.65 1.95 7.39 8.45 9.22 14.1zM1708.83 670.87c3.5.15 6.78-.41 9.39.67 1.54.63 2 3.85 3 5.9-1.83.75-3.8 2.35-5.47 2.09-4.11-.64-6.29-3.53-6.92-8.66zM1726.65 834.18c-1.82 4-5.22 4.55-8 3.26-1.71-.81-2.66-3.93-3.22-6.19-.26-1.07.88-3.13 1.95-3.7a4.52 4.52 0 0 1 4.17.46c2.01 1.78 3.45 4.13 5.1 6.17zM1755.88 831.57l-6.6-8.91c4.61-3.76 7.83-2.57 10.35.68s.56 5.66-3.75 8.23zM1789.34 865.69c4.57-2.92 7.47-2.08 9.14 1.81s-.68 5.66-5.19 7.43zM1799.23 625.27c-2.17 3.76-6.38 3.21-9.68 4.32-.7.24-2.43-.91-2.8-1.8a3.86 3.86 0 0 1 .65-3.33c3.14-3.66 7.35-3.38 11.83.81zM1715.87 715.18c-6.71-2.43-7.45-3.82-6.89-11.68 7.12.22 7.12.22 6.89 11.68zM1745.09 668.13c.14-1.1-.23-3.91.73-4.48a9.5 9.5 0 0 1 6.52-.81c.72.17 1.6 4 .85 5.22-1.6 2.6-4.36 3.18-8.1.07zM1906.9 747.64c-.61 3.19-.45 5.48-1.5 6.82-.81 1-3.13.89-4.79 1.27-.38-2.25-1.37-4.64-.86-6.66.25-.81 3.69-.8 7.15-1.43zM1854.28 793.95c1.58 5.12.07 7.13-4.6 7.15-1.68-4.16.32-5.81 4.6-7.15zM964.25 944.21c-3.41 3.59-6.42 7-9.74 10.11a4.57 4.57 0 0 1-4 .83c-1.13-.49-2.62-2.53-2.36-3.43a44.49 44.49 0 0 1 4.44-10.89c.59-1 3.9-.85 5.72-.33s3.54 2.15 5.94 3.71zM893.41 954c-1.93-1.77-3.87-2.76-3.83-3.66a54.34 54.34 0 0 1 1.57-12.74c1-3.51 5.23-4 7.29-.93 1.23 1.82 2.31 4.86 1.62 6.63-1.4 3.57-4.06 6.7-6.65 10.7zM1023.75 851.18c4.31 10.94 4.31 10.94-3 17.68-5.7-5.46-4.66-12.99 3-17.68zM1060.69 890c-1.42 5.2-1.87 8.3-3.16 11-.63 1.32-2.74 2.47-4.3 2.63-.93.1-2.14-1.81-3.08-2.93a2.54 2.54 0 0 1-.45-1.77c.36-2.9-.09-6.64 1.56-8.4 1.32-1.38 5.22-.38 9.43-.53zM776.44 596.06c-1.42 5.2-1.87 8.3-3.16 11-.63 1.32-2.74 2.47-4.3 2.63-.93.1-2.14-1.81-3.08-2.93a2.54 2.54 0 0 1-.45-1.77c.36-2.9-.09-6.64 1.56-8.4 1.33-1.41 5.22-.41 9.43-.53zM1017.54 954.61c5.27-.61 7.09 1.08 6.6 5.77-.44 4.18-.44 8.52-5.42 9.71-.92.22-3.71-2.61-3.61-3.87.3-3.96 1.57-7.84 2.43-11.61zM972.94 1037.89c-3.78-9.93-2.74-15 3.6-17.6 3.1 7.71 1.54 15.31-3.6 17.6zM772.62 977.9c-3.78-9.93-2.74-15 3.6-17.6 3.09 7.7 1.53 15.31-3.6 17.6zM937.94 830.47l-4.16 7.9c-7.95-4-9.13-8.34-4.33-14.81.58.15 1.33.12 1.73.48 2.08 1.88 4.07 3.86 6.76 6.43zM963.2 890.69l-1.64-16.05c7.28-2.39 8-2 7.79 4.28-.18 4.44.19 9.38-6.15 11.77zM734 922.82l-1.64-16.05c7.28-2.39 8-2 7.79 4.28-.15 4.44.21 9.39-6.15 11.77zM940 1037.4c-1.93 5-2.14 11-10.67 12.66l-.55-11.69c3.96-.52 6.71-4.62 11.22-.97zM899.64 892.73c-4.69-7.58-4.28-9.83 2.43-15.39 5.24 8.58 5.66 11.66-2.43 15.39zM765.54 768.5c-4.69-7.58-4.28-9.83 2.43-15.39 5.24 8.58 5.66 11.65-2.43 15.39zM866 1000.59c-.73-2.06-2-4.11-2-6.19a13.83 13.83 0 0 1 1.72-7.1c.54-.9 3.6-1.16 4.91-.5s2.71 3.08 2.39 4.28c-.86 3.22-2.62 6.21-4 9.28zM661 855.73c-.73-2.06-2-4.11-2-6.19a13.83 13.83 0 0 1 1.72-7.1c.54-.9 3.6-1.16 4.91-.5s2.71 3.08 2.39 4.28c-.86 3.22-2.62 6.21-4 9.28zM938.33 992.83c-4.9-3-4-7.08-2.72-10.9a5.14 5.14 0 0 1 3.88-2.88c1.25 0 3 1.83 3.54 3.22 1.55 4.42-.56 7.67-4.7 10.56zM1101 1036.67l-12.68 5.21c-3.28-5.66-1.73-9.11 2.89-12.69zM1021 1015c-.68 4.87-1.19 8.76-1.83 12.64-.07.45-.89.78-2 1.7l-7.54-4.65c4.91-2.37 1.98-11.02 11.37-9.69zM1055.39 1002.47c-3.84-7.42-.31-12.34 2.78-17.88 4.33 7.05 3.72 11.49-2.78 17.88zM831.69 930.88c-3.84-7.42-.31-12.34 2.78-17.88 4.33 7 3.73 11.49-2.78 17.88zM889.06 1019.45c5.94 7.38 5.32 10.27-3.45 16.48-4.04-6.78.75-11.19 3.45-16.48zM1011.71 1106.7c-2.37-2.58-5.08-4.5-6.17-7.11-.64-1.54 1.29-4.15 2.07-6.28 1.83.76 4.35 1 5.35 2.39 2.44 3.3 1.92 6.95-1.25 11zM880.15 1133.17c-2.37-2.58-5.08-4.5-6.17-7.11-.64-1.54 1.29-4.15 2.07-6.28 1.83.76 4.35 1 5.35 2.39 2.43 3.34 1.91 6.95-1.25 11zM1114.6 978.63c4.14-1.56 6.91.48 7.93 3.33.64 1.78-.9 4.66-2.1 6.66-.57.94-2.84 1.59-4 1.24a4.52 4.52 0 0 1-2.62-3.27c-.14-2.68.48-5.38.79-7.96zM1092.08 959.81l-1.63 11c-5.92-.6-7.35-3.72-6.83-7.8s3.57-4.4 8.46-3.2zM951.61 802.19l-1.63 11c-5.92-.6-7.35-3.72-6.83-7.8s3.57-4.39 8.46-3.2zM1092.55 912c-5.3-1.17-6.76-3.81-5.18-7.74s4.49-3.52 8.92-1.58zM915.55 1075c4.19-1.13 6.78 2.24 9.9 3.79.67.33 1.07 2.36.71 3.25a3.86 3.86 0 0 1-2.81 1.9c-4.81.39-7.59-2.78-7.8-8.94zM1038.07 1070.4c3 6.46 2.57 8-3.39 13.14-4.88-5.2-4.88-5.2 3.39-13.14zM984.14 1083c-.87.68-2.6 2.93-3.68 2.65a9.5 9.5 0 0 1-5.18-4c-.39-.63 1.71-4 3.09-4.29 2.96-.74 5.32.8 5.77 5.64zM697.34 1076.13c-.87.68-2.6 2.93-3.68 2.65a9.5 9.5 0 0 1-5.18-4c-.39-.63 1.71-4 3.09-4.29 2.97-.74 5.33.81 5.77 5.64zM925.94 912.36c2.69-1.82 4.2-3.55 5.89-3.76 1.31-.16 2.85 1.59 4.28 2.49-1.32 1.86-2.32 4.25-4.1 5.32-.73.43-3.18-2.05-6.07-4.05zM995.9 916.83c2.51-4.74 5-5.09 8.31-1.8-1.73 4.15-4.34 3.88-8.31 1.8zM748.45 729.51c-3.41 3.59-6.42 7-9.74 10.11a4.57 4.57 0 0 1-4 .83c-1.13-.49-2.62-2.53-2.36-3.43a44.49 44.49 0 0 1 4.44-10.89c.59-1 3.9-.85 5.72-.33s3.49 2.15 5.94 3.71zM677.6 739.3c-1.93-1.77-3.87-2.76-3.83-3.66a54.34 54.34 0 0 1 1.57-12.74c1-3.51 5.23-4 7.29-.93 1.23 1.82 2.31 4.86 1.62 6.63-1.39 3.57-4.03 6.66-6.65 10.7zM808 636.48c4.31 10.94 4.31 10.94-3 17.68-5.75-5.46-4.71-13 3-17.68zM844.89 675.33c-1.42 5.2-1.87 8.3-3.16 11-.63 1.32-2.74 2.47-4.3 2.63-.93.1-2.14-1.81-3.08-2.93a2.54 2.54 0 0 1-.45-1.77c.36-2.9-.09-6.64 1.56-8.4 1.32-1.41 5.22-.42 9.43-.53zM801.74 739.91c5.27-.61 7.09 1.08 6.6 5.77-.44 4.18-.44 8.52-5.42 9.71-.92.22-3.71-2.61-3.61-3.87.3-3.96 1.57-7.84 2.43-11.61zM757.14 823.18c-3.78-9.93-2.74-15 3.6-17.6 3.1 7.69 1.54 15.32-3.6 17.6zM743.59 625.85l-4.16 7.9c-7.95-4-9.13-8.34-4.33-14.81.58.15 1.33.12 1.73.48 2.08 1.88 4.07 3.86 6.76 6.43zM747.4 676l-1.64-16.05c7.28-2.39 8-2 7.79 4.28-.18 4.43.19 9.37-6.15 11.77zM724.25 822.7c-1.93 5-2.14 11-10.67 12.66l-.58-11.7c3.94-.52 6.69-4.66 11.25-.96zM683.84 678c-4.69-7.58-4.28-9.83 2.43-15.39 5.23 8.6 5.66 11.68-2.43 15.39zM650.25 785.88c-.73-2.06-2-4.11-2-6.19a13.83 13.83 0 0 1 1.72-7.1c.54-.9 3.6-1.16 4.91-.5s2.71 3.08 2.39 4.28c-.86 3.22-2.62 6.21-4 9.28zM722.53 778.13c-4.9-3-4-7.08-2.72-10.9a5.14 5.14 0 0 1 3.88-2.88c1.25 0 3 1.83 3.54 3.22 1.55 4.43-.56 7.66-4.7 10.56zM885.16 822l-12.68 5.21c-3.28-5.66-1.73-9.11 2.89-12.69zM805.16 800.31c-.68 4.87-1.19 8.76-1.83 12.64-.07.45-.89.78-2 1.7l-7.57-4.65c4.98-2.38 2.05-11 11.4-9.69zM839.59 787.76c-3.84-7.42-.31-12.34 2.78-17.88 4.33 7.05 3.72 11.5-2.78 17.88zM673.25 804.75c5.94 7.38 5.32 10.27-3.45 16.48-4.03-6.78.76-11.23 3.45-16.48zM795.91 892c-2.37-2.58-5.08-4.5-6.17-7.11-.64-1.54 1.29-4.15 2.07-6.28 1.83.76 4.35 1 5.35 2.39 2.44 3.34 1.92 6.95-1.25 11zM898.8 763.92c4.14-1.56 6.91.48 7.93 3.33.64 1.78-.9 4.66-2.1 6.66-.57.94-2.84 1.59-4 1.24a4.52 4.52 0 0 1-2.62-3.27c-.14-2.67.48-5.37.79-7.96zM876.28 745.1l-1.63 11c-5.92-.6-7.35-3.72-6.83-7.8s3.57-4.4 8.46-3.2zM876.74 697.32c-5.3-1.17-6.76-3.81-5.18-7.74s4.49-3.52 8.92-1.58zM699.75 860.33c4.19-1.13 6.78 2.24 9.9 3.79.67.33 1.07 2.36.71 3.25a3.86 3.86 0 0 1-2.81 1.9c-4.81.36-7.55-2.81-7.8-8.94zM822.27 855.7c3 6.46 2.57 8-3.39 13.14-4.88-5.2-4.88-5.2 3.39-13.14zM768.34 868.29c-.87.68-2.6 2.93-3.68 2.65a9.5 9.5 0 0 1-5.18-4c-.39-.63 1.71-4 3.09-4.29 2.96-.74 5.32.81 5.77 5.64zM710.14 697.66c2.69-1.82 4.2-3.55 5.89-3.76 1.31-.16 2.85 1.59 4.28 2.49-1.32 1.86-2.32 4.25-4.1 5.32-.73.42-3.21-2.05-6.07-4.05zM780.1 702.13c2.51-4.74 5-5.09 8.31-1.8-1.73 4.14-4.34 3.87-8.31 1.8zM689 1040.19c-3.41 3.59-6.42 7-9.74 10.11a4.57 4.57 0 0 1-4 .83c-1.13-.49-2.62-2.53-2.36-3.43a44.49 44.49 0 0 1 4.44-10.89c.59-1 3.9-.85 5.72-.33s3.56 2.15 5.94 3.71zM618.17 1050c-1.93-1.77-3.87-2.76-3.83-3.66a54.34 54.34 0 0 1 1.57-12.74c1-3.51 5.23-4 7.29-.93 1.23 1.82 2.31 4.86 1.62 6.63-1.39 3.55-4.04 6.64-6.65 10.7zM748.52 947.16c4.31 10.94 4.31 10.94-3 17.68-5.7-5.46-4.67-13 3-17.68zM785.46 986c-1.42 5.2-1.87 8.3-3.16 11-.63 1.32-2.74 2.47-4.3 2.63-.93.1-2.14-1.81-3.08-2.93a2.54 2.54 0 0 1-.45-1.77c.36-2.9-.09-6.64 1.56-8.4 1.32-1.4 5.22-.4 9.43-.53zM742.31 1050.59c5.27-.61 7.09 1.08 6.6 5.77-.44 4.18-.44 8.52-5.42 9.71-.92.22-3.71-2.61-3.61-3.87.29-3.96 1.56-7.84 2.43-11.61zM697.71 1133.87c-3.78-9.93-2.74-15 3.6-17.6 3.1 7.73 1.53 15.31-3.6 17.6zM684.15 936.53l-4.16 7.9c-7.95-4-9.13-8.34-4.33-14.81.58.15 1.33.12 1.73.48 2.09 1.9 4.08 3.9 6.76 6.43zM688 986.67l-1.64-16.05c7.28-2.39 8-2 7.79 4.28-.21 4.44.16 9.38-6.15 11.77zM664.81 1133.38c-1.93 5-2.14 11-10.67 12.66l-.55-11.69c3.92-.52 6.66-4.63 11.22-.97zM624.41 988.71c-4.69-7.58-4.28-9.83 2.43-15.39 5.23 8.58 5.65 11.68-2.43 15.39zM590.82 1096.56c-.73-2.06-2-4.11-2-6.19a13.83 13.83 0 0 1 1.72-7.1c.54-.9 3.6-1.16 4.91-.5s2.71 3.08 2.39 4.28c-.86 3.22-2.62 6.21-4 9.28zM663.1 1088.81c-4.9-3-4-7.08-2.72-10.9a5.14 5.14 0 0 1 3.88-2.88c1.25 0 3 1.83 3.54 3.22 1.55 4.42-.57 7.66-4.7 10.56zM825.73 1132.65l-12.73 5.21c-3.28-5.66-1.73-9.11 2.89-12.69zM745.72 1111c-.68 4.87-1.19 8.76-1.83 12.64-.07.45-.89.78-2 1.7l-7.54-4.65c4.95-2.39 2.02-11.04 11.37-9.69zM780.15 1098.45c-3.84-7.42-.31-12.34 2.78-17.88 4.34 7.05 3.73 11.49-2.78 17.88zM613.82 1115.43c5.94 7.38 5.32 10.27-3.45 16.48-4.03-6.78.75-11.19 3.45-16.48zM736.48 1202.68c-2.37-2.58-5.08-4.5-6.17-7.11-.64-1.54 1.29-4.15 2.07-6.28 1.83.76 4.35 1 5.35 2.39 2.44 3.32 1.91 6.95-1.25 11zM839.36 1074.6c4.14-1.56 6.91.48 7.93 3.33.64 1.78-.9 4.66-2.1 6.66-.57.94-2.84 1.59-4 1.24a4.52 4.52 0 0 1-2.62-3.27c-.13-2.67.49-5.37.79-7.96zM816.85 1055.79l-1.63 11c-5.92-.6-7.35-3.72-6.83-7.8s3.61-4.41 8.46-3.2zM817.31 1008c-5.3-1.17-6.76-3.81-5.18-7.74s4.49-3.52 8.92-1.58zM640.32 1171c4.19-1.13 6.78 2.24 9.9 3.79.67.33 1.07 2.36.71 3.25a3.86 3.86 0 0 1-2.81 1.9c-4.82.37-7.59-2.8-7.8-8.94zM762.84 1166.38c3 6.46 2.57 8-3.39 13.14-4.88-5.2-4.88-5.2 3.39-13.14zM708.91 1179c-.87.68-2.6 2.93-3.68 2.65a9.5 9.5 0 0 1-5.18-4c-.39-.63 1.71-4 3.09-4.29 2.96-.77 5.32.78 5.77 5.64zM650.71 1008.34c2.69-1.82 4.2-3.55 5.89-3.76 1.31-.16 2.85 1.59 4.28 2.49-1.32 1.86-2.32 4.25-4.1 5.32-.73.42-3.18-2.05-6.07-4.05zM720.66 1012.81c2.51-4.74 5-5.09 8.31-1.8-1.72 4.15-4.33 3.88-8.31 1.8zM1260.42 622.59c-.13-5-.42-9.5-.27-14a4.57 4.57 0 0 1 2.26-3.43c1.14-.45 3.64-.07 4.1.76a44.49 44.49 0 0 1 4.56 10.84c.27 1.1-2.16 3.36-3.81 4.28s-4.04.96-6.84 1.55zM1303.59 565.57c2.62-.11 4.69-.79 5.3-.12a54.34 54.34 0 0 1 7.9 10.12c1.77 3.2-.88 6.52-4.5 5.82-2.16-.42-5.07-1.8-5.84-3.54-1.53-3.52-1.85-7.58-2.86-12.28zM1284.13 730.45c-10.78-4.69-10.78-4.69-10.4-14.6 7.91-.2 12.51 5.86 10.4 14.6zM1230.54 729.09c-2.68-4.68-4.55-7.19-5.55-10-.49-1.38.19-3.69 1.18-4.9.59-.72 2.79-.23 4.25-.1a2.54 2.54 0 0 1 1.57.94c1.79 2.31 4.76 4.63 4.84 7 .06 1.97-3.4 3.97-6.29 7.06zM1639.4 736c-2.68-4.68-4.55-7.19-5.55-10-.49-1.38.19-3.69 1.18-4.9.59-.72 2.79-.23 4.25-.1a2.54 2.54 0 0 1 1.57.94c1.79 2.31 4.76 4.63 4.84 7 .06 1.92-3.4 3.97-6.29 7.06zM1215.39 652.92c-3.3 4.16-5.78 4.26-8.75.59-2.65-3.27-5.71-6.34-3-10.7.49-.8 4.47-.78 5.29.18 2.55 3.01 4.4 6.65 6.46 9.93zM1188 562.5c9.69 4.35 12.54 8.66 9.9 15-7.59-3.26-11.9-9.76-9.9-15zM1372.11 463.27c9.69 4.35 12.54 8.66 9.9 15-7.63-3.27-11.92-9.76-9.9-15zM1359.46 684.41l-2.65-8.53c8.42-2.82 12.35-.55 13.54 7.41-.52.31-1 .86-1.57.88-2.78.15-5.61.16-9.32.24zM1299 659.69l12.51 10.19c-3.46 6.84-4.24 7.14-8.53 2.49-2.98-3.27-6.77-6.51-3.98-12.68zM1438.35 474.92l12.51 10.19c-3.46 6.84-4.24 7.14-8.53 2.49-3.03-3.28-6.78-6.52-3.98-12.68zM1211.64 539.58c-2.19-4.92-6.28-9.3-1.4-16.49l8.66 7.88c-2.41 3.13-1.45 7.97-7.26 8.61zM1342.5 613.31c8.67 2 10 3.92 9.17 12.6-9.76-2.37-12.24-4.24-9.17-12.6zM1525.17 606.33c8.67 2 10 3.92 9.17 12.6-9.76-2.36-12.24-4.24-9.17-12.6zM1290 513.29c2 .95 4.31 1.5 5.82 2.94a13.83 13.83 0 0 1 3.8 6.23c.26 1-1.73 3.37-3.12 3.83s-4.09-.26-4.72-1.34c-1.67-2.89-2.54-6.24-3.72-9.41zM1537.39 470.76c2 .95 4.31 1.5 5.82 2.94a13.83 13.83 0 0 1 3.8 6.23c.26 1-1.73 3.37-3.12 3.83s-4.09-.26-4.72-1.34c-1.67-2.89-2.54-6.24-3.72-9.41zM1244.37 569.89c5.58-1.35 7.86 2.15 9.64 5.78a5.14 5.14 0 0 1-.7 4.78c-.91.86-3.45.86-4.78.22-4.24-2.02-5.04-5.81-4.16-10.78z"/><path class="cls-4" d="M1098.37 653.88l5.29-12.65c6.32 1.68 7.66 5.22 6.93 11zM1170.26 612.63c-3-3.92-5.36-7-7.65-10.23-.27-.37.08-1.18.23-2.64l8.62-2c-1.83 5.16 6.36 9.24-1.2 14.87zM1154.78 645.84c8 2.53 8.95 8.5 10.68 14.6-8.05-1.91-10.76-5.44-10.68-14.6zM1363.58 538.29c8 2.53 8.95 8.5 10.68 14.6-8.05-1.89-10.77-5.49-10.68-14.6zM1260.39 516.22c-9.42-1-11-3.5-9.22-14.1 7.65 1.95 7.39 8.45 9.22 14.1zM1112 541.25c3.5.15 6.78-.41 9.39.67 1.54.63 2 3.85 3 5.9-1.83.75-3.8 2.35-5.47 2.09-4.15-.63-6.33-3.55-6.92-8.66zM1186.28 429.51c3.5.15 6.78-.41 9.39.67 1.54.63 2 3.85 3 5.9-1.83.75-3.8 2.35-5.47 2.09-4.11-.64-6.29-3.56-6.92-8.66zM1129.78 704.57c-1.82 4-5.22 4.55-8 3.26-1.71-.81-2.66-3.93-3.22-6.19-.26-1.07.88-3.13 1.95-3.7a4.52 4.52 0 0 1 4.17.46c2.01 1.77 3.48 4.13 5.1 6.17zM1159 702l-6.6-8.91c4.61-3.76 7.83-2.57 10.35.68s.56 5.57-3.75 8.23zM1369.78 714.08l-6.6-8.91c4.61-3.76 7.83-2.57 10.35.68s.56 5.62-3.75 8.23zM1192.46 736.07c4.57-2.92 7.47-2.08 9.14 1.81s-.68 5.66-5.19 7.43zM1202.35 495.65c-2.17 3.76-6.38 3.21-9.68 4.32-.7.24-2.43-.91-2.8-1.8a3.86 3.86 0 0 1 .65-3.33c3.15-3.65 7.35-3.37 11.83.81zM1119 585.56c-6.71-2.43-7.45-3.82-6.89-11.68 7.11.22 7.11.22 6.89 11.68zM1148.22 538.52c.14-1.1-.23-3.91.73-4.48a9.5 9.5 0 0 1 6.52-.81c.72.17 1.6 4 .85 5.22-1.6 2.55-4.32 3.17-8.1.07zM1355.87 340.58c.14-1.1-.23-3.91.73-4.48a9.5 9.5 0 0 1 6.52-.81c.72.17 1.6 4 .85 5.22-1.6 2.6-4.36 3.17-8.1.07zM1310 618c-.61 3.19-.45 5.48-1.5 6.82-.81 1-3.13.89-4.79 1.27-.38-2.25-1.37-4.64-.86-6.66.24-.79 3.72-.78 7.15-1.43zM1257.4 664.33c1.58 5.12.07 7.13-4.6 7.15-1.71-4.15.33-5.81 4.6-7.15zM1564.83 621.82c-.13-5-.42-9.5-.27-14a4.57 4.57 0 0 1 2.26-3.43c1.14-.45 3.64-.07 4.1.76a44.49 44.49 0 0 1 4.56 10.84c.27 1.1-2.16 3.36-3.81 4.28s-4.03.95-6.84 1.55zM1608 564.79c2.62-.11 4.69-.79 5.3-.12a54.34 54.34 0 0 1 7.9 10.12c1.77 3.2-.88 6.52-4.5 5.82-2.16-.42-5.07-1.8-5.84-3.54-1.53-3.51-1.86-7.57-2.86-12.28zM1588.54 729.67c-10.78-4.69-10.78-4.69-10.4-14.6 7.86-.19 12.51 5.87 10.4 14.6zM1534.95 728.32c-2.68-4.68-4.55-7.19-5.55-10-.49-1.38.19-3.69 1.18-4.9.59-.72 2.79-.23 4.25-.1a2.54 2.54 0 0 1 1.57.94c1.79 2.31 4.76 4.63 4.84 7 .06 1.95-3.4 4-6.29 7.06zM1519.8 652.14c-3.3 4.16-5.78 4.26-8.75.59-2.65-3.27-5.71-6.34-3-10.7.49-.8 4.47-.78 5.29.18 2.56 3.01 4.4 6.66 6.46 9.93zM1492.45 561.72c9.69 4.35 12.54 8.66 9.9 15-7.63-3.25-11.92-9.72-9.9-15zM1641.57 691.67l-2.65-8.53c8.42-2.82 12.35-.55 13.54 7.41-.52.31-1 .86-1.57.88-2.8.15-5.61.16-9.32.24zM1603.42 658.92l12.51 10.19c-3.46 6.84-4.24 7.14-8.53 2.49-3.02-3.28-6.78-6.51-3.98-12.68zM1516.05 538.81c-2.19-4.92-6.28-9.3-1.4-16.49l8.66 7.88c-2.41 3.12-1.45 7.97-7.26 8.61zM1646.92 612.53c8.67 2 10 3.92 9.17 12.6-9.77-2.36-12.24-4.24-9.17-12.6zM1594.41 512.51c2 .95 4.31 1.5 5.82 2.94a13.83 13.83 0 0 1 3.8 6.23c.26 1-1.73 3.37-3.12 3.83s-4.09-.26-4.72-1.34c-1.67-2.89-2.54-6.24-3.72-9.41zM1548.78 569.11c5.58-1.35 7.86 2.15 9.64 5.78a5.14 5.14 0 0 1-.7 4.78c-.91.86-3.45.86-4.78.22-4.24-2.02-5.04-5.81-4.16-10.78zM1402.78 653.11l5.29-12.65c6.32 1.68 7.66 5.22 6.93 11zM1474.67 611.85c-3-3.92-5.36-7-7.65-10.23-.27-.37.08-1.18.23-2.64l8.62-2c-1.87 5.16 6.36 9.21-1.2 14.87zM1459.2 645.07c8 2.53 8.95 8.5 10.68 14.6-8.05-1.92-10.77-5.49-10.68-14.6zM1564.8 515.44c-9.42-1-11-3.5-9.22-14.1 7.65 1.95 7.42 8.45 9.22 14.1zM1416.37 540.48c3.5.15 6.78-.41 9.39.67 1.54.63 2 3.85 3 5.9-1.83.75-3.8 2.35-5.47 2.09-4.11-.64-6.29-3.56-6.92-8.66zM1434.19 703.79c-1.82 4-5.22 4.55-8 3.26-1.71-.81-2.66-3.93-3.22-6.19-.26-1.07.88-3.13 1.95-3.7a4.52 4.52 0 0 1 4.17.46c2.01 1.78 3.48 4.13 5.1 6.17zM1463.42 701.18l-6.6-8.91c4.61-3.76 7.83-2.57 10.35.68s.56 5.62-3.75 8.23zM1496.88 735.29c4.57-2.92 7.47-2.08 9.14 1.81s-.68 5.66-5.19 7.43zM1506.77 494.88c-2.17 3.76-6.38 3.21-9.68 4.32-.7.24-2.43-.91-2.8-1.8a3.86 3.86 0 0 1 .65-3.33c3.14-3.66 7.34-3.38 11.83.81zM1423.41 584.78c-6.71-2.43-7.45-3.82-6.89-11.68 7.11.22 7.11.22 6.89 11.68zM1452.63 537.74c.14-1.1-.23-3.91.73-4.48a9.5 9.5 0 0 1 6.52-.81c.72.17 1.6 4 .85 5.22-1.6 2.6-4.36 3.18-8.1.07zM1614.44 617.25c-.61 3.19-.45 5.48-1.5 6.82-.81 1-3.13.89-4.79 1.27-.38-2.25-1.37-4.64-.86-6.66.21-.82 3.71-.8 7.15-1.43zM1561.82 663.55c1.58 5.12.07 7.13-4.6 7.15-1.72-4.15.32-5.8 4.6-7.15zM1387.17 360.11c-.13-5-.42-9.5-.27-14a4.57 4.57 0 0 1 2.26-3.43c1.14-.45 3.64-.07 4.1.76a44.49 44.49 0 0 1 4.56 10.84c.27 1.1-2.16 3.36-3.81 4.28s-4.01.95-6.84 1.55zM1430.34 303.08c2.62-.11 4.69-.79 5.3-.12a54.34 54.34 0 0 1 7.9 10.12c1.77 3.2-.88 6.52-4.5 5.82-2.16-.42-5.07-1.8-5.84-3.54-1.53-3.52-1.85-7.57-2.86-12.28zM1410.88 468c-10.78-4.69-10.78-4.69-10.4-14.6 7.91-.23 12.52 5.83 10.4 14.6zM1357.29 466.61c-2.68-4.68-4.55-7.19-5.55-10-.49-1.38.19-3.69 1.18-4.9.59-.72 2.79-.23 4.25-.1a2.54 2.54 0 0 1 1.57.94c1.79 2.31 4.76 4.63 4.84 7 .06 1.95-3.4 4-6.29 7.06zM1342.14 390.43c-3.3 4.16-5.78 4.26-8.75.59-2.65-3.27-5.71-6.34-3-10.7.49-.8 4.47-.78 5.29.18 2.56 3.01 4.4 6.66 6.46 9.93zM1314.79 300c9.69 4.35 12.54 8.66 9.9 15-7.63-3.25-11.92-9.74-9.9-15zM1463.91 430l-2.65-8.53c8.42-2.82 12.35-.55 13.54 7.41-.52.31-1 .86-1.57.88-2.8.11-5.61.12-9.32.24zM1425.76 397.21l12.51 10.19c-3.46 6.84-4.24 7.14-8.53 2.49-3.02-3.28-6.74-6.51-3.98-12.68zM1338.39 277.1c-2.19-4.92-6.28-9.3-1.4-16.49l8.66 7.88c-2.41 3.12-1.45 7.97-7.26 8.61zM1469.26 350.82c8.67 2 10 3.92 9.17 12.6-9.77-2.36-12.24-4.24-9.17-12.6zM1416.75 250.8c2 .95 4.31 1.5 5.82 2.94a13.83 13.83 0 0 1 3.8 6.23c.26 1-1.73 3.37-3.12 3.83s-4.09-.26-4.72-1.34c-1.67-2.89-2.54-6.24-3.72-9.41zM1371.12 307.4c5.58-1.35 7.86 2.15 9.64 5.78a5.14 5.14 0 0 1-.7 4.78c-.91.86-3.45.86-4.78.22-4.28-2.02-5.04-5.81-4.16-10.78zM1225.12 391.4l5.29-12.65c6.32 1.68 7.66 5.22 6.93 11zM1297 350.14c-3-3.92-5.36-7-7.65-10.23-.27-.37.08-1.18.23-2.64l8.62-2c-1.82 5.16 6.37 9.21-1.2 14.87zM1281.54 383.36c8 2.53 8.95 8.5 10.68 14.6-8.05-1.96-10.77-5.49-10.68-14.6zM1387.14 253.73c-9.42-1-11-3.5-9.22-14.1 7.65 1.95 7.39 8.45 9.22 14.1zM1238.71 278.77c3.5.15 6.78-.41 9.39.67 1.54.63 2 3.85 3 5.9-1.83.75-3.8 2.35-5.47 2.09-4.11-.64-6.29-3.56-6.92-8.66zM1256.53 442.08c-1.82 4-5.22 4.55-8 3.26-1.71-.81-2.66-3.93-3.22-6.19-.26-1.07.88-3.13 1.95-3.7a4.52 4.52 0 0 1 4.17.46c2.01 1.78 3.48 4.09 5.1 6.17zM1285.76 439.46l-6.6-8.91c4.61-3.76 7.83-2.57 10.35.68s.56 5.63-3.75 8.23zM1319.22 473.58c4.57-2.92 7.47-2.08 9.14 1.81s-.68 5.66-5.19 7.43zM1329.11 233.16c-2.17 3.76-6.38 3.21-9.68 4.32-.7.24-2.43-.91-2.8-1.8a3.86 3.86 0 0 1 .65-3.33c3.14-3.65 7.34-3.35 11.83.81zM1245.75 323.07c-6.71-2.43-7.45-3.82-6.89-11.68 7.14.22 7.14.22 6.89 11.68zM1275 276c.14-1.1-.23-3.91.73-4.48a9.5 9.5 0 0 1 6.52-.81c.72.17 1.6 4 .85 5.22-1.63 2.63-4.39 3.2-8.1.07zM1436.78 355.54c-.61 3.19-.45 5.48-1.5 6.82-.81 1-3.13.89-4.79 1.27-.38-2.25-1.37-4.64-.86-6.66.21-.82 3.69-.8 7.15-1.43zM1384.16 401.84c1.58 5.12.07 7.13-4.6 7.15-1.72-4.15.32-5.8 4.6-7.15zM1243.08 124.34c-8.67-2-10-3.92-9.17-12.6 9.76 2.36 12.24 4.26 9.17 12.6zM1203.41 108.85c.13 5 .42 9.5.27 14a4.57 4.57 0 0 1-2.26 3.43c-1.14.45-3.64.07-4.1-.76a44.49 44.49 0 0 1-4.56-10.84c-.27-1.1 2.16-3.36 3.81-4.28s4.04-.95 6.84-1.55zM1160.25 165.87c-2.62.11-4.69.79-5.3.12a54.34 54.34 0 0 1-7.9-10.12c-1.77-3.2.88-6.52 4.5-5.82 2.16.42 5.07 1.8 5.84 3.54 1.53 3.52 1.85 7.58 2.86 12.28zM1179.71 1c10.78 4.69 10.78 4.69 10.4 14.6-7.91.19-12.51-5.87-10.4-14.6zM1233.3 2.35c2.68 4.68 4.55 7.19 5.55 10 .49 1.38-.19 3.69-1.18 4.9-.59.72-2.79.23-4.25.1a2.54 2.54 0 0 1-1.57-.94c-1.79-2.31-4.76-4.63-4.84-7-.07-1.95 3.39-4.01 6.29-7.06zM1248.45 78.52c3.3-4.16 5.78-4.26 8.75-.59 2.65 3.27 5.71 6.34 3 10.7-.49.8-4.47.78-5.29-.18-2.56-3.01-4.4-6.65-6.46-9.93zM1275.8 168.94c-9.69-4.35-12.54-8.66-9.9-15 7.63 3.26 11.92 9.76 9.9 15zM1126.68 39l2.65 8.53c-8.42 2.82-12.35.55-13.54-7.41.52-.31 1-.86 1.57-.88 2.8-.15 5.64-.17 9.32-.24zM1164.83 71.75l-12.51-10.19c3.46-6.84 4.24-7.14 8.53-2.49 3.02 3.28 6.77 6.51 3.98 12.68zM1252.2 191.86c2.19 4.92 6.28 9.3 1.4 16.49l-8.66-7.88c2.41-3.13 1.45-7.97 7.26-8.61zM1121.33 118.14c-8.67-2-10-3.92-9.17-12.6 9.77 2.36 12.24 4.24 9.17 12.6zM1173.84 218.15c-2-.95-4.31-1.5-5.82-2.94a13.83 13.83 0 0 1-3.8-6.23c-.26-1 1.73-3.37 3.12-3.83s4.09.26 4.72 1.34c1.67 2.89 2.54 6.24 3.72 9.41zM1219.47 161.56c-5.58 1.35-7.86-2.15-9.64-5.78a5.14 5.14 0 0 1 .7-4.78c.91-.86 3.45-.86 4.78-.22 4.23 2.01 5.03 5.81 4.16 10.78zM1365.47 77.56l-5.29 12.65c-6.32-1.68-7.66-5.22-6.93-11zM1293.58 118.81c3 3.92 5.36 7 7.65 10.23.27.37-.08 1.18-.23 2.64l-8.62 2c1.83-5.15-6.38-9.2 1.2-14.87zM1309.05 85.6c-8-2.53-8.95-8.5-10.68-14.6 8.05 1.91 10.77 5.49 10.68 14.6zM1203.45 215.22c9.42 1 11 3.5 9.22 14.1-7.67-1.95-7.39-8.45-9.22-14.1zM1351.88 190.19c-3.5-.15-6.78.41-9.39-.67-1.54-.63-2-3.85-3-5.9 1.83-.75 3.8-2.35 5.47-2.09 4.11.64 6.29 3.56 6.92 8.66zM1334.06 26.88c1.82-4 5.22-4.55 8-3.26 1.71.81 2.66 3.93 3.22 6.19.26 1.07-.88 3.13-1.95 3.7a4.52 4.52 0 0 1-4.17-.46c-2.01-1.78-3.49-4.13-5.1-6.17zM1304.83 29.49l6.6 8.91c-4.61 3.76-7.83 2.57-10.35-.68s-.56-5.62 3.75-8.23zM1261.48 235.79c2.17-3.76 6.38-3.21 9.68-4.32.7-.24 2.43.91 2.8 1.8a3.86 3.86 0 0 1-.65 3.33c-3.14 3.66-7.31 3.4-11.83-.81zM1344.84 145.88c6.71 2.43 7.45 3.82 6.89 11.68-7.12-.22-7.12-.22-6.89-11.68zM1315.62 192.93c-.14 1.1.23 3.91-.73 4.48a9.5 9.5 0 0 1-6.52.81c-.72-.17-1.6-4-.85-5.22 1.6-2.6 4.36-3.18 8.1-.07zM1153.81 113.42c.61-3.19.45-5.48 1.5-6.82.81-1 3.13-.89 4.79-1.27.38 2.25 1.37 4.64.86 6.66-.21.81-3.69.8-7.15 1.43zM1206.43 67.11c-1.58-5.12-.07-7.13 4.6-7.15 1.72 4.16-.32 5.81-4.6 7.15zM1079.71 296.89c-8.67-2-10-3.92-9.17-12.6 9.76 2.37 12.24 4.24 9.17 12.6zM1040 281.41c.13 5 .42 9.5.27 14a4.57 4.57 0 0 1-2.26 3.43c-1.14.45-3.64.07-4.1-.76a44.49 44.49 0 0 1-4.56-10.84c-.27-1.1 2.16-3.36 3.81-4.28s4.08-.96 6.84-1.55zM996.88 338.43c-2.62.11-4.69.79-5.3.12a54.34 54.34 0 0 1-7.9-10.12c-1.77-3.2.88-6.52 4.5-5.82 2.16.42 5.07 1.8 5.84 3.54 1.53 3.52 1.85 7.58 2.86 12.28zM1016.34 173.55c10.78 4.69 10.78 4.69 10.4 14.6-7.91.19-12.51-5.87-10.4-14.6zM1069.93 174.91c2.68 4.68 4.55 7.19 5.55 10 .49 1.38-.19 3.69-1.18 4.9-.59.72-2.79.23-4.25.1a2.54 2.54 0 0 1-1.57-.94c-1.79-2.31-4.76-4.63-4.84-7-.06-1.97 3.36-3.97 6.29-7.06zM1085.08 251.08c3.3-4.16 5.78-4.26 8.75-.59 2.65 3.27 5.71 6.34 3 10.7-.49.8-4.47.78-5.29-.18-2.54-3.01-4.4-6.66-6.46-9.93zM1112.43 341.5c-9.69-4.35-12.54-8.66-9.9-15 7.63 3.26 11.92 9.75 9.9 15zM963.31 211.55l2.65 8.53c-8.42 2.82-12.35.55-13.54-7.41.52-.31 1-.86 1.57-.88 2.8-.15 5.61-.16 9.32-.24zM1001.46 244.31l-12.51-10.19c3.46-6.84 4.24-7.14 8.53-2.49 3.02 3.27 6.78 6.51 3.98 12.68zM1088.83 364.42c2.19 4.92 6.28 9.3 1.4 16.49l-8.66-7.88c2.43-3.13 1.43-7.97 7.26-8.61zM958 290.69c-8.67-2-10-3.92-9.17-12.6 9.73 2.36 12.17 4.24 9.17 12.6zM1010.47 390.71c-2-.95-4.31-1.5-5.82-2.94a13.83 13.83 0 0 1-3.8-6.23c-.26-1 1.73-3.37 3.12-3.83s4.09.26 4.72 1.34c1.67 2.89 2.54 6.24 3.72 9.41zM1056.1 334.11c-5.58 1.35-7.86-2.15-9.64-5.78a5.14 5.14 0 0 1 .7-4.78c.91-.86 3.45-.86 4.78-.22 4.24 2.02 5.06 5.81 4.16 10.78zM1202.1 250.11l-5.29 12.65c-6.32-1.68-7.66-5.22-6.93-11zM1130.21 291.37c3 3.92 5.36 7 7.65 10.23.27.37-.08 1.18-.23 2.64l-8.62 2c1.83-5.16-6.36-9.24 1.2-14.87zM1145.68 258.16c-8-2.53-8.95-8.5-10.68-14.6 8.05 1.91 10.77 5.44 10.68 14.6zM1040.08 387.78c9.42 1 11 3.5 9.22 14.1-7.65-1.95-7.39-8.45-9.22-14.1zM1188.51 362.75c-3.5-.15-6.78.41-9.39-.67-1.54-.63-2-3.85-3-5.9 1.83-.75 3.8-2.35 5.47-2.09 4.11.63 6.29 3.55 6.92 8.66zM1170.69 199.43c1.82-4 5.22-4.55 8-3.26 1.71.81 2.66 3.93 3.22 6.19.26 1.07-.88 3.13-1.95 3.7a4.52 4.52 0 0 1-4.17-.46c-2.01-1.77-3.48-4.13-5.1-6.17zM1141.46 202l6.6 8.91c-4.61 3.76-7.83 2.57-10.35-.68s-.56-5.57 3.75-8.23zM1108 167.93c-4.57 2.92-7.47 2.08-9.14-1.81s.68-5.66 5.19-7.43zM1098.11 408.35c2.17-3.76 6.38-3.21 9.68-4.32.7-.24 2.43.91 2.8 1.8a3.86 3.86 0 0 1-.65 3.33c-3.14 3.65-7.34 3.37-11.83-.81zM1181.47 318.44c6.71 2.43 7.45 3.82 6.89 11.68-7.12-.22-7.12-.22-6.89-11.68zM1152.25 365.48c-.14 1.1.23 3.91-.73 4.48a9.5 9.5 0 0 1-6.52.81c-.72-.17-1.6-4-.85-5.22 1.6-2.55 4.36-3.17 8.1-.07zM990.44 286c.61-3.19.45-5.48 1.5-6.82.81-1 3.13-.89 4.79-1.27.38 2.25 1.37 4.64.86 6.66-.21.79-3.69.78-7.15 1.43zM1043.06 239.67c-1.58-5.12-.07-7.13 4.6-7.15 1.72 4.15-.32 5.81-4.6 7.15zM1154.4 1177.86c.13 5 .42 9.5.27 14a4.57 4.57 0 0 1-2.26 3.43c-1.14.45-3.64.07-4.1-.76a44.49 44.49 0 0 1-4.56-10.84c-.27-1.1 2.16-3.36 3.81-4.28s4.04-.96 6.84-1.55zM1130.69 1070c10.78 4.69 10.78 4.69 10.4 14.6-7.9.19-12.5-5.87-10.4-14.6zM1184.29 1071.35c2.68 4.68 4.55 7.19 5.55 10 .49 1.38-.19 3.69-1.18 4.9-.59.72-2.79.23-4.25.1a2.54 2.54 0 0 1-1.57-.94c-1.79-2.31-4.76-4.63-4.84-7-.07-1.95 3.39-4 6.29-7.06zM1199.44 1147.53c3.3-4.16 5.78-4.26 8.75-.59 2.65 3.27 5.71 6.34 3 10.7-.49.8-4.47.78-5.29-.18-2.56-3.01-4.41-6.66-6.46-9.93zM1077.67 1108l2.65 8.53c-8.42 2.82-12.35.55-13.54-7.41.52-.31 1-.86 1.57-.88 2.8-.15 5.65-.16 9.32-.24zM1115.82 1140.75l-12.51-10.19c3.46-6.84 4.24-7.14 8.53-2.49 3.02 3.28 6.77 6.52 3.98 12.68zM1072.32 1187.14c-8.67-2-10-3.92-9.17-12.6 9.77 2.36 12.24 4.24 9.17 12.6zM1316.45 1146.56l-5.29 12.65c-6.32-1.68-7.66-5.22-6.93-11zM1244.56 1187.82c3 3.92 5.36 7 7.65 10.23.27.37-.08 1.18-.23 2.64l-8.62 2c1.84-5.16-6.36-9.2 1.2-14.87zM1260 1154.61c-8-2.53-8.95-8.5-10.68-14.6 8.09 1.91 10.81 5.48 10.68 14.6zM1285 1095.88c1.82-4 5.22-4.55 8-3.26 1.71.81 2.66 3.93 3.22 6.19.26 1.07-.88 3.13-1.95 3.7a4.52 4.52 0 0 1-4.17-.46c-1.97-1.77-3.44-4.13-5.1-6.17zM1255.82 1098.5l6.6 8.91c-4.61 3.76-7.83 2.57-10.35-.68s-.56-5.62 3.75-8.23zM1222.36 1064.38c-4.57 2.92-7.47 2.08-9.14-1.81s.68-5.66 5.19-7.43zM1295.83 1214.89c6.71 2.43 7.45 3.82 6.89 11.68-7.12-.22-7.12-.22-6.89-11.68zM1104.79 1182.43c.61-3.19.45-5.48 1.5-6.82.81-1 3.13-.89 4.79-1.27.38 2.25 1.37 4.64.86 6.66-.2.81-3.68.8-7.15 1.43zM1157.42 1136.12c-1.58-5.12-.07-7.13 4.6-7.15 1.71 4.15-.32 5.81-4.6 7.15zM1512.27 1208.27c-.13-5-.42-9.5-.27-14a4.57 4.57 0 0 1 2.26-3.43c1.14-.45 3.64-.07 4.1.76a44.49 44.49 0 0 1 4.56 10.84c.27 1.1-2.16 3.36-3.81 4.28s-4.04.95-6.84 1.55zM1555.43 1151.24c2.62-.11 4.69-.79 5.3-.12a54.34 54.34 0 0 1 7.9 10.12c1.77 3.2-.88 6.52-4.5 5.82-2.16-.42-5.07-1.8-5.84-3.54-1.53-3.52-1.85-7.57-2.86-12.28zM1439.88 1148.17c9.69 4.35 12.54 8.66 9.9 15-7.63-3.26-11.92-9.75-9.9-15zM1463.48 1125.26c-2.19-4.92-6.28-9.3-1.4-16.49l8.66 7.88c-2.41 3.12-1.45 7.97-7.26 8.61zM1594.35 1199c8.67 2 10 3.92 9.17 12.6-9.77-2.38-12.24-4.26-9.17-12.6zM1541.84 1099c2 .95 4.31 1.5 5.82 2.94a13.83 13.83 0 0 1 3.8 6.23c.26 1-1.73 3.37-3.12 3.83s-4.09-.26-4.72-1.34c-1.67-2.89-2.54-6.24-3.72-9.41zM1496.21 1155.56c5.58-1.35 7.86 2.15 9.64 5.78a5.14 5.14 0 0 1-.7 4.78c-.91.86-3.45.86-4.78.22-4.23-2.02-5.03-5.81-4.16-10.78zM1422.1 1198.3c-3-3.92-5.36-7-7.65-10.23-.27-.37.08-1.18.23-2.64l8.62-2c-1.83 5.16 6.36 9.21-1.2 14.87zM1512.23 1101.89c-9.42-1-11-3.5-9.22-14.1 7.65 1.95 7.39 8.45 9.22 14.1zM1363.8 1126.93c3.5.15 6.78-.41 9.39.67 1.54.63 2 3.85 3 5.9-1.83.75-3.8 2.35-5.47 2.09-4.11-.64-6.29-3.59-6.92-8.66zM1454.2 1081.32c-2.17 3.76-6.38 3.21-9.68 4.32-.7.24-2.43-.91-2.8-1.8a3.86 3.86 0 0 1 .65-3.33c3.14-3.65 7.35-3.37 11.83.81zM1370.84 1171.23c-6.71-2.43-7.45-3.82-6.89-11.68 7.12.22 7.12.22 6.89 11.68zM1400.06 1124.19c.14-1.1-.23-3.91.73-4.48a9.5 9.5 0 0 1 6.52-.81c.72.17 1.6 4 .85 5.22-1.6 2.6-4.36 3.17-8.1.07zM1561.87 1203.69c-.61 3.19-.45 5.48-1.5 6.82-.81 1-3.13.89-4.79 1.27-.38-2.25-1.37-4.64-.86-6.66.21-.81 3.69-.8 7.15-1.43zM1900.75 1197.16c-2.19-4.92-6.28-9.3-1.4-16.49l8.66 7.88c-2.41 3.13-1.45 7.97-7.26 8.61zM1979.11 1170.87c2 .95 4.31 1.5 5.82 2.94a13.83 13.83 0 0 1 3.8 6.23c.26 1-1.73 3.37-3.12 3.83s-4.09-.26-4.72-1.34c-1.67-2.89-2.54-6.24-3.72-9.41zM1949.5 1173.8c-9.42-1-11-3.5-9.22-14.1 7.65 1.95 7.39 8.45 9.22 14.1zM1801.07 1198.83c3.5.15 6.78-.41 9.39.67 1.54.63 2 3.85 3 5.9-1.83.75-3.8 2.35-5.47 2.09-4.11-.63-6.29-3.55-6.92-8.66zM1891.46 1153.23c-2.17 3.76-6.38 3.21-9.68 4.32-.7.24-2.43-.91-2.8-1.8a3.86 3.86 0 0 1 .65-3.33c3.15-3.65 7.37-3.42 11.83.81zM1837.33 1196.1c.14-1.1-.23-3.91.73-4.48a9.5 9.5 0 0 1 6.52-.81c.72.17 1.6 4 .85 5.22-1.6 2.6-4.37 3.17-8.1.07zM1743.51 1198.91c-2.19-4.92-6.28-9.3-1.4-16.49l8.66 7.88c-2.41 3.12-1.45 7.97-7.26 8.61zM1821.87 1172.61c2 .95 4.31 1.5 5.82 2.94a13.83 13.83 0 0 1 3.8 6.23c.26 1-1.73 3.37-3.12 3.83s-4.09-.26-4.72-1.34c-1.67-2.89-2.54-6.24-3.72-9.41zM1792.26 1175.54c-9.42-1-11-3.5-9.22-14.1 7.65 1.95 7.39 8.45 9.22 14.1zM1643.83 1200.58c3.5.15 6.78-.41 9.39.67 1.54.63 2 3.85 3 5.9-1.83.75-3.8 2.35-5.47 2.09-4.11-.64-6.29-3.56-6.92-8.66zM1734.23 1155c-2.17 3.76-6.38 3.21-9.68 4.32-.7.24-2.43-.91-2.8-1.8a3.86 3.86 0 0 1 .65-3.33c3.14-3.68 7.34-3.4 11.83.81zM1680.09 1197.84c.14-1.1-.23-3.91.73-4.48a9.5 9.5 0 0 1 6.52-.81c.72.17 1.6 4 .85 5.22-1.6 2.6-4.36 3.18-8.1.07zM1041.55 1202.07c2.62-.11 4.69-.79 5.3-.12a54.34 54.34 0 0 1 7.9 10.12c1.77 3.2-.88 6.52-4.5 5.82-2.16-.42-5.07-1.8-5.84-3.54-1.54-3.52-1.86-7.58-2.86-12.28zM926 1199c9.69 4.35 12.54 8.66 9.9 15-7.64-3.26-11.9-9.76-9.9-15zM949.59 1176.08c-2.19-4.92-6.28-9.3-1.4-16.49l8.66 7.88c-2.4 3.13-1.45 7.97-7.26 8.61zM1028 1149.79c2 .95 4.31 1.5 5.82 2.94a13.83 13.83 0 0 1 3.8 6.23c.26 1-1.73 3.37-3.12 3.83s-4.09-.26-4.72-1.34c-1.67-2.89-2.54-6.24-3.72-9.41zM982.32 1206.39c5.58-1.35 7.86 2.15 9.64 5.78a5.14 5.14 0 0 1-.7 4.78c-.91.86-3.45.86-4.78.22-4.23-2.02-5.03-5.81-4.16-10.78zM998.34 1152.72c-9.42-1-11-3.5-9.22-14.1 7.65 1.95 7.39 8.45 9.22 14.1zM849.92 1177.75c3.5.15 6.78-.41 9.39.67 1.54.63 2 3.85 3 5.9-1.83.75-3.8 2.35-5.47 2.09-4.12-.63-6.3-3.55-6.92-8.66zM940.31 1132.15c-2.17 3.76-6.38 3.21-9.68 4.32-.7.24-2.43-.91-2.8-1.8a3.86 3.86 0 0 1 .65-3.33c3.14-3.65 7.35-3.34 11.83.81zM856.95 1222.06c-6.71-2.43-7.45-3.82-6.89-11.68 7.12.22 7.12.22 6.89 11.68zM886.18 1175c.14-1.1-.23-3.91.73-4.48a9.5 9.5 0 0 1 6.52-.81c.72.17 1.6 4 .85 5.22-1.61 2.62-4.37 3.19-8.1.07zM236.44 1149.54c4.31 10.94 4.31 10.94-3 17.68-5.69-5.46-4.66-13 3-17.68zM273.38 1188.39c-1.42 5.2-1.87 8.3-3.16 11-.63 1.32-2.74 2.47-4.3 2.63-.93.1-2.14-1.81-3.08-2.93a2.54 2.54 0 0 1-.45-1.77c.36-2.9-.09-6.64 1.56-8.4 1.33-1.41 5.22-.42 9.43-.53zM172.08 1138.91l-4.16 7.9c-7.95-4-9.13-8.34-4.33-14.81.58.15 1.33.12 1.73.48 2.08 1.88 4.08 3.86 6.76 6.43zM175.89 1189l-1.64-16c7.28-2.39 8-2 7.79 4.28-.18 4.44.19 9.38-6.15 11.72zM112.34 1191.09c-4.69-7.58-4.28-9.83 2.43-15.39 5.23 8.57 5.65 11.65-2.43 15.39zM305.24 1210.38c-5.3-1.17-6.76-3.81-5.18-7.74s4.49-3.52 8.92-1.58zM138.63 1210.72c2.69-1.82 4.2-3.55 5.89-3.76 1.31-.16 2.85 1.59 4.28 2.49-1.32 1.86-2.32 4.25-4.1 5.32-.7.42-3.18-2.05-6.07-4.05zM208.59 1215.19c2.51-4.74 5-5.09 8.31-1.8-1.73 4.14-4.34 3.87-8.31 1.8zM26.27 1174.72c-1.42 5.2-1.87 8.3-3.16 11-.63 1.32-2.74 2.47-4.3 2.63-.93.1-2.14-1.81-3.08-2.93a2.54 2.54 0 0 1-.45-1.77c.36-2.9-.09-6.64 1.56-8.4 1.32-1.41 5.22-.42 9.43-.53zM58.12 1196.71c-5.3-1.17-6.76-3.81-5.18-7.74s4.49-3.52 8.92-1.58zM427.2 1158c-3.41 3.59-6.42 7-9.74 10.11a4.57 4.57 0 0 1-4 .83c-1.13-.49-2.62-2.53-2.36-3.43a44.49 44.49 0 0 1 4.44-10.89c.59-1 3.9-.85 5.72-.33s3.54 2.19 5.94 3.71zM356.35 1167.83c-1.93-1.77-3.87-2.76-3.83-3.66a54.34 54.34 0 0 1 1.57-12.74c1-3.51 5.23-4 7.29-.93 1.23 1.82 2.31 4.86 1.62 6.63-1.39 3.57-4 6.66-6.65 10.7zM486.7 1065c4.31 10.94 4.31 10.94-3 17.68-5.7-5.45-4.7-12.98 3-17.68zM523.64 1103.86c-1.42 5.2-1.87 8.3-3.16 11-.63 1.32-2.74 2.47-4.3 2.63-.93.1-2.14-1.81-3.08-2.93a2.54 2.54 0 0 1-.45-1.77c.36-2.9-.09-6.64 1.56-8.4 1.32-1.39 5.22-.39 9.43-.53zM480.49 1168.44c5.27-.61 7.09 1.08 6.6 5.77-.44 4.18-.44 8.52-5.42 9.71-.92.22-3.71-2.61-3.61-3.87.3-3.96 1.57-7.84 2.43-11.61zM422.34 1054.38l-4.16 7.9c-7.95-4-9.13-8.34-4.33-14.81.58.15 1.33.12 1.73.48 2.08 1.89 4.07 3.86 6.76 6.43zM426.15 1104.52l-1.64-16.05c7.28-2.39 8-2 7.79 4.28-.18 4.44.19 9.38-6.15 11.77zM362.59 1106.56c-4.69-7.58-4.28-9.83 2.43-15.39 5.23 8.58 5.65 11.65-2.43 15.39zM329 1214.41c-.73-2.06-2-4.11-2-6.19a13.83 13.83 0 0 1 1.72-7.1c.54-.9 3.6-1.16 4.91-.5s2.71 3.08 2.39 4.28c-.86 3.22-2.62 6.21-4 9.28zM401.28 1206.66c-4.9-3-4-7.08-2.72-10.9a5.14 5.14 0 0 1 3.88-2.88c1.25 0 3 1.83 3.54 3.22 1.55 4.42-.56 7.66-4.7 10.56zM518.34 1216.3c-3.84-7.42-.31-12.34 2.78-17.88 4.33 7.05 3.72 11.49-2.78 17.88zM577.54 1192.45c4.14-1.56 6.91.48 7.93 3.33.64 1.78-.9 4.66-2.1 6.66-.57.94-2.84 1.59-4 1.24a4.52 4.52 0 0 1-2.62-3.27c-.13-2.67.49-5.41.79-7.96zM555 1173.64l-1.63 11c-5.92-.6-7.35-3.72-6.83-7.8s3.6-4.4 8.46-3.2zM555.49 1125.85c-5.3-1.17-6.76-3.81-5.18-7.74s4.49-3.52 8.92-1.58zM388.89 1126.19c2.69-1.82 4.2-3.55 5.89-3.76 1.31-.16 2.85 1.59 4.28 2.49-1.32 1.86-2.32 4.25-4.1 5.32-.73.43-3.18-2.05-6.07-4.05zM458.85 1130.66c2.51-4.74 5-5.09 8.31-1.8-1.73 4.14-4.34 3.88-8.31 1.8zM1994.52 427.39c-3.41 3.59-6.42 7-9.74 10.11a4.57 4.57 0 0 1-4 .83c-1.13-.49-2.62-2.53-2.36-3.43a44.49 44.49 0 0 1 4.44-10.89c.59-1 3.9-.85 5.72-.33s3.54 2.15 5.94 3.71zM1914.59 567.28c-3.41 3.59-6.42 7-9.74 10.11a4.57 4.57 0 0 1-4 .83c-1.13-.49-2.62-2.53-2.36-3.43a44.49 44.49 0 0 1 4.44-10.89c.59-1 3.9-.85 5.72-.33s3.54 2.15 5.94 3.71zM1923.68 437.19c-1.93-1.77-3.87-2.76-3.83-3.66a54.34 54.34 0 0 1 1.57-12.74c1-3.51 5.23-4 7.29-.93 1.23 1.82 2.31 4.86 1.62 6.63-1.39 3.57-4.04 6.66-6.65 10.7zM1033.21 138.7c4.31 10.94 4.31 10.94-3 17.68-5.7-5.46-4.67-13 3-17.68zM2003.22 521.07c-3.78-9.93-2.74-15 3.6-17.6 3.09 7.69 1.53 15.32-3.6 17.6zM1989.66 323.74l-4.16 7.9c-7.95-4-9.13-8.34-4.33-14.81.58.15 1.33.12 1.73.48 2.1 1.88 4.1 3.86 6.76 6.43zM1993.47 373.87l-1.64-16.05c7.28-2.39 8-2 7.79 4.28-.17 4.45.19 9.39-6.15 11.77zM921 49.35c-3.5-.15-6.78.41-9.39-.67-1.54-.63-2-3.85-3-5.9 1.83-.75 3.8-2.35 5.47-2.09 4.09.63 6.27 3.55 6.92 8.66zM913.94 5c6.71 2.43 7.45 3.82 6.89 11.68-7.12-.18-7.12-.18-6.89-11.68zM1000.81 99.3c4.31 10.94 4.31 10.94-3 17.68-5.7-5.45-4.66-12.98 3-17.68zM936.45 88.68l-4.16 7.9c-7.95-4-9.13-8.34-4.33-14.81.58.15 1.33.12 1.73.48 2.08 1.88 4.07 3.86 6.76 6.43zM940.26 138.81l-1.64-16.05c7.28-2.39 8-2 7.79 4.28-.18 4.45.19 9.39-6.15 11.77zM1970.32 520.58c-1.93 5-2.14 11-10.67 12.66l-.55-11.69c3.9-.55 6.66-4.62 11.22-.97zM1929.92 375.92c-4.69-7.58-4.28-9.83 2.43-15.39 5.23 8.57 5.65 11.65-2.43 15.39zM1896.32 483.77c-.73-2.06-2-4.11-2-6.19a13.83 13.83 0 0 1 1.72-7.1c.54-.9 3.6-1.16 4.91-.5s2.71 3.08 2.39 4.28c-.86 3.22-2.62 6.21-4 9.28zM1968.61 476c-4.9-3-4-7.08-2.72-10.9a5.14 5.14 0 0 1 3.88-2.88c1.25 0 3 1.83 3.54 3.22 1.55 4.43-.57 7.68-4.7 10.56zM2051.23 498.19c-.68 4.87-1.19 8.76-1.83 12.64-.07.45-.89.78-2 1.7l-7.54-4.65c4.95-2.37 2.02-11.03 11.37-9.69zM1919.33 502.63c5.94 7.38 5.32 10.27-3.45 16.48-4.03-6.78.75-11.19 3.45-16.48zM2042 589.89c-2.37-2.58-5.08-4.5-6.17-7.11-.64-1.54 1.29-4.15 2.07-6.28 1.83.76 4.35 1 5.35 2.39 2.42 3.34 1.9 6.94-1.25 11zM303.35 1080.24c-1.42 5.2-1.87 8.3-3.16 11-.63 1.32-2.74 2.47-4.3 2.63-.93.1-2.14-1.81-3.08-2.93a2.54 2.54 0 0 1-.45-1.77c.36-2.9-.09-6.64 1.56-8.4 1.32-1.42 5.22-.42 9.43-.53zM260.2 1144.81c5.27-.61 7.09 1.08 6.6 5.77-.44 4.18-.44 8.52-5.42 9.71-.92.22-3.71-2.61-3.61-3.87.29-3.96 1.56-7.84 2.43-11.61zM334.73 1150l-1.63 11c-5.92-.6-7.35-3.72-6.83-7.8s3.57-4.39 8.46-3.2zM335.2 1102.23c-5.3-1.17-6.76-3.81-5.18-7.74s4.49-3.52 8.92-1.58zM1945.82 558.21c4.19-1.13 6.78 2.24 9.9 3.79.67.33 1.07 2.36.71 3.25a3.86 3.86 0 0 1-2.81 1.9c-4.81.36-7.62-2.81-7.8-8.94zM1820.35 596.67c4.19-1.13 6.78 2.24 9.9 3.79.67.33 1.07 2.36.71 3.25a3.86 3.86 0 0 1-2.81 1.9c-4.81.39-7.59-2.82-7.8-8.94zM2014.41 566.18c-.87.68-2.6 2.93-3.68 2.65a9.5 9.5 0 0 1-5.18-4c-.39-.63 1.71-4 3.09-4.29 2.97-.74 5.36.81 5.77 5.64zM1956.21 395.55c2.69-1.82 4.2-3.55 5.89-3.76 1.31-.16 2.85 1.59 4.28 2.49-1.32 1.86-2.32 4.25-4.1 5.32-.72.4-3.17-2.05-6.07-4.05zM2026.17 400c2.51-4.74 5-5.09 8.31-1.8-1.73 4.16-4.33 3.89-8.31 1.8zM1982.27 682.49c-3.41 3.59-6.42 7-9.74 10.11a4.57 4.57 0 0 1-4 .83c-1.13-.49-2.62-2.53-2.36-3.43a44.49 44.49 0 0 1 4.44-10.89c.59-1 3.9-.85 5.72-.33s3.54 2.15 5.94 3.71zM1911.42 692.28c-1.93-1.77-3.87-2.76-3.83-3.66a54.34 54.34 0 0 1 1.57-12.74c1-3.51 5.23-4 7.29-.93 1.23 1.82 2.31 4.86 1.62 6.63-1.39 3.57-4.07 6.66-6.65 10.7z"/><path class="cls-4" d="M2041.77 589.46c4.31 10.94 4.31 10.94-3 17.68-5.7-5.46-4.67-13 3-17.68zM2035.56 692.89c5.27-.61 7.09 1.08 6.6 5.77-.44 4.18-.44 8.52-5.42 9.71-.92.22-3.71-2.61-3.61-3.87.29-3.96 1.56-7.84 2.43-11.61zM1991 776.16c-3.78-9.93-2.74-15 3.6-17.6 3.05 7.69 1.49 15.32-3.6 17.6zM1977.4 578.83l-4.16 7.9c-7.95-4-9.13-8.34-4.33-14.81.58.15 1.33.12 1.73.48 2.09 1.89 4.08 3.86 6.76 6.43zM1981.22 629l-1.64-16.05c7.28-2.39 8-2 7.79 4.28-.18 4.41.19 9.35-6.15 11.77zM1958.06 775.68c-1.93 5-2.14 11-10.67 12.66l-.55-11.69c3.92-.53 6.66-4.65 11.22-.97zM1917.66 631c-4.69-7.58-4.28-9.83 2.43-15.39 5.23 8.59 5.65 11.66-2.43 15.39zM1884.06 738.86c-.73-2.06-2-4.11-2-6.19a13.83 13.83 0 0 1 1.72-7.1c.54-.9 3.6-1.16 4.91-.5s2.71 3.08 2.39 4.28c-.86 3.22-2.62 6.21-4 9.28zM1956.35 731.11c-4.9-3-4-7.08-2.72-10.9a5.14 5.14 0 0 1 3.88-2.88c1.25 0 3 1.83 3.54 3.22 1.55 4.45-.57 7.66-4.7 10.56zM2039 753.29c-.68 4.87-1.19 8.76-1.83 12.64-.07.45-.89.78-2 1.7l-7.54-4.65c4.92-2.38 1.99-11.03 11.37-9.69zM1907.07 757.73c5.94 7.38 5.32 10.27-3.45 16.48-4.03-6.78.75-11.21 3.45-16.48zM2029.73 845c-2.37-2.58-5.08-4.5-6.17-7.11-.64-1.54 1.29-4.15 2.07-6.28 1.83.76 4.35 1 5.35 2.39 2.44 3.32 1.91 6.93-1.25 11zM1933.57 813.31c4.19-1.13 6.78 2.24 9.9 3.79.67.33 1.07 2.36.71 3.25a3.86 3.86 0 0 1-2.81 1.9c-4.82.36-7.6-2.81-7.8-8.94zM2002.15 821.28c-.87.68-2.6 2.93-3.68 2.65a9.5 9.5 0 0 1-5.18-4c-.39-.63 1.71-4 3.09-4.29 2.97-.75 5.33.8 5.77 5.64zM1944 650.64c2.69-1.82 4.2-3.55 5.89-3.76 1.31-.16 2.85 1.59 4.28 2.49-1.32 1.86-2.32 4.25-4.1 5.32-.77.42-3.22-2.05-6.07-4.05zM2013.91 655.11c2.51-4.74 5-5.09 8.31-1.8-1.72 4.15-4.33 3.88-8.31 1.8zM1463.88 892c-.13-5-.42-9.5-.27-14a4.57 4.57 0 0 1 2.26-3.43c1.14-.45 3.64-.07 4.1.76a44.49 44.49 0 0 1 4.56 10.84c.27 1.1-2.16 3.36-3.81 4.28s-4.04 1-6.84 1.55zM1507 835c2.62-.11 4.69-.79 5.3-.12a54.34 54.34 0 0 1 7.9 10.12c1.77 3.2-.88 6.52-4.5 5.82-2.16-.42-5.07-1.8-5.84-3.54-1.49-3.5-1.8-7.56-2.86-12.28zM1487.58 999.9c-10.78-4.69-10.78-4.69-10.4-14.6 7.91-.19 12.51 5.87 10.4 14.6zM1434 998.54c-2.68-4.68-4.55-7.19-5.55-10-.49-1.38.19-3.69 1.18-4.9.59-.72 2.79-.23 4.25-.1a2.54 2.54 0 0 1 1.57.94c1.79 2.31 4.76 4.63 4.84 7 .06 1.96-3.4 4.01-6.29 7.06zM1418.84 922.37c-3.3 4.16-5.78 4.26-8.75.59-2.65-3.27-5.71-6.34-3-10.7.49-.8 4.47-.78 5.29.18 2.56 3.01 4.41 6.66 6.46 9.93zM1391.49 832c9.69 4.35 12.54 8.66 9.9 15-7.63-3.31-11.92-9.8-9.9-15zM1540.61 961.9l-2.65-8.53c8.42-2.82 12.35-.55 13.54 7.41-.52.31-1 .86-1.57.88-2.8.15-5.6.16-9.32.24zM1502.46 929.14l12.54 10.2c-3.46 6.84-4.24 7.14-8.53 2.49-3.05-3.28-6.8-6.52-4.01-12.69zM1415.09 809c-2.19-4.92-6.28-9.3-1.4-16.49l8.66 7.88c-2.4 3.16-1.45 8-7.26 8.61zM1546 882.76c8.67 2 10 3.92 9.17 12.6-9.81-2.36-12.28-4.24-9.17-12.6zM1493.45 782.74c2 .95 4.31 1.5 5.82 2.94a13.83 13.83 0 0 1 3.8 6.23c.26 1-1.73 3.37-3.12 3.83s-4.09-.26-4.72-1.34c-1.67-2.89-2.54-6.24-3.72-9.41zM1447.82 839.34c5.58-1.35 7.86 2.15 9.64 5.78a5.14 5.14 0 0 1-.7 4.78c-.91.86-3.45.86-4.78.22-4.23-2.02-5.03-5.81-4.16-10.78zM1301.83 923.34l5.29-12.65c6.32 1.68 7.66 5.22 6.93 11zM1373.72 882.08c-3-3.92-5.36-7-7.65-10.23-.27-.37.08-1.18.23-2.64l8.62-2c-1.84 5.16 6.35 9.2-1.2 14.87zM1358.24 915.29c8 2.53 8.95 8.5 10.68 14.6-8.05-1.89-10.77-5.48-10.68-14.6zM1463.84 785.67c-9.42-1-11-3.5-9.22-14.1 7.65 1.95 7.38 8.43 9.22 14.1zM1315.42 810.7c3.5.15 6.78-.41 9.39.67 1.54.63 2 3.85 3 5.9-1.83.75-3.8 2.35-5.47 2.09-4.12-.63-6.34-3.55-6.92-8.66zM1333.23 974c-1.82 4-5.22 4.55-8 3.26-1.71-.81-2.66-3.93-3.22-6.19-.26-1.07.88-3.13 1.95-3.7a4.52 4.52 0 0 1 4.17.46c2.02 1.79 3.49 4.17 5.1 6.17zM1362.46 971.4l-6.6-8.91c4.61-3.76 7.83-2.57 10.35.68s.56 5.62-3.75 8.23zM1395.92 1005.52c4.57-2.92 7.47-2.08 9.14 1.81s-.68 5.66-5.19 7.43zM1405.81 765.1c-2.17 3.76-6.38 3.21-9.68 4.32-.7.24-2.43-.91-2.8-1.8a3.86 3.86 0 0 1 .65-3.33c3.14-3.65 7.35-3.37 11.83.81zM1322.45 855c-6.71-2.43-7.45-3.82-6.89-11.68 7.12.23 7.12.23 6.89 11.68zM1351.68 808c.14-1.1-.23-3.91.73-4.48a9.5 9.5 0 0 1 6.52-.81c.72.17 1.6 4 .85 5.22-1.61 2.57-4.37 3.14-8.1.07zM1513.48 887.47c-.61 3.19-.45 5.48-1.5 6.82-.81 1-3.13.89-4.79 1.27-.38-2.25-1.37-4.64-.86-6.66.21-.81 3.67-.8 7.15-1.43zM1460.86 933.78c1.58 5.12.07 7.13-4.6 7.15-1.72-4.15.32-5.81 4.6-7.15zM121 1031.48c-.13-5-.42-9.5-.27-14A4.57 4.57 0 0 1 123 1014c1.14-.45 3.64-.07 4.1.76a44.49 44.49 0 0 1 4.56 10.84c.27 1.1-2.16 3.36-3.81 4.28s-4.08 1.01-6.85 1.6zM164.14 974.46c2.62-.11 4.69-.79 5.3-.12a54.34 54.34 0 0 1 7.9 10.12c1.77 3.2-.88 6.52-4.5 5.82-2.16-.42-5.07-1.8-5.84-3.54-1.54-3.52-1.85-7.57-2.86-12.28zM144.68 1139.34c-10.78-4.69-10.78-4.69-10.4-14.6 7.9-.19 12.5 5.87 10.4 14.6zM91.08 1138c-2.68-4.68-4.55-7.19-5.55-10-.49-1.38.19-3.69 1.18-4.9.59-.72 2.79-.23 4.25-.1a2.54 2.54 0 0 1 1.57.94c1.79 2.31 4.76 4.63 4.84 7 .07 1.94-3.37 3.99-6.29 7.06zM75.94 1061.81c-3.3 4.16-5.78 4.26-8.75.59-2.65-3.27-5.71-6.34-3-10.7.49-.8 4.47-.78 5.29.18 2.52 3.01 4.4 6.66 6.46 9.93zM48.58 971.39c9.69 4.35 12.54 8.66 9.9 15-7.62-3.26-11.91-9.75-9.9-15zM197.7 1101.34l-2.65-8.53c8.42-2.82 12.35-.55 13.54 7.41-.52.31-1 .86-1.57.88-2.79.15-5.6.16-9.32.24zM159.56 1068.59l12.51 10.19c-3.46 6.84-4.24 7.14-8.53 2.49-3.02-3.27-6.78-6.52-3.98-12.68zM72.19 948.47c-2.19-4.92-6.28-9.3-1.4-16.49l8.66 7.88C77 943 78 947.84 72.19 948.47zM203.05 1022.2c8.67 2 10 3.92 9.17 12.6-9.76-2.36-12.22-4.24-9.17-12.6zM150.55 922.18c2 .95 4.31 1.5 5.82 2.94a13.83 13.83 0 0 1 3.8 6.23c.26 1-1.73 3.37-3.12 3.83s-4.09-.26-4.72-1.34c-1.67-2.89-2.54-6.24-3.72-9.41zM104.92 978.78c5.58-1.35 7.86 2.15 9.64 5.78a5.14 5.14 0 0 1-.7 4.78c-.91.86-3.45.86-4.78.22-4.24-2.02-5.08-5.81-4.16-10.78zM30.81 1021.52c-3-3.92-5.36-7-7.65-10.23-.27-.37.08-1.18.23-2.64l8.62-2c-1.83 5.16 6.36 9.21-1.2 14.87zM15.33 1054.73c8 2.53 8.95 8.5 10.68 14.6-8.01-1.91-10.77-5.48-10.68-14.6zM120.94 925.11c-9.42-1-11-3.5-9.22-14.1 7.65 1.99 7.38 8.45 9.22 14.1zM19.55 1110.84l-6.6-8.91c4.61-3.76 7.83-2.57 10.35.68s.56 5.62-3.75 8.23zM53 1145c4.57-2.92 7.47-2.08 9.14 1.81s-.68 5.66-5.19 7.43zM62.9 904.54c-2.17 3.76-6.38 3.21-9.68 4.32-.7.24-2.43-.91-2.8-1.8a3.86 3.86 0 0 1 .65-3.33c3.14-3.65 7.35-3.37 11.83.81zM8.77 947.41c.14-1.1-.23-3.91.73-4.48a9.5 9.5 0 0 1 6.52-.81c.72.17 1.6 4 .85 5.22-1.6 2.6-4.37 3.17-8.1.07zM170.58 1026.91c-.61 3.19-.45 5.48-1.5 6.82-.81 1-3.13.89-4.79 1.27-.38-2.25-1.37-4.64-.86-6.66.21-.81 3.69-.8 7.15-1.43zM118 1073.22c1.58 5.12.07 7.13-4.6 7.15-1.76-4.15.27-5.81 4.6-7.15z"/></g></svg>