<svg xmlns="http://www.w3.org/2000/svg" viewBox="0 0 73 96"><defs><style>.cls-1{fill:#fff;}</style></defs><title>arrow</title><g id="Layer_1" data-name="Layer 1"><path class="cls-1" d="M36.26 19.66A1.92 1.92 0 0 1 34.63 21a2.24 2.24 0 0 1-2.4-1.3 2.14 2.14 0 0 1 .92-2.7c.69-.49 1.45-.2 2.19-.15.15 0 .23.14.31.24s.26.38.39.57a2.16 2.16 0 0 1 .22 2zM33.58 30.52a1.92 1.92 0 0 1 2.1-.08 2.24 2.24 0 0 1 1.14 2.49 2.14 2.14 0 0 1-2.36 1.6c-.85 0-1.28-.71-1.84-1.2a.48.48 0 0 1-.11-.38v-.69a2.16 2.16 0 0 1 1.07-1.74zM37.06 47.64a1.92 1.92 0 0 1-1.76 1.16 2.24 2.24 0 0 1-2.3-1.54 2.14 2.14 0 0 1 1.19-2.59c.73-.42 1.47-.06 2.19.08.15 0 .22.16.29.27s.22.4.33.6a2.16 2.16 0 0 1 .06 2.02zM36.84 60a1.92 1.92 0 0 1-.4 2.06 2.24 2.24 0 0 1-2.68.54 2.14 2.14 0 0 1-1-2.66c.21-.82 1-1.09 1.59-1.52a.48.48 0 0 1 .39 0c.22 0 .44.12.66.19A2.16 2.16 0 0 1 36.84 60zM34.81 71.2a1.92 1.92 0 0 1 1.5 1.47 2.24 2.24 0 0 1-1 2.54 2.14 2.14 0 0 1-2.78-.62c-.57-.63-.36-1.42-.39-2.16a.48.48 0 0 1 .2-.34c.16-.16.35-.3.52-.45a2.16 2.16 0 0 1 1.95-.44z"/><path class="cls-1" d="M71.35 59.55c-.93-.1-1.86-.21-2.79-.29q-2-.18-4.08-.31h-1.33c-1.9-.22-3.81-.08-5.71-.31a7.64 7.64 0 0 0-2 .12 2.89 2.89 0 0 1-.86-.12.38.38 0 0 1-.3-.34 28.76 28.76 0 0 1-.59-6.2c.09-1.28-.37-2.48-.3-3.74s-.16-2.44 0-3.67c.06-.58-.16-1.18-.15-1.75 0-1.44-.23-2.86-.16-4.29a29.47 29.47 0 0 1 .07-3.88.83.83 0 0 0 0-.23 33.54 33.54 0 0 1 0-6.06c0-.38-.11-.78-.12-1.16 0-2.08-.13-4.16-.25-6.24-.09-1.46-.23-2.92-.28-4.39-.09-2.6-.09-5.2-.22-7.8a29.71 29.71 0 0 0-.66-5.76 4.3 4.3 0 0 0-.73-1.92 1.9 1.9 0 0 0-1.6-.63c-.17 0-.36.07-.52 0a4.12 4.12 0 0 0-2.14-.14c-1.22 0-2.44.15-3.66.25-1.49.12-3 .34-4.46.38-1 0-2 0-3.06.06-1.6 0-3.17.29-4.76.46-1.13.12-2.26 0-3.39.16-1.83.2-3.67.24-5.5.49a13.61 13.61 0 0 1-3 0c-.63.1-1.37 0-1.49.72s0 4.46 0 6.2-.23 5.12-.06 9.69 1.38 8.38 1.41 10.25c0 2.18.07 4.27.13 6.2a.81.81 0 0 1 .12.39c0 .59 0 1.18.07 1.77.1 1.82.19 3.64.23 5.46 0 1.45 0 2.9.17 4.33.21 2.12.25 4.25.33 6.38.07 1.88.19 3.75.29 5.63 0 .53.21 1-.14 1.53-.12.18-.26.26-.44.18-1-.43-2-.12-3-.18-1.76-.1-3.51.12-5.27.16S7.9 61 6.26 61s-3.34.09-5 .16a1.55 1.55 0 0 0-.73.17c-.48.3-.13.72 0 .95a18.93 18.93 0 0 0 3.29 3.68A27.1 27.1 0 0 1 6 68.19c.85.89 1.71 1.78 2.58 2.66 1.34 1.35 2.53 2.84 3.79 4.27.9 1 1.8 2 2.68 3.07.62.73 1.22 1.47 1.79 2.23.43.58 1 1 1.5 1.53.76.87 1.68 1.58 2.42 2.46.52.61 1.12 1.13 1.67 1.71 1.47 1.55 3.05 3 4.45 4.62a23.68 23.68 0 0 0 2.22 1.93c.79.71 1.5 1.51 2.32 2.18.46.37.9.91 1.63.78.11 0 .25 0 .32-.09.17-.32.35-.21.62-.11.55.2 1-.27 1.22-.58a19.8 19.8 0 0 1 2-1.93c1-.91 2-1.79 3-2.67l2.11-1.87c1.55-1.35 3-2.82 4.51-4.2C48 83.09 49 81.77 50.22 80.8s2-2 3.05-2.89c.84-.74 1.57-1.63 2.42-2.36.59-.51 1.07-1.14 1.66-1.62 1-.83 1.93-1.77 2.88-2.67q1.77-1.67 3.45-3.43c.58-.61 1.23-1.16 1.85-1.73 1.21-1.11 2.3-2.33 3.48-3.47.85-.82 1.66-1.69 2.49-2.53.09-.09.26-.13.22-.31s-.2-.23-.37-.24zM57 65.4a3.36 3.36 0 0 1-1 1.09c-1 .87-1.77 1.89-2.7 2.79-1.6 1.55-3.09 3.2-4.76 4.68-1.22 1.09-2.36 2.28-3.58 3.38A33.44 33.44 0 0 1 41.9 80a16.57 16.57 0 0 0-2.1 1.7c-1.65 1.62-3.34 3.2-5 4.79-.47.45-.85.37-1.27-.13a15.13 15.13 0 0 0-1.37-1.51c-1.53-1.42-3.09-2.81-4.63-4.22-.68-.62-1.42-1.19-2.06-1.84-1.56-1.57-3.2-3.07-4.69-4.73s-2.86-3.08-4.33-4.58c-.89-.91-1.81-1.79-2.76-2.64-.22-.2-.44-.33-.32-.63s.44-.38.76-.33a7.28 7.28 0 0 0 2.05.06c.87-.11 1.75 0 2.63-.06a21.12 21.12 0 0 1 3.4-.1 8.08 8.08 0 0 0 1.73-.32c.82-.11.89-.51.92-1.14.08-1.61-.08-3.21-.06-4.82 0-.9-.13-1.79-.06-2.69s-.12-1.64-.12-2.46v-7.79-1.24c.06-2.35.18-4.7.17-7.06 0-2.07-.18-4.13-.25-6.2a17.54 17.54 0 0 0-.14-2.34c-.06-2.54.31-4.65 0-6.88a46.11 46.11 0 0 1-.68-9.17 33.83 33.83 0 0 0-.05-5.31 16.22 16.22 0 0 0 2.15.06 11.74 11.74 0 0 1 2.88 0c1.62.27 3.2-.15 4.81-.1A17.5 17.5 0 0 0 35.88 8c1.21-.14 2.46 0 3.49-.08l1.79-.07a2.67 2.67 0 0 1 2.49 1 4.44 4.44 0 0 1 .59 1.64 29 29 0 0 1 .65 4.93c.27 2.49.14 5 .43 7.51.14 1.21.1 2.44.17 3.66a17.89 17.89 0 0 1 .19 2.63 25.11 25.11 0 0 0 .07 3.08c.14 5.1.29 10.21.68 15.3.07.91 0 1.83 0 2.74.11 2.72 0 5.44.3 8.15.14 1.36.29 2.72.38 4.08a2.17 2.17 0 0 1-.07 1.32c-.26.48-.14.68.41.68 1.19 0 2.38-.07 3.58 0 1.47.05 2.94-.06 4.42.07a2 2 0 0 0 .68-.14c.19 0 .48-.31.57 0s.55.41.3.9z"/></g></svg>