<?xml version="1.0" encoding="UTF-8"?><svg id="Layer_3" xmlns="http://www.w3.org/2000/svg" viewBox="0 0 3000 3000"><defs><style>.cls-1{fill:#d1b58a;}.cls-2{fill:#fff;}.cls-3{fill:#cce7e0;}.cls-4{letter-spacing:-.04em;}.cls-5{fill:#eebebe;}.cls-6{letter-spacing:-.03em;}.cls-7{fill:#ab967c;}.cls-8,.cls-9{fill:#6d4915;}.cls-9{font-size:120px;}.cls-9,.cls-10{font-family:Swiss721BT-Black, 'Swis721 Blk BT';}.cls-10{font-size:268px;}</style></defs><rect class="cls-8" x="1.24" y="0" width="3000" height="3000"/><circle class="cls-2" cx="1500" cy="1513.76" r="1358.83"/><g><path class="cls-5" d="M1393.45,1518.83c5.12,23.67-9.92,47-33.59,52.12h0c-23.67,5.12-47-9.92-52.12-33.59l-144.87-670.25c-5.12-23.67,9.92-47,33.59-52.12h0c23.67-5.12,47,9.92,52.12,33.59l144.87,670.25Z"/><ellipse class="cls-8" cx="1501.24" cy="1664.09" rx="468.85" ry="454.14"/><polygon class="cls-1" points="1908.35 2213.52 1075.5 2213.52 983.6 1745.33 2000.25 1745.33 1908.35 2213.52"/><g><circle class="cls-1" cx="1792.92" cy="1192.97" r="247.46"/><g><g><rect class="cls-7" x="1516.3" y="1144.4" width="375.46" height="27.23" transform="translate(83.82 2430.66) rotate(-72.35)"/><rect class="cls-7" x="1607.11" y="1173.3" width="375.46" height="27.23" transform="translate(119.56 2537.34) rotate(-72.35)"/><rect class="cls-7" x="1697.92" y="1202.2" width="375.46" height="27.23" transform="translate(155.29 2644) rotate(-72.35)"/></g><g><rect class="cls-7" x="1810.13" y="908.37" width="27.23" height="375.46" transform="translate(226.2 2501.57) rotate(-72.35)"/><rect class="cls-7" x="1781.23" y="999.18" width="27.23" height="375.46" transform="translate(119.54 2537.31) rotate(-72.35)"/><rect class="cls-7" x="1752.33" y="1089.99" width="27.23" height="375.46" transform="translate(12.87 2573.04) rotate(-72.35)"/></g></g></g><path class="cls-3" d="M2024.3,1713.5c0-21.34-17.3-38.64-38.64-38.64H998.19c-21.34,0-38.64,17.3-38.64,38.64h0c0,21.34,17.3,38.64,38.64,38.64h987.47c21.34,0,38.64-17.3,38.64-38.64h0Z"/><path class="cls-8" d="M1491.93,1302.79s313.51-41.85,420.26,211.38c0,0-352.37,86.02-420.26-211.38Z"/></g><text class="cls-10" transform="translate(556.87 847.83) rotate(-41.62)"><tspan x="0" y="0"> </tspan></text><text class="cls-10" transform="translate(620.63 791.07) rotate(-38.04)"><tspan x="0" y="0"> </tspan></text><text class="cls-10" transform="translate(684.99 737.21) rotate(-32.36)"><tspan x="0" y="0">S</tspan></text><text class="cls-10" transform="translate(840.93 637.62) rotate(-24.41)"><tspan x="0" y="0">P</tspan></text><text class="cls-10" transform="translate(1001.91 563.12) rotate(-16.91)"><tspan x="0" y="0">A</tspan></text><text class="cls-10" transform="translate(1183.88 506.48) rotate(-8.39)"><tspan x="0" y="0">G</tspan></text><text class="cls-10" transform="translate(1392.9 474.2) rotate(.93)"><tspan x="0" y="0">U</tspan></text><text class="cls-10" transform="translate(1605.58 477.91) rotate(8.32)"><tspan x="0" y="0">L</tspan></text><text class="cls-10" transform="translate(1769.67 501.04) rotate(15.66)"><tspan x="0" y="0">E</tspan></text><text class="cls-10" transform="translate(1943.93 549.81) rotate(23.15)"><tspan x="0" y="0">T</tspan></text><text class="cls-10" transform="translate(2107.9 619.97) rotate(30.69)"><tspan x="0" y="0">T</tspan></text><text class="cls-10" transform="translate(2256.17 709.9) rotate(36.38)"><tspan x="0" y="0">I</tspan></text><text class="cls-10" transform="translate(2335.59 768.58) rotate(40.24)"><tspan x="0" y="0"> </tspan></text><text class="cls-9" transform="translate(1105.87 2010.76)"><tspan x="0" y="0">CHO</tspan><tspan class="cls-6" x="290.04" y="0">K</tspan><tspan x="380.39" y="0">OL</tspan><tspan class="cls-4" x="555.7" y="0">A</tspan><tspan x="639.61" y="0">TE</tspan></text><text class="cls-10" transform="translate(479.9 2306.68) rotate(46.24)"><tspan x="0" y="0"> </tspan></text><text class="cls-10" transform="translate(546.84 2376.15) rotate(42.2)"><tspan x="0" y="0"> </tspan></text><text class="cls-10" transform="translate(620.91 2447.05) rotate(35.36)"><tspan x="0" y="0">C</tspan></text><text class="cls-10" transform="translate(809.45 2579.15) rotate(25.49)"><tspan x="0" y="0">H</tspan></text><text class="cls-10" transform="translate(1026.06 2680.47) rotate(15.31)"><tspan x="0" y="0">O</tspan></text><text class="cls-10" transform="translate(1259.02 2741.86) rotate(5.36)"><tspan x="0" y="0">C</tspan></text><text class="cls-10" transform="translate(1487.35 2762.05) rotate(-4.38)"><tspan x="0" y="0">O</tspan></text><text class="cls-10" transform="translate(1725.24 2740.46) rotate(-13.42)"><tspan x="0" y="0">L</tspan></text><text class="cls-10" transform="translate(1909.09 2696.19) rotate(-21.99)"><tspan x="0" y="0">A</tspan></text><text class="cls-10" transform="translate(2098.21 2618.5) rotate(-30.23)"><tspan x="0" y="0">T</tspan></text><text class="cls-10" transform="translate(2266.5 2519.31) rotate(-38.62)"><tspan x="0" y="0">E</tspan></text><text class="cls-10" transform="translate(2420.28 2392.07) rotate(-44.93)"><tspan x="0" y="0"> </tspan></text></svg>