<svg xmlns="http://www.w3.org/2000/svg" xmlns:xlink="http://www.w3.org/1999/xlink" style="margin:auto;background:rgba(24, 146, 221, 0.7);display:block;z-index:1;position:relative" width="1084" height="322" preserveAspectRatio="xMidYMid" viewBox="0 0 1084 322">
<defs>
  <pattern id="pid-0.9244911960668014" x="0" y="0" width="76.80000000000001" height="76.80000000000001" patternUnits="userSpaceOnUse" data-fill="c3" style="fill: rgb(0, 0, 0);">
    <g transform="scale(0.30000000000000004)" data-fill="c3" style="fill: rgb(0, 0, 0);">


<defs><g id="id-0.3187249497842608" data-fill="c3" style="fill: rgb(0, 0, 0);"><!--Generator: Adobe Illustrator 21.0.0, SVG Export Plug-In . SVG Version: 6.00 Build 0)--><style type="text/css" data-fill="c3" style="fill: rgb(0, 0, 0);">.st3{fill:#f8b26a;stroke:#333}.st3,.st4,.st5,.st65{stroke-width:3.5;stroke-miterlimit:10}.st4{opacity:.2;stroke:#000}.st5,.st65{fill:#e15b64;stroke:#333}.st65{fill:none;stroke:#c33737;stroke-linecap:round}</style><path class="st3" d="M21.895,87.55l8.832-54.544c0.14-0.867,0.795-1.579,1.659-1.733c7.184-1.283,33.929,14.158,36.411,21.022 c0.299,0.826,0.009,1.749-0.672,2.304l-42.82,34.921C23.804,90.744,21.585,89.463,21.895,87.55z" data-fill="c1" data-stroke="c2" style="fill: rgb(248, 178, 106); stroke: rgb(51, 51, 51);"></path><path class="st4" d="M68.797,52.295c-0.677-1.872-3.166-4.383-6.563-7.018l-38.59,31.471L21.895,87.55 c-0.31,1.912,1.909,3.193,3.41,1.969l42.82-34.921C68.806,54.043,69.096,53.12,68.797,52.295z" data-fill="c3" data-stroke="c3" style="fill: rgb(0, 0, 0); stroke: rgb(0, 0, 0);"></path><path class="st5" d="M58.078,49.869c2.482,0.737,4.995,1.265,7.519,1.564c3.9-1.821,7.305-4.801,9.621-8.812 c6.005-10.4,2.441-23.699-7.959-29.704s-23.699-2.441-29.704,7.959c-2.315,4.01-3.194,8.45-2.821,12.738 c3.561,4.769,8.123,8.911,13.604,12.075c0.927,0.535,1.869,1.02,2.817,1.483c0.433,1.617-0.738,3.554-1.811,5.047 c-0.946,1.316-1.816,2.686-2.605,4.101c-0.676,1.213-1.301,2.688-0.699,3.939c0.605,1.257,2.283,1.698,3.617,1.291 c1.334-0.407,2.37-1.454,3.236-2.548c1.244-1.573,2.262-3.325,3.013-5.185c0.483-1.198,0.872-2.468,1.691-3.467 C57.747,50.167,57.909,50.011,58.078,49.869z" data-fill="c4" data-stroke="c2" style="fill: rgb(225, 91, 100); stroke: rgb(51, 51, 51);"></path><path class="st4" d="M58.078,49.869c2.482,0.737,4.995,1.265,7.519,1.564c3.9-1.821,7.305-4.801,9.621-8.812 c3.189-5.524,3.655-11.858,1.856-17.49c-0.366,0.729-0.748,1.454-1.161,2.169c-5.819,10.078-15.247,16.765-25.708,19.392 c0.316,0.161,0.632,0.324,0.95,0.479c0.433,1.617-0.738,3.554-1.811,5.047c-0.946,1.316-1.816,2.686-2.605,4.101 c-0.676,1.213-1.301,2.688-0.699,3.939c0.605,1.257,2.283,1.698,3.617,1.291c1.334-0.407,2.37-1.454,3.236-2.548 c1.244-1.573,2.262-3.325,3.013-5.185c0.483-1.198,0.872-2.468,1.691-3.467C57.747,50.167,57.909,50.011,58.078,49.869z" data-fill="c3" data-stroke="c3" style="fill: rgb(0, 0, 0); stroke: rgb(0, 0, 0);"></path><path class="st65" d="M52.254,18.946c-1.216,0.478-2.404,1.03-3.555,1.651c-1.925,1.039-3.804,2.333-4.933,4.206 c-1.129,1.874-1.333,4.442,0.002,6.175c1.335,1.733,4.373,2.013,5.647,0.234c0.901-1.258,0.977-3.321,2.459-3.768" data-stroke="c5" style="stroke: rgb(195, 55, 55);"></path><metadata xmlns:d="https://loading.io/stock/" data-fill="c3" style="fill: rgb(0, 0, 0);"><d:name data-fill="c3" style="fill: rgb(0, 0, 0);">ice cream</d:name><d:tags data-fill="c3" style="fill: rgb(0, 0, 0);">ice cream,scoop,haggen daz,cold stone,desert,dessert,sweet,cold,popsicle</d:tags><d:license data-fill="c3" style="fill: rgb(0, 0, 0);">by</d:license><d:slug data-fill="c3" style="fill: rgb(0, 0, 0);">9y1ldn</d:slug></metadata></g></defs>

<!-- Generator: Adobe Illustrator 21.0.0, SVG Export Plug-In . SVG Version: 6.00 Build 0)  -->






<g data-idx="0" data-dup="" dx="-128" dy="-128" style="transform-origin: 64.0003px 63.9997px; animation: 1s linear 0s infinite normal forwards running beat-d3700d2e-fdee-4ad8-bb98-dea6a0cfb4f4;"><g transform="translate(-128,-128)"><g transform=" translate(192,191.9995) scale(0.8888888888888888)" data-fill="c3" style="fill: rgb(0, 0, 0);"><g data-icon="" transform="scale(0.9)" data-fill="c3" style="fill: rgb(0, 0, 0);">  <use xlink:href="#id-0.3187249497842608" x="-50" y="-50" data-fill="c3" style="fill: rgb(0, 0, 0);"></use>
</g></g></g></g><g data-idx="0" data-dup="" dx="128" dy="-128" style="transform-origin: 320px 63.9997px; animation: 1s linear 0s infinite normal forwards running beat-d3700d2e-fdee-4ad8-bb98-dea6a0cfb4f4;"><g transform="translate(128,-128)"><g transform=" translate(192,191.9995) scale(0.8888888888888888)" data-fill="c3" style="fill: rgb(0, 0, 0);"><g data-icon="" transform="scale(0.9)" data-fill="c3" style="fill: rgb(0, 0, 0);">  <use xlink:href="#id-0.3187249497842608" x="-50" y="-50" data-fill="c3" style="fill: rgb(0, 0, 0);"></use>
</g></g></g></g><g data-idx="1" data-dup="" dx="-128" dy="-128" style="transform-origin: -63.9997px -64.0003px; animation: 1s linear 0s infinite normal forwards running beat-d3700d2e-fdee-4ad8-bb98-dea6a0cfb4f4;"><g transform="translate(-128,-128)"><g transform=" translate(64,63.9995) scale(0.8888888888888888)" data-fill="c3" style="fill: rgb(0, 0, 0);"><g data-icon="" transform="scale(0.9)" data-fill="c3" style="fill: rgb(0, 0, 0);">  <use xlink:href="#id-0.3187249497842608" x="-50" y="-50" data-fill="c3" style="fill: rgb(0, 0, 0);"></use>
</g></g></g></g><g data-idx="1" data-dup="" dx="128" dy="-128" style="transform-origin: 192px -64.0003px; animation: 1s linear 0s infinite normal forwards running beat-d3700d2e-fdee-4ad8-bb98-dea6a0cfb4f4;"><g transform="translate(128,-128)"><g transform=" translate(64,63.9995) scale(0.8888888888888888)" data-fill="c3" style="fill: rgb(0, 0, 0);"><g data-icon="" transform="scale(0.9)" data-fill="c3" style="fill: rgb(0, 0, 0);">  <use xlink:href="#id-0.3187249497842608" x="-50" y="-50" data-fill="c3" style="fill: rgb(0, 0, 0);"></use>
</g></g></g></g><g data-idx="0" data-dup="" dx="-128" dy="128" style="transform-origin: 64.0003px 320px; animation: 1s linear 0s infinite normal forwards running beat-d3700d2e-fdee-4ad8-bb98-dea6a0cfb4f4;"><g transform="translate(-128,128)"><g transform=" translate(192,191.9995) scale(0.8888888888888888)" data-fill="c3" style="fill: rgb(0, 0, 0);"><g data-icon="" transform="scale(0.9)" data-fill="c3" style="fill: rgb(0, 0, 0);">  <use xlink:href="#id-0.3187249497842608" x="-50" y="-50" data-fill="c3" style="fill: rgb(0, 0, 0);"></use>
</g></g></g></g><g data-idx="0" data-dup="" dx="128" dy="128" style="transform-origin: 320px 320px; animation: 1s linear 0s infinite normal forwards running beat-d3700d2e-fdee-4ad8-bb98-dea6a0cfb4f4;"><g transform="translate(128,128)"><g transform=" translate(192,191.9995) scale(0.8888888888888888)" data-fill="c3" style="fill: rgb(0, 0, 0);"><g data-icon="" transform="scale(0.9)" data-fill="c3" style="fill: rgb(0, 0, 0);">  <use xlink:href="#id-0.3187249497842608" x="-50" y="-50" data-fill="c3" style="fill: rgb(0, 0, 0);"></use>
</g></g></g></g><g data-idx="1" data-dup="" dx="-128" dy="128" style="transform-origin: -63.9997px 192px; animation: 1s linear 0s infinite normal forwards running beat-d3700d2e-fdee-4ad8-bb98-dea6a0cfb4f4;"><g transform="translate(-128,128)"><g transform=" translate(64,63.9995) scale(0.8888888888888888)" data-fill="c3" style="fill: rgb(0, 0, 0);"><g data-icon="" transform="scale(0.9)" data-fill="c3" style="fill: rgb(0, 0, 0);">  <use xlink:href="#id-0.3187249497842608" x="-50" y="-50" data-fill="c3" style="fill: rgb(0, 0, 0);"></use>
</g></g></g></g><g data-idx="1" data-dup="" dx="128" dy="128" style="transform-origin: 192px 192px; animation: 1s linear 0s infinite normal forwards running beat-d3700d2e-fdee-4ad8-bb98-dea6a0cfb4f4;"><g transform="translate(128,128)"><g transform=" translate(64,63.9995) scale(0.8888888888888888)" data-fill="c3" style="fill: rgb(0, 0, 0);"><g data-icon="" transform="scale(0.9)" data-fill="c3" style="fill: rgb(0, 0, 0);">  <use xlink:href="#id-0.3187249497842608" x="-50" y="-50" data-fill="c3" style="fill: rgb(0, 0, 0);"></use>
</g></g></g></g></g>
  </pattern>
</defs>
<rect x="0" y="0" width="1084" height="322" fill="url(#pid-0.9244911960668014)"></rect>
</svg>