<svg id="Layer_1" data-name="Layer 1" xmlns="http://www.w3.org/2000/svg" viewBox="0 0 42 57">
    <defs>
        <style>.cls-1{fill:#fff;}</style>
    </defs>
    <title>marker</title>
    <path class="cls-1"
        d="M20.84 57l-1.13-1.28c-.05-.06-1.3-1.49-3.17-3.8a17.11 17.11 0 0 1-2.6-2.92l-4.47-5.88a3.38 3.38 0 0 1-.47-.84A49 49 0 0 1 5.59 37c-.42-.71-.84-1.42-1.27-2.12-.27-.43-.56-.85-.86-1.26a16.51 16.51 0 0 1-1.59-2.52A17.26 17.26 0 0 1 .46 26a24.83 24.83 0 0 1-.23-4.55 20.51 20.51 0 0 1 .72-5.24 18.76 18.76 0 0 1 1.41-4.31 13.84 13.84 0 0 1 2.55-3.65 20.55 20.55 0 0 1 1.62-1.46l.32-.27c.21-.2.5-.45.79-.69l.16-.15a14.44 14.44 0 0 1 1.67-1.53 10.05 10.05 0 0 1 1.69-1c.26-.13.51-.25.76-.4a5 5 0 0 1 2.08-.6.47.47 0 0 0 .14-.06l.4-.23a4.85 4.85 0 0 1 1.9-.48l.26-.08a7.44 7.44 0 0 1 2-.24 24.3 24.3 0 0 1 6.91.34 15.19 15.19 0 0 1 4.26 1.46c.26.14.5.27.72.42a11.41 11.41 0 0 1 4.59 3 8.85 8.85 0 0 0 .71.72 8.62 8.62 0 0 1 1.41 1.52l.15.24a11.32 11.32 0 0 1 3.65 6 27.33 27.33 0 0 1 .43 10A23.38 23.38 0 0 1 40 29.95a21.78 21.78 0 0 1-2.23 4.67 25.71 25.71 0 0 1-1.63 2.11c-.11.25-.22.5-.33.76l-.11.25a3.87 3.87 0 0 1-1.25 2.56 18.66 18.66 0 0 0-2.67 3.33c-.42.61-.85 1.23-1.3 1.83l-.47.62a47.27 47.27 0 0 1-3 3.73c-2.84 3.56-4.94 5.88-5 6zm-4-52.63a2.23 2.23 0 0 0-.89.16l-.24.13a3.06 3.06 0 0 1-1.4.48 2 2 0 0 0-.86.23c-.3.17-.61.33-.93.49a7.49 7.49 0 0 0-1.19.68A11.47 11.47 0 0 0 10 7.8l-.29.28-.1.09c-.24.21-.48.42-.72.64l-.39.33a18.2 18.2 0 0 0-1.4 1.23 10.73 10.73 0 0 0-2 2.86 15.8 15.8 0 0 0-1.19 3.66v.1a17.61 17.61 0 0 0-.63 4.56 22.12 22.12 0 0 0 .21 4 14.35 14.35 0 0 0 1.14 4.25 14 14 0 0 0 1.31 2.08c.33.47.67.94 1 1.42.45.72.88 1.45 1.31 2.17a44.17 44.17 0 0 0 3.35 5.11l.2.25.08.31a.37.37 0 0 0 .06.13l4.47 5.91a13.84 13.84 0 0 0 2.21 2.49l.24.24c.81 1 1.52 1.87 2.06 2.51.89-1 2.24-2.62 3.79-4.56l.08-.09a44.28 44.28 0 0 0 2.86-3.53l.48-.63c.43-.56.82-1.14 1.22-1.71a21.22 21.22 0 0 1 3.09-3.9.93.93 0 0 0 .26-.67v-.3l.3-.73c.16-.38.31-.74.48-1.09l.21-.32a24.21 24.21 0 0 0 1.57-2 19.45 19.45 0 0 0 1.9-4 20.86 20.86 0 0 0 1.33-4.56 24.17 24.17 0 0 0-.37-8.83 8.26 8.26 0 0 0-2.81-4.5l-.25-.2-.15-.28c-.05-.1-.11-.2-.17-.3a6 6 0 0 0-.93-1 12 12 0 0 1-1-1 8.92 8.92 0 0 0-3.51-2.14l-.28-.15c-.18-.12-.38-.24-.6-.35A12.34 12.34 0 0 0 25 4.39a21.3 21.3 0 0 0-6.11-.28h-.18a4.43 4.43 0 0 0-1.27.15l-.31.16zm4 26.27a9.83 9.83 0 0 1-7.11-3.06A7.38 7.38 0 0 1 11.29 24a10.39 10.39 0 0 1 .71-7.27 7 7 0 0 1 .42-1 8.24 8.24 0 0 1 3.08-3.13 11.82 11.82 0 0 1 7.17-1.83c3.33.23 5.92 1.83 7.12 4.33a6.59 6.59 0 0 1 .64 2.56 7.14 7.14 0 0 1 .39 1.92 12 12 0 0 1-1 5.5 7.91 7.91 0 0 1-1.85 2.59 9.7 9.7 0 0 1-7.11 3.02zm1-16.91a8.92 8.92 0 0 0-4.69 1.38 5.38 5.38 0 0 0-2 2 4.14 4.14 0 0 0-.27.66l-.1.25a7.43 7.43 0 0 0-.51 5.21 4.59 4.59 0 0 0 1.54 2.14l.13.13a6.73 6.73 0 0 0 9.83 0l.08-.08A4.9 4.9 0 0 0 27 23.83a8.82 8.82 0 0 0 .78-4 4 4 0 0 0-.28-1.24l-.11-.27V18a3.59 3.59 0 0 0-.39-1.59c-1-2.11-3.57-2.53-4.62-2.62z" />
    <path class="cls-1"
        d="M21.68 6.27a1.31 1.31 0 0 1 .78 1.19 1.52 1.52 0 0 1-1 1.53 1.45 1.45 0 0 1-1.75-.81c-.29-.5 0-1 .05-1.49 0-.1.11-.15.18-.19s.27-.15.41-.22a1.47 1.47 0 0 1 1.33-.01zM33.52 13.76a1.31 1.31 0 0 1-1.33.51 1.52 1.52 0 0 1-1.28-1.34 1.45 1.45 0 0 1 1.16-1.54c.55-.17 1 .17 1.44.36.09 0 .12.14.15.22s.09.3.13.45a1.47 1.47 0 0 1-.27 1.34zM21.68 44.38a1.31 1.31 0 0 1 .78 1.19 1.52 1.52 0 0 1-1 1.53 1.45 1.45 0 0 1-1.75-.81c-.29-.5 0-1 .05-1.49 0-.1.11-.15.18-.19s.27-.15.41-.22a1.47 1.47 0 0 1 1.33-.01zM30.39 29.53a1.31 1.31 0 0 1 1.42.17 1.52 1.52 0 0 1 .5 1.79 1.45 1.45 0 0 1-1.75.82c-.56-.1-.78-.61-1.1-1a.33.33 0 0 1 0-.26c0-.15.06-.3.09-.46a1.47 1.47 0 0 1 .84-1.06zM28 7.4a1.22 1.22 0 0 1 .84 1A1.42 1.42 0 0 1 28 10a1.36 1.36 0 0 1-1.71-.59c-.31-.44-.13-.92-.09-1.39 0-.09.09-.15.15-.2s.24-.16.36-.25A1.37 1.37 0 0 1 28 7.4zM25.28 40.16a1.22 1.22 0 0 1 .84 1 1.42 1.42 0 0 1-.83 1.52 1.36 1.36 0 0 1-1.71-.59c-.31-.44-.13-.92-.09-1.39 0-.09.09-.15.15-.2s.24-.16.36-.25a1.37 1.37 0 0 1 1.28-.09zM34.38 23.88a1.22 1.22 0 0 1 .84 1 1.42 1.42 0 0 1-.83 1.52 1.36 1.36 0 0 1-1.71-.59c-.31-.44-.13-.92-.09-1.39 0-.09.09-.15.15-.2s.24-.16.36-.25a1.37 1.37 0 0 1 1.28-.09zM35.37 17.75a1.22 1.22 0 0 1 .84 1 1.42 1.42 0 0 1-.83 1.52 1.36 1.36 0 0 1-1.71-.59c-.31-.44-.13-.92-.09-1.39 0-.09.09-.15.15-.2s.24-.16.36-.25a1.37 1.37 0 0 1 1.28-.09zM28.55 35.22a1.22 1.22 0 0 1 .84 1 1.42 1.42 0 0 1-.83 1.52 1.36 1.36 0 0 1-1.71-.59c-.31-.44-.13-.92-.09-1.39 0-.09.09-.15.15-.2s.24-.16.36-.25a1.37 1.37 0 0 1 1.28-.09zM8.58 13.76a1.31 1.31 0 0 0 1.33.51 1.52 1.52 0 0 0 1.28-1.34A1.45 1.45 0 0 0 10 11.39c-.55-.17-1 .17-1.44.36-.09 0-.12.14-.15.22s-.09.3-.13.45a1.47 1.47 0 0 0 .3 1.34zM11.72 29.53a1.31 1.31 0 0 0-1.42.17 1.52 1.52 0 0 0-.5 1.79 1.45 1.45 0 0 0 1.75.82c.56-.1.78-.61 1.1-1a.33.33 0 0 0 0-.26c0-.15-.06-.3-.09-.46a1.47 1.47 0 0 0-.84-1.06zM14.1 7.4a1.22 1.22 0 0 0-.84 1 1.42 1.42 0 0 0 .82 1.6 1.36 1.36 0 0 0 1.71-.59c.31-.44.13-.92.09-1.39 0-.09-.09-.15-.15-.2s-.24-.16-.36-.25a1.37 1.37 0 0 0-1.27-.17zM16.83 40.16a1.22 1.22 0 0 0-.84 1 1.42 1.42 0 0 0 .83 1.52 1.36 1.36 0 0 0 1.71-.59c.31-.44.13-.92.09-1.39 0-.09-.09-.15-.15-.2s-.24-.16-.36-.25a1.37 1.37 0 0 0-1.28-.09zM7.72 23.88a1.22 1.22 0 0 0-.84 1 1.42 1.42 0 0 0 .83 1.52 1.36 1.36 0 0 0 1.71-.59c.31-.44.13-.92.09-1.39 0-.09-.09-.15-.15-.2S9.12 24.1 9 24a1.37 1.37 0 0 0-1.28-.12zM6.73 17.75a1.22 1.22 0 0 0-.84 1 1.42 1.42 0 0 0 .83 1.52 1.36 1.36 0 0 0 1.71-.59c.31-.44.13-.92.09-1.39 0-.09-.09-.15-.15-.2s-.25-.09-.37-.2a1.37 1.37 0 0 0-1.27-.14zM13.56 35.22a1.22 1.22 0 0 0-.84 1 1.42 1.42 0 0 0 .83 1.52 1.36 1.36 0 0 0 1.71-.59c.31-.44.13-.92.09-1.39 0-.09-.09-.15-.15-.2s-.24-.16-.36-.25a1.37 1.37 0 0 0-1.28-.09z" />
</svg>