<svg xmlns="http://www.w3.org/2000/svg" viewBox="0 0 2380 734"><defs><style>.cls-1{isolation:isolate;}.cls-2{fill:#fff;}.cls-3{fill:#e1c04d;}.cls-10,.cls-11,.cls-12,.cls-13,.cls-14,.cls-15,.cls-3,.cls-4,.cls-5,.cls-6,.cls-7,.cls-8,.cls-9{mix-blend-mode:multiply;}.cls-4{fill:#f1944d;}.cls-5{fill:#e9d5a9;}.cls-6{fill:#b69bdc;}.cls-7{fill:#eecb3d;}.cls-8{fill:#54e2f1;}.cls-9{fill:#cccbcd;}.cls-10{fill:#ee5b81;}.cls-11{fill:#45eec4;}.cls-12{fill:#ec4980;}.cls-13{fill:#e424a7;}.cls-14{fill:#d0384e;}.cls-15,.cls-17{fill:#956959;}.cls-16{fill:#5ab87b;}.cls-18{fill:#2a1a7a;}</style></defs><title>scoops-separator</title><g class="cls-1"><g id="Layer_1" data-name="Layer 1"><path class="cls-2" d="M2368.25 183.6c-7.9-22.57-17.65-46-29.92-66.58-5-8.46-11.36-16.71-19.39-22.52-9.76-7.06-20-9.37-31.83-10.09-5.26-.32-10.14-.77-14.9-3.2-5.34-2.72-10.3-5.77-16-7.75-11.55-4-24-3.82-36-1.83-17.24 2.88-34.12 8-50.61 14a155.6 155.6 0 0 0-21.47 8.39l-.55.23c-12.72 5.23-25.67 11.37-37.09 19.42-3.59-3.56-7.26-7-10.92-10.53a192.75 192.75 0 0 0-60.46-39.09c-16.7-6.87-33.61-12.94-51.58-15.55-12.09-1.75-23.78.55-35.12 4.24-7.4 2.41-14.44 6-21.51 9.28-6.3 2.95-12.48 6.14-18.6 9.44-11.07 6-20.33 14.33-30 22.31a223.59 223.59 0 0 0-35.23 36c-8.08-3.36-17.67-6.22-27-9.73-19.65-7.39-39.87-10.26-60.56-6.37-13.11 2.46-25.89 6.58-38.92 9.53a120 120 0 0 0-42 18.49c-1.12-1.36-2.27-2.7-3.46-4-15.62-17.26-34.31-30.85-54.16-43.11-22.56-13.93-47.24-18.72-73.06-20a20.82 20.82 0 0 0-3.26.28 209 209 0 0 0-47.63 11.27c-10.72 3.84-21.54 7.3-30.52 15.11-5.63 4.89-12.94 7.81-18.87 12.42-4.19 3.24-7.54 7.66-10.87 11.87-1.81 2.29-2.76 5.24-4.17 7.86-6.31 11.76-12.57 23.56-17.6 35.89q-6.88-4.57-14-8.92c-28.55-17.63-59.77-23.69-92.45-25.29a26.34 26.34 0 0 0-4.12.36 264.44 264.44 0 0 0-60.27 14.26c-12.22 4.38-24.54 8.38-35.17 16.35-8.76-12.88-20.39-22.9-31.85-33.11a192.74 192.74 0 0 0-61.78-37c-16.93-6.28-34-11.77-52.09-13.76-12.14-1.33-23.74 1.37-35 5.46-7.31 2.66-14.22 6.46-21.18 10-6.08 3.19-12.08 6.6-18.08 10.11-10.86 6.35-19.82 15-29.16 23.33-5.65 5-11.07 10.24-16.22 15.68-.21-.27-.42-.55-.63-.82-7.54-9.2-16.93-16.89-27-26.62-11-7.79-23.29-17.22-36.31-25.44-19.52-12.32-39.81-22.87-63.47-25.41-16.27-1.73-32.37-.89-47.67 4a157.31 157.31 0 0 0-59.38 34.37c-3.59 3.33-7 6.87-10.34 10.45-.07-.44-.13-.88-.21-1.33a42 42 0 0 1-.43-6.38c-.3-12.19-4.74-22.93-10.65-33.43-6.88-12.23-17-21.5-26.86-31a157.12 157.12 0 0 0-49.29-31.87C597.76 7.73 584 2.78 569.33.65c-9.86-1.43-19.38.45-28.63 3.46-6 2-11.77 4.86-17.54 7.56-5.13 2.4-10.18 5-15.17 7.69-9 4.86-16.57 11.68-24.42 18.19-12.5 10.37-23.77 21.8-33 35.14-3.72 5.4-7.18 11.34-9.06 17.56a244.35 244.35 0 0 0-6.51 26.56 105 105 0 0 0-28.66 5.25c-10.22 3.32-20 8.31-29.59 13.2-12.4 6.3-23 15-32.73 25.06-1.5 1.56-2.95 3.15-4.37 4.76-4-5.71-9.62-11.72-14.7-18.09-9.89-12.43-21.91-22.14-36.85-27.64-9.47-3.49-19.36-5.78-29-8.91-20.25-6.61-40.5-5.64-60.37.82-10.22 3.32-20 8.31-29.59 13.2-12.4 6.3-23 15-32.73 25.06a166.5 166.5 0 0 0-23.83 31.77c-9.42 16.14-14.1 34.06-19.23 51.81-4.55 15.74-2.11 31 3.69 45.67a182.15 182.15 0 0 0 15.27 29.68c-6.67 3-13.21 6.31-19.71 9.61-14.59 7.41-27.1 17.62-38.51 29.48a195.88 195.88 0 0 0-28 37.37C15 403.87 9.49 425 3.45 445.84-1.9 464.36 1 482.36 7.79 499.57c9.15 23.05 22.73 43.59 38 63.22C63.07 585.11 85.9 599.1 111.2 610a22.19 22.19 0 0 0 3.36.94 222.62 222.62 0 0 0 51.73 6.52c12.13.17 24.22.75 36.09-3.69 7-2.61 14.76-2.94 22-4.92a167.18 167.18 0 0 0 52.21 47.66c13.76 8.13 28.52 15.86 43.85 19.72 23.3 5.86 47.36 5.07 70.35-3.68 10.93-4.16 21.52-9.25 32.31-13.78 4.92-2.06 9.85-4.38 15-5.53a32.36 32.36 0 0 0 15.77-8.24c8.28-7.8 17.59-14.58 25.3-22.88a178.69 178.69 0 0 0 21.33-27.74c5.23-8.5 8.26-18.33 12.42-27.5a131.7 131.7 0 0 0 8.62-25.88l3.59 2.14c26.42 15.6 55.07 20.57 85 21.44a24.1 24.1 0 0 0 3.76-.4 241.77 241.77 0 0 0 54.8-14.18c12.31-4.69 24.75-8.94 35-18.18 6.4-5.79 14.78-9.34 21.54-14.79a55.69 55.69 0 0 0 8.56-9.1l.5 3.72c2.34 17.23 8.23 33.33 16.15 48.92a208.09 208.09 0 0 0 27.72 41.17c15.19 17.74 34.42 30.62 53.28 44 16.71 11.82 35.78 15.23 55.43 14.38 26.32-1.14 51.66-7.61 76.68-16a137.36 137.36 0 0 0 28.37-13.42q3.68 3.29 7.65 6.34c22.11 17 47 28.94 73.07 39.09 29.57 11.54 59.66 11.87 90.33 7.8a24.92 24.92 0 0 0 3.78-1 246.36 246.36 0 0 0 48.34-20.54 125.89 125.89 0 0 0 35.55 15.74c9.12 2.44 18.59 3.57 27.74 5.93 14.76 3.8 29.43 1.9 44.13.18 12.87-1.5 23.89-7.35 34.14-15 3-2.25 6.15-4.4 9.25-6.57a138.06 138.06 0 0 0 26.63 27.73c6.82 7.08 19.45 12.59 31.27 19.37 15.85 9.09 32.82 14.38 51.13 13.93 11.6-.29 23.16-2 34.76-2.76 24.45-1.52 45.7-11.14 64.21-26.49 9.52-7.89 17.82-17.36 26-26.67a124.38 124.38 0 0 0 14.45-20.25 156 156 0 0 0 60.78 64.26c12.93 7.63 26.8 14.91 41.2 18.53 21.89 5.51 44.5 4.76 66.1-3.46 10.27-3.91 20.21-8.69 30.36-12.94 4.62-1.94 9.26-4.11 14.11-5.2a30.41 30.41 0 0 0 14.82-7.74c7.78-7.33 16.53-13.7 23.78-21.5a167.89 167.89 0 0 0 20-26.07c4.91-8 7.76-17.22 11.66-25.84a127.27 127.27 0 0 0 11.18-53.05c7.18 5 14.6 9.63 22.18 14.1 23.75 14 49.5 18.49 76.37 19.28a21.65 21.65 0 0 0 3.38-.36q9.49-1.24 18.75-3.37 2.12 2.49 4.38 4.9c18.46 19.61 40.39 34.9 63.64 48.62 26.42 15.6 55.07 20.57 85 21.44a24.1 24.1 0 0 0 3.76-.4 241.77 241.77 0 0 0 54.83-14.13c12.31-4.69 24.75-8.94 35-18.18 6.4-5.79 14.78-9.34 21.54-14.79 4.77-3.85 8.54-9 12.3-14 2-2.69 3.07-6.13 4.64-9.19 10.05-19.66 20-39.4 25.76-60.84 4.68-17.44 6.87-35.26 2.73-53.11-3.76-16.24-8-32.41-12.85-48.34-7.12-23.16-17.68-44.21-35.24-63.07a81 81 0 0 0 11.13-11.19c20-11.29 37.19-28.47 49.76-48a150.43 150.43 0 0 0 23.18-64.8c2.68-25.77-1.8-51.09-10.33-75.49z"/><path class="cls-3" d="M1198.32 474.63c-30.88-25.56-46.76-54.91-56.22-88-5-17.53-9.24-35.31-13-53.15-4.14-19.6-1.36-39 4.14-58 6.76-23.31 18.06-44.69 29.49-66 1.78-3.31 3-7.06 5.27-9.95 4.21-5.32 8.46-10.91 13.75-15 7.51-5.82 16.76-9.52 23.88-15.71 11.36-9.88 25.05-14.26 38.62-19.12a264.44 264.44 0 0 1 60.27-14.26 26.35 26.35 0 0 1 4.12-.36c32.67 1.61 63.89 7.67 92.45 25.29 25.12 15.51 48.77 32.71 68.54 54.55 14.76 16.31 25.43 35.15 27.18 58 2 25.75 4.62 51.5.19 77.23a232.67 232.67 0 0 1-15.65 53.24c-7.76 17.95-17.43 34.5-30.58 48.82-10.21 11.11-20.52 22.41-32.27 31.76-22.84 18.19-48.88 29.36-78.62 30.62-14.11.6-28.18 2.44-42.28 2.51-22.25.11-42.73-6.72-61.76-18.15-14.2-8.57-29.41-15.56-37.52-24.32z"/><path class="cls-4" d="M1460.77 342.93c-24.4-20.2-37-43.39-44.43-69.56-4-13.85-7.3-27.9-10.27-42-3.27-15.49-1.07-30.86 3.27-45.85 5.34-18.43 14.28-35.32 23.3-52.14 1.41-2.62 2.36-5.58 4.17-7.86 3.33-4.21 6.68-8.63 10.87-11.87 5.94-4.6 13.24-7.52 18.87-12.42 9-7.81 19.8-11.27 30.52-15.11a209 209 0 0 1 47.63-11.27 20.82 20.82 0 0 1 3.26-.28c25.82 1.27 50.5 6.06 73.06 20 19.85 12.26 38.54 25.85 54.16 43.11 11.66 12.89 20.1 27.78 21.48 45.81 1.56 20.35 3.65 40.7.15 61a183.87 183.87 0 0 1-12.37 42.08c-6.14 14.18-13.77 27.27-24.17 38.58-8.07 8.78-16.22 17.71-25.5 25.1-18.05 14.37-38.63 23.2-62.13 24.2-11.15.47-22.27 1.93-33.41 2-17.58.09-33.77-5.31-48.81-14.34-11.22-6.73-23.24-12.26-29.65-19.18z"/><path class="cls-5" d="M1392.51 690.37c-25.83-20.53-39.39-44.43-47.71-71.53-4.41-14.34-8.18-28.91-11.57-43.53-3.72-16.07-1.76-32.11 2.46-47.82 5.18-19.3 14.14-37.08 23.19-54.78 1.41-2.76 2.34-5.86 4.18-8.27 3.38-4.45 6.78-9.12 11.07-12.59 6.09-4.91 13.64-8.11 19.4-13.32 9.19-8.31 20.39-12.15 31.47-16.37a217.69 217.69 0 0 1 49.37-12.72 21.69 21.69 0 0 1 3.39-.36c26.92.79 52.71 5.27 76.5 19.31 20.93 12.35 40.68 26.12 57.3 43.78 12.41 13.18 21.5 28.51 23.32 47.27 2 21.16 4.64 42.31 1.41 63.56a191.53 191.53 0 0 1-12 44.08c-6.1 14.9-13.78 28.68-24.37 40.68-8.22 9.31-16.52 18.78-26 26.67-18.5 15.34-39.75 25-64.21 26.49-11.6.72-23.16 2.47-34.76 2.76-18.31.45-35.28-4.84-51.13-13.93-11.82-6.75-24.49-12.29-31.31-19.38zM2092 327.06c25.79 20.5 39.32 44.35 47.63 71.41 4.4 14.32 8.17 28.86 11.55 43.45 3.72 16 1.75 32.06-2.46 47.74-5.17 19.27-14.11 37-23.15 54.69-1.41 2.75-2.33 5.85-4.17 8.26-3.38 4.44-6.77 9.11-11.05 12.56-6.08 4.91-13.61 8.09-19.37 13.3-9.17 8.3-20.35 12.13-31.42 16.34a217.32 217.32 0 0 1-49.29 12.7 21.65 21.65 0 0 1-3.38.36c-26.87-.79-52.62-5.26-76.37-19.28-20.89-12.33-40.61-26.08-57.2-43.7-12.39-13.16-21.47-28.46-23.28-47.19-2-21.13-4.64-42.24-1.41-63.46a191.21 191.21 0 0 1 12-44c6.09-14.87 13.76-28.63 24.33-40.61 8.21-9.29 16.49-18.74 26-26.62 18.47-15.32 39.69-24.92 64.1-26.44 11.58-.72 23.12-2.47 34.7-2.75 18.28-.45 35.22 4.83 51 13.9 11.85 6.78 24.46 12.28 31.24 19.34z"/><path class="cls-6" d="M344 172.66c14.29 24.87 17.58 48.52 15.63 73.09-1 13-2.66 26-4.6 38.88-2.14 14.18-8.88 26.51-17.32 37.85-10.37 13.93-23.31 25.43-36.3 36.83-2 1.78-3.77 4-6 5.35-4.16 2.51-8.4 5.2-13 6.62-6.49 2-13.62 2.18-19.94 4.55-10.09 3.77-20.37 3.28-30.68 3.14a189.23 189.23 0 0 1-44-5.54 18.85 18.85 0 0 1-2.85-.79c-21.5-9.27-40.91-21.15-55.62-40.12-13-16.69-24.49-34.14-32.27-53.74-5.8-14.63-8.24-29.93-3.69-45.67 5.13-17.76 9.81-35.68 19.23-51.81a166.49 166.49 0 0 1 23.83-31.77c9.7-10.08 20.33-18.76 32.73-25.06 9.63-4.89 19.37-9.88 29.59-13.2 19.87-6.47 40.12-7.43 60.37-.82 9.6 3.13 19.5 5.43 29 8.91 14.94 5.5 27 15.22 36.85 27.64 7.36 9.25 15.8 17.74 19.04 25.66z"/><path class="cls-7" d="M862.89 325c35.23-6.67 64.5-.85 92.7 11.54 14.92 6.56 29.58 13.8 44 21.39 15.86 8.34 27.66 21.36 37.58 36 12.19 18 20.46 37.95 28.59 58 1.27 3.12 3.16 6.08 3.84 9.31 1.26 5.94 2.69 12.05 2.49 18-.28 8.5-3 17-2.82 25.41.32 13.46-4.48 25.39-8.88 37.5a236.51 236.51 0 0 1-24.58 49.64 23.56 23.56 0 0 1-2.11 3c-19.7 21.64-41.7 39.68-70.18 49.28-25 8.44-50.36 14.91-76.68 16-19.65.85-38.71-2.56-55.43-14.38-18.86-13.34-38.09-26.22-53.28-44a208.1 208.1 0 0 1-27.72-41.17c-7.92-15.59-13.81-31.7-16.15-48.92-1.82-13.37-3.71-26.92-3.45-40.35.52-26.11 7.69-50.42 23.8-71.61 7.64-10.05 14.41-20.8 22.41-30.54 12.63-15.38 29-25.59 47.75-32.16 13.96-4.83 27.45-11.31 38.12-11.94z"/><path class="cls-8" d="M551.57 183.47c14.29 24.87 17.58 48.52 15.63 73.09-1 13-2.66 26-4.6 38.88-2.14 14.18-8.88 26.51-17.32 37.85C534.9 347.22 522 358.72 509 370.12c-2 1.78-3.77 4-6 5.35-4.16 2.51-8.4 5.2-13 6.62-6.49 2-13.62 2.18-19.94 4.55-10.09 3.77-20.37 3.28-30.68 3.14a189.23 189.23 0 0 1-44-5.54 18.85 18.85 0 0 1-2.85-.79c-21.5-9.27-40.91-21.15-55.62-40.12-13-16.69-24.49-34.14-32.27-53.74-5.8-14.63-8.24-29.93-3.69-45.67 5.13-17.76 9.81-35.68 19.23-51.81A166.49 166.49 0 0 1 344 160.32c9.7-10.08 20.33-18.76 32.73-25.06 9.63-4.89 19.37-9.88 29.59-13.2 19.87-6.47 40.12-7.43 60.37-.82 9.6 3.13 19.5 5.43 29 8.91 14.94 5.5 27 15.22 36.85 27.64 7.35 9.27 15.79 17.77 19.03 25.68z"/><path class="cls-9" d="M298.31 374.75c16.81 29.26 20.69 57.08 18.38 86-1.22 15.3-3.13 30.57-5.42 45.74-2.52 16.68-10.44 31.19-20.37 44.53-12.21 16.39-27.42 29.92-42.7 43.33-2.38 2.09-4.43 4.69-7.09 6.29-4.89 3-9.89 6.11-15.27 7.79-7.64 2.38-16 2.56-23.46 5.35-11.87 4.44-24 3.86-36.09 3.69a222.63 222.63 0 0 1-51.73-6.52 22.18 22.18 0 0 1-3.36-.94c-25.29-10.9-48.13-24.88-65.44-47.2-15.24-19.64-28.82-40.17-38-63.22C1 482.36-1.9 464.36 3.45 445.84c6-20.89 11.54-42 22.63-61a195.88 195.88 0 0 1 28-37.37C65.53 335.65 78 325.44 92.63 318c11.33-5.75 22.79-11.62 34.81-15.53 23.38-7.61 47.2-8.74 71-1 11.3 3.69 22.95 6.39 34.08 10.49 17.58 6.47 31.72 17.9 43.35 32.52 8.7 10.97 18.63 20.96 22.44 30.27zM1859.18 136.24c33.09 18.53 52.86 43.13 67.31 72.34 7.64 15.46 14.61 31.28 21.15 47.24 7.19 17.54 7.91 36.1 6 54.69-2.32 22.85-9.2 44.66-16.21 66.41-1.09 3.39-1.57 7.07-3.21 10.15-3 5.67-6 11.6-10.24 16.32-6 6.7-14 11.71-19.55 18.69-8.89 11.13-20.89 17.54-32.68 24.37a250.16 250.16 0 0 1-53.64 23.55 24.92 24.92 0 0 1-3.78 1c-30.68 4.07-60.76 3.74-90.33-7.8-26-10.16-51-22.13-73.07-39.09-16.51-12.66-29.65-28.38-35.16-49.32-6.22-23.63-13.07-47.14-13.32-71.84a220.11 220.11 0 0 1 5.5-52.21c4.17-18 10.34-35.08 20.15-50.63 7.61-12.07 15.28-24.34 24.62-35 18.16-20.81 40.49-35.64 67.95-41.88 13-3 25.81-7.07 38.92-9.53 20.69-3.89 40.91-1 60.56 6.37 14.65 5.48 29.98 9.39 39.03 16.17z"/><path class="cls-10" d="M1207.8 349.11c33.09 18.53 52.86 43.13 67.31 72.34 7.64 15.46 14.61 31.28 21.15 47.24 7.19 17.54 7.91 36.1 6 54.69-2.32 22.85-9.2 44.66-16.21 66.41-1.09 3.39-1.57 7.07-3.21 10.15-3 5.67-6 11.6-10.24 16.32-6 6.7-14 11.71-19.55 18.69-8.89 11.13-20.89 17.54-32.68 24.37a250.16 250.16 0 0 1-53.66 23.53 24.92 24.92 0 0 1-3.78 1c-30.68 4.07-60.76 3.74-90.33-7.8-26-10.16-51-22.13-73.07-39.09-16.51-12.66-29.65-28.38-35.16-49.32-6.22-23.63-13.07-47.14-13.32-71.84a220.11 220.11 0 0 1 5.5-52.21c4.17-18 10.34-35.08 20.15-50.63 7.61-12.07 15.28-24.34 24.62-35 18.16-20.81 40.49-35.64 67.95-41.88 13-3 25.81-7.07 38.92-9.53 20.69-3.89 40.91-1 60.56 6.37 14.66 5.5 30 9.41 39.05 16.19z"/><path class="cls-11" d="M2276.72 366.71c28.69 22.8 43.74 49.34 53 79.44 4.89 15.93 9.08 32.11 12.85 48.34 4.14 17.84 2 35.67-2.73 53.11-5.76 21.43-15.7 41.18-25.76 60.84-1.57 3.06-2.6 6.5-4.64 9.19-3.76 4.94-7.53 10.13-12.3 14-6.76 5.46-15.15 9-21.54 14.79-10.2 9.23-22.64 13.49-35 18.18a241.76 241.76 0 0 1-54.83 14.13 24.09 24.09 0 0 1-3.76.4c-29.9-.88-58.54-5.85-85-21.44-23.24-13.72-45.17-29-63.64-48.62-13.78-14.64-23.88-31.66-25.9-52.49-2.27-23.51-5.16-47-1.57-70.59a212.72 212.72 0 0 1 13.34-49c6.77-16.54 15.3-31.86 27.07-45.18 9.13-10.34 18.35-20.85 28.92-29.62 20.55-17 44.15-27.73 71.31-29.42 12.88-.8 25.72-2.74 38.6-3.06 20.34-.5 39.18 5.37 56.78 15.47 13.19 7.55 27.22 13.66 34.8 21.53z"/><path class="cls-12" d="M704.77 252.17c28.69 22.8 43.74 49.34 53 79.44 4.89 15.93 9.08 32.11 12.85 48.34 4.14 17.84 2 35.67-2.73 53.11-5.76 21.43-15.7 41.18-25.76 60.84-1.57 3.06-2.6 6.5-4.64 9.19-3.76 4.94-7.53 10.13-12.3 14-6.76 5.46-15.15 9-21.54 14.79-10.2 9.23-22.64 13.49-35 18.18a241.76 241.76 0 0 1-54.83 14.13 24.09 24.09 0 0 1-3.76.4c-29.9-.88-58.54-5.85-85-21.44-23.24-13.72-45.17-29-63.64-48.62-13.78-14.64-23.88-31.66-25.9-52.49-2.27-23.51-5.16-47-1.57-70.59a212.72 212.72 0 0 1 13.34-49c6.77-16.54 15.3-31.86 27.07-45.18 9.13-10.34 18.35-20.85 28.92-29.62 20.55-17 44.15-27.73 71.31-29.42 12.88-.8 25.72-2.74 38.6-3.06 20.34-.5 39.18 5.37 56.78 15.47 13.2 7.55 27.22 13.66 34.8 21.53z"/><path class="cls-13" d="M1654.43 258.62c25.68 20.41 39.15 44.16 47.43 71.1 4.38 14.26 8.13 28.74 11.5 43.27 3.7 16 1.75 31.92-2.45 47.53-5.15 19.18-14.05 36.86-23.05 54.45-1.4 2.74-2.32 5.82-4.15 8.22-3.36 4.42-6.74 9.07-11 12.51-6.05 4.89-13.56 8.06-19.28 13.24-9.13 8.27-20.27 12.07-31.29 16.27a216.39 216.39 0 0 1-49.08 12.65 21.56 21.56 0 0 1-3.37.36c-26.76-.78-52.4-5.23-76-19.19-20.8-12.28-40.43-26-57-43.52-12.34-13.1-21.37-28.34-23.18-47-2-21-4.62-42.06-1.41-63.18a190.39 190.39 0 0 1 11.9-43.79c6.06-14.81 13.7-28.51 24.23-40.43 8.17-9.25 16.42-18.66 25.88-26.51 18.39-15.25 39.52-24.82 63.82-26.33 11.53-.72 23-2.45 34.55-2.74 18.2-.45 35.07 4.81 50.82 13.84 11.8 6.74 24.35 12.21 31.13 19.25z"/><path class="cls-14" d="M482.79 237.84c-4-3.29-8-6.65-12.13-9.86-12.76-10-19.07-24.48-27.09-37.88-6.38-10.66-10.43-21.94-11-34.11a172.45 172.45 0 0 1 1.23-31.87 225.31 225.31 0 0 1 7.77-33.87c1.88-6.21 5.34-12.16 9.06-17.56 9.19-13.33 20.46-24.77 33-35.14C491.43 31 499 24.23 508 19.37c5-2.69 10-5.29 15.17-7.69 5.77-2.7 11.51-5.6 17.54-7.56 9.25-3 18.77-4.89 28.63-3.46 14.65 2.13 28.43 7.08 42 12.68a157.12 157.12 0 0 1 49.33 31.86c9.89 9.45 20 18.72 26.86 31 5.91 10.5 10.35 21.25 10.65 33.43a42 42 0 0 0 .43 6.38c1.87 10.4.19 20.68-1 31-3.06 26-12.54 50-24.51 73a34.89 34.89 0 0 1-12.81 14 25.08 25.08 0 0 0-5.69 5.25 73.28 73.28 0 0 1-18.47 15.26c-14.4 8.61-30.18 12-46.45 14.15-18.7 2.45-37.35.87-55.87-1.43-12.66-1.58-23.94-7.38-34.06-15.15-5.83-4.48-11.43-9.26-17.13-13.9zM1881.39 339.49c-5-4-9.85-8.16-14.88-12.09-15.65-12.25-23.39-30-33.23-46.47-7.83-13.07-12.79-26.91-13.5-41.84a211.54 211.54 0 0 1 1.5-39.09 276.39 276.39 0 0 1 9.53-41.55c2.3-7.62 6.55-14.92 11.12-21.54 11.27-16.36 25.09-30.39 40.43-43.1 9.63-8 18.88-16.34 30-22.31 6.12-3.3 12.31-6.49 18.6-9.44 7.08-3.31 14.12-6.87 21.51-9.28 11.34-3.7 23-6 35.12-4.24 18 2.61 34.88 8.69 51.58 15.55a192.74 192.74 0 0 1 60.47 39.09c12.13 11.6 24.51 23 33 38 7.25 12.88 12.69 26.06 13.06 41a51.51 51.51 0 0 0 .53 7.83c2.3 12.76.23 25.36-1.25 38-3.76 31.94-15.38 61.28-30.07 89.53a42.8 42.8 0 0 1-15.72 17.18 30.77 30.77 0 0 0-7 6.44 89.9 89.9 0 0 1-22.65 18.72c-17.66 10.56-37 14.74-57 17.35-22.94 3-45.82 1.07-68.54-1.76-15.53-1.93-29.37-9-41.78-18.59-7.15-5.5-14-11.36-21-17.06z"/><path class="cls-15" d="M967.34 376.65c-5.09-3.86-10.12-7.81-15.29-11.57-16.07-11.7-24.41-29.2-34.82-45.29-8.28-12.79-13.71-26.45-14.94-41.35a211.54 211.54 0 0 1 .15-39.12 276.39 276.39 0 0 1 8.09-41.86c2-7.7 6-15.13 10.37-21.91 10.7-16.74 24-31.24 38.91-44.48 9.34-8.31 18.3-17 29.16-23.33 6-3.51 12.08-6.91 18.27-10.08 7-3.55 13.87-7.35 21.18-10 11.21-4.09 22.81-6.79 35-5.46 18.05 2 35.16 7.47 52.09 13.76a192.74 192.74 0 0 1 61.78 37c12.53 11.17 25.29 22.1 34.25 36.81 7.69 12.63 13.59 25.61 14.47 40.54a51.51 51.51 0 0 0 .8 7.81c2.74 12.68 1.11 25.34.06 38-2.65 32-13.25 61.78-26.95 90.52a42.8 42.8 0 0 1-15.12 17.72 30.77 30.77 0 0 0-6.8 6.64 89.9 89.9 0 0 1-22 19.49c-17.28 11.17-36.49 16-56.35 19.32-22.82 3.79-45.75 2.65-68.56.61-15.59-1.39-29.67-8-42.4-17.13-7.33-5.29-14.39-10.89-21.58-16.29z"/><path class="cls-16" d="M916 119.31c10 9.73 19.43 17.42 27 26.62a61.68 61.68 0 0 1 11.51 22.51c4.72 17.63 9.34 35.52 11.31 53.59 2.59 23.66-.27 47.15-10.29 69.26-3.91 8.62-6.75 17.86-11.66 25.84a167.89 167.89 0 0 1-20 26.07c-7.25 7.79-16 14.17-23.78 21.5a30.41 30.41 0 0 1-14.82 7.74c-4.85 1.09-9.48 3.26-14.11 5.2-10.15 4.26-20.09 9-30.36 12.94-21.6 8.22-44.21 9-66.1 3.46-14.4-3.62-28.27-10.9-41.2-18.53-31.63-18.68-54.34-45.46-67.84-79.85a152.34 152.34 0 0 0-7-14.46c-9.56-18.39-8.29-38.57-9.78-58.3-1.18-15.65 0-31 6.84-45.32 7.86-16.42 15.51-32.93 29.14-45.79 8.45-8 15.84-17.07 24.36-25a157.31 157.31 0 0 1 59.38-34.37c15.3-4.9 31.4-5.74 47.67-4 23.66 2.52 44 13.09 63.47 25.41 12.95 8.26 25.2 17.69 36.26 25.48z"/><path class="cls-2" d="M771.65 233.66c.13 5 .42 9.5.27 14a4.57 4.57 0 0 1-2.26 3.43c-1.14.45-3.64.07-4.1-.76a44.49 44.49 0 0 1-4.56-10.81c-.27-1.1 2.16-3.36 3.81-4.28s4.03-.99 6.84-1.58zM728.48 290.68c-2.62.11-4.69.79-5.3.12a54.34 54.34 0 0 1-7.9-10.12c-1.77-3.2.88-6.52 4.5-5.82 2.16.42 5.07 1.8 5.84 3.54 1.53 3.52 1.85 7.6 2.86 12.28zM747.94 125.8c10.78 4.69 10.78 4.69 10.4 14.6-7.91.19-12.51-5.87-10.4-14.6zM801.53 127.15c2.68 4.68 4.55 7.19 5.55 10 .49 1.38-.19 3.69-1.18 4.9-.59.72-2.79.23-4.25.1a2.54 2.54 0 0 1-1.57-.94c-1.79-2.31-4.76-4.63-4.84-7-.06-1.95 3.4-4 6.29-7.06zM816.68 203.33c3.3-4.16 5.78-4.26 8.75-.59 2.65 3.27 5.71 6.34 3 10.7-.49.8-4.47.78-5.29-.18-2.56-3.01-4.4-6.66-6.46-9.93zM844 293.75c-9.69-4.35-12.54-8.66-9.9-15 7.66 3.25 11.9 9.75 9.9 15zM694.91 163.8l2.65 8.53c-8.42 2.82-12.35.55-13.54-7.41.52-.31 1-.86 1.57-.88 2.8-.15 5.61-.16 9.32-.24zM733.06 196.55l-12.51-10.19c3.46-6.84 4.24-7.14 8.53-2.49 3.02 3.28 6.78 6.51 3.98 12.68zM820.43 316.66c2.19 4.92 6.28 9.3 1.4 16.49l-8.66-7.88c2.41-3.12 1.45-7.97 7.26-8.61zM689.56 242.94c-8.67-2-10-3.92-9.17-12.6 9.77 2.36 12.24 4.24 9.17 12.6zM742.07 343c-2-.95-4.31-1.5-5.82-2.94a13.83 13.83 0 0 1-3.8-6.23c-.26-1 1.73-3.37 3.12-3.83s4.09.26 4.72 1.34c1.67 2.89 2.54 6.24 3.72 9.41zM787.7 286.36c-5.58 1.35-7.86-2.15-9.64-5.78a5.14 5.14 0 0 1 .7-4.78c.91-.86 3.45-.86 4.78-.22 4.24 2.02 5.04 5.81 4.16 10.78zM933.7 202.36L928.41 215c-6.32-1.68-7.66-5.22-6.93-11zM861.81 243.62c3 3.92 5.36 7 7.65 10.23.27.37-.08 1.18-.23 2.64l-8.62 2c1.83-5.16-6.36-9.21 1.2-14.87zM877.28 210.4c-8-2.53-8.95-8.5-10.68-14.6 8.05 1.92 10.77 5.49 10.68 14.6zM771.68 340c9.42 1 11 3.5 9.22 14.1-7.65-1.92-7.39-8.42-9.22-14.1zM920.11 315c-3.5-.15-6.78.41-9.39-.67-1.54-.63-2-3.85-3-5.9 1.83-.75 3.8-2.35 5.47-2.09 4.11.66 6.29 3.55 6.92 8.66zM902.29 151.68c1.82-4 5.22-4.55 8-3.26 1.71.81 2.66 3.93 3.22 6.19.26 1.07-.88 3.13-1.95 3.7a4.52 4.52 0 0 1-4.17-.46c-2.01-1.78-3.48-4.13-5.1-6.17zM873.06 154.3l6.6 8.91c-4.61 3.76-7.83 2.57-10.35-.68s-.56-5.62 3.75-8.23zM839.6 120.18c-4.57 2.92-7.47 2.08-9.14-1.81s.68-5.66 5.19-7.43zM829.71 360.6c2.17-3.76 6.38-3.21 9.68-4.32.7-.24 2.43.91 2.8 1.8a3.86 3.86 0 0 1-.65 3.33c-3.14 3.65-7.34 3.37-11.83-.81zM913.07 270.69c6.71 2.43 7.45 3.82 6.89 11.68-7.11-.22-7.11-.22-6.89-11.68zM883.85 317.73c-.14 1.1.23 3.91-.73 4.48a9.5 9.5 0 0 1-6.52.81c-.72-.17-1.6-4-.85-5.22 1.6-2.6 4.36-3.17 8.1-.07zM722 238.23c.61-3.19.45-5.48 1.5-6.82.81-1 3.13-.89 4.79-1.27.38 2.25 1.37 4.64.86 6.66-.15.81-3.65.8-7.15 1.43zM774.66 191.92c-1.58-5.12-.07-7.13 4.6-7.15 1.74 4.15-.32 5.8-4.6 7.15z"/><path class="cls-17" d="M1169.47 530.38c2.34-11.12 3.55-20.92 6.61-30.1a50.16 50.16 0 0 1 10.49-17.68c10.08-10.9 20.38-21.83 32-31 15.15-12 32.55-20.27 52.11-23 7.62-1.05 15.21-3.1 22.84-3.19a136.53 136.53 0 0 1 26.62 2.48c8.5 1.6 16.69 4.86 25.1 7a24.73 24.73 0 0 1 11.75 6.84c2.85 2.86 6.35 5.11 9.7 7.45 7.33 5.13 14.93 9.9 22.07 15.27a88.62 88.62 0 0 1 31.05 44c3.75 11.48 4.77 24.17 5.13 36.38.87 29.86-7.69 57.1-25.5 81.3a123.89 123.89 0 0 0-6.92 11.07c-8.5 14.56-22.93 22.43-35.86 32-10.25 7.6-21.28 13.45-34.14 15-14.7 1.72-29.38 3.62-44.13-.18-9.15-2.36-18.61-3.49-27.74-5.93a127.93 127.93 0 0 1-49.4-25.94c-10-8.4-17.57-19.11-23.44-31-8.53-17.37-10.06-35.91-10.05-54.68-.03-12.6 1.14-25.11 1.71-36.09z"/><path class="cls-2" d="M1310.74 580.06c3.35-2.24 6.35-4.41 9.54-6.27a3.72 3.72 0 0 1 3.34.07c.81.59 1.62 2.48 1.26 3.15a36.18 36.18 0 0 1-5.48 7.84c-.64.66-3.25 0-4.59-.76s-2.45-2.36-4.07-4.03zM1368.69 585c1.21 1.75 2.57 2.88 2.38 3.6a44.19 44.19 0 0 1-3.53 9.83c-1.43 2.6-4.87 2.22-6-.57-.65-1.67-1-4.27-.1-5.55 1.79-2.58 4.45-4.56 7.25-7.31zM1246.83 643.16c-1.45-9.45-1.45-9.45 5.53-13.49 3.57 5.33 1.39 11.15-5.53 13.49zM1224.51 605.7c2.06-3.87 3-6.25 4.48-8.16a4.89 4.89 0 0 1 3.88-1.32c.75.09 1.37 1.82 1.92 2.88a2.07 2.07 0 0 1 0 1.49c-.81 2.23-1.12 5.28-2.74 6.38-1.27.89-4.18-.6-7.54-1.27zM1270.34 562.24c-4.29-.46-5.43-2.13-4.2-5.77 1.1-3.24 1.88-6.68 6-6.73.77 0 2.48 2.73 2.17 3.72-.9 3.09-2.61 5.94-3.97 8.78zM1320.67 504.2c1.21 8.56-.52 12.38-6 13.31-1.09-6.65 1.52-12.42 6-13.31zM1296 663.15l4.72-5.52c5.59 4.57 5.74 8.26.78 12.52-.43-.22-1-.34-1.29-.69-1.34-1.87-2.57-3.79-4.21-6.31zM1302 622.7l-1.58 13c-6.21.59-6.75.18-5.41-4.79.89-3.47 1.49-7.46 6.99-8.21zM1346.67 510.49c2.43-3.64 3.67-8.35 10.74-8.12l-1.66 9.37c-3.2-.29-6.12 2.47-9.08-1.25zM1352.73 632.49c2.36 6.85 1.63 8.57-4.69 11.77-2.61-7.74-2.39-10.26 4.69-11.77zM1398.75 553c.2 1.77.84 3.62.5 5.28a11.25 11.25 0 0 1-2.64 5.32c-.59.62-3.06.27-4-.48s-1.59-2.93-1.12-3.83c1.26-2.4 3.19-4.45 4.86-6.64zM1340 546.15c3.35 3.25 1.93 6.34.2 9.14a4.18 4.18 0 0 1-3.59 1.59c-1-.25-2.09-2-2.23-3.19-.38-3.79 1.85-5.98 5.62-7.54zM1218.91 482.17l11-1.85c1.58 5.08-.26 7.53-4.57 9.54zM1278.48 513.72c1.42-3.74 2.52-6.74 3.72-9.7.14-.35.85-.46 1.91-1l5.15 5c-4.38 1.05-3.61 8.44-10.78 5.7zM1248.92 517.48c1.72 6.57-2 9.84-5.41 13.68-2.18-6.37-.9-9.79 5.41-13.68zM1383.89 533.89c-3.39-6.92-2.37-9.1 5.7-12.45 1.98 6.1-2.59 8.74-5.7 12.45zM1302.28 442.65c1.41 2.47 3.22 4.49 3.62 6.75.23 1.34-1.77 3.06-2.77 4.61-1.31-.93-3.26-1.59-3.81-2.86-1.32-3.08-.32-5.85 2.96-8.5zM1197.67 525.75c-3.56.5-5.4-1.62-5.69-4.06-.19-1.53 1.55-3.54 2.86-4.9a3.58 3.58 0 0 1 3.39-.27 3.68 3.68 0 0 1 1.49 3.07 38.74 38.74 0 0 1-2.05 6.16zM1212.15 544.72l3.26-8.41c4.59 1.54 5.16 4.27 4 7.41s-3.59 2.84-7.26 1zM1203.2 582.54c4 1.88 4.67 4.24 2.72 7.07s-4.19 2-7.36-.35zM1372.86 485c-3.53.14-5-3-7.17-4.79-.47-.38-.42-2.06 0-2.71a3.14 3.14 0 0 1 2.57-1c3.91.64 5.54 3.65 4.6 8.5zM1274.86 466.71c-1.24-5.67-.61-6.78 5-9.81 2.98 5 2.98 5-5 9.81zM1319.89 466.41c.82-.38 2.59-1.85 3.4-1.44a7.73 7.73 0 0 1 3.39 4.13c.2.57-2.07 2.84-3.22 2.85-2.46.05-4.08-1.63-3.57-5.54zM1335.4 612.2c-2.46 1-4 2.06-5.34 1.93-1.06-.11-2-1.77-2.95-2.74 1.38-1.24 2.6-3 4.21-3.48.68-.22 2.15 2.18 4.08 4.29zM1280.72 596.09c-2.84 3.31-4.87 3.14-6.92-.06 2.12-3.03 4.14-2.3 6.92.06z"/><path class="cls-16" d="M1857.7 455.56c10 9.73 19.43 17.42 27 26.62a61.68 61.68 0 0 1 11.51 22.51c4.72 17.63 9.34 35.52 11.31 53.59 2.59 23.66-.27 47.15-10.29 69.26-3.91 8.62-6.75 17.86-11.66 25.84a167.89 167.89 0 0 1-20 26.07c-7.25 7.79-16 14.17-23.78 21.5a30.41 30.41 0 0 1-14.82 7.74c-4.85 1.09-9.48 3.26-14.11 5.2-10.15 4.26-20.09 9-30.36 12.94-21.6 8.22-44.21 9-66.1 3.46-14.4-3.62-28.27-10.9-41.2-18.53-31.63-18.68-54.34-45.46-67.84-79.85a152.34 152.34 0 0 0-7-14.46c-9.56-18.39-8.29-38.57-9.78-58.3-1.18-15.65 0-31 6.84-45.32 7.86-16.42 15.51-32.93 29.14-45.79 8.45-8 15.84-17.07 24.36-25a157.31 157.31 0 0 1 59.38-34.37c15.3-4.9 31.4-5.74 47.67-4 23.66 2.52 44 13.09 63.47 25.41 12.97 8.26 25.22 17.69 36.26 25.48z"/><path class="cls-2" d="M1713.37 569.91c.13 5 .42 9.5.27 14a4.57 4.57 0 0 1-2.26 3.43c-1.14.45-3.64.07-4.1-.76a44.49 44.49 0 0 1-4.56-10.84c-.27-1.1 2.16-3.36 3.81-4.28s4.04-.96 6.84-1.55zM1670.2 626.93c-2.62.11-4.69.79-5.3.12a54.34 54.34 0 0 1-7.9-10.12c-1.77-3.2.88-6.52 4.5-5.82 2.16.42 5.07 1.8 5.84 3.54 1.53 3.52 1.85 7.58 2.86 12.28zM1689.66 462.05c10.78 4.69 10.78 4.69 10.4 14.6-7.91.19-12.51-5.87-10.4-14.6zM1743.25 463.41c2.68 4.68 4.55 7.19 5.55 10 .49 1.38-.19 3.69-1.18 4.9-.59.72-2.79.23-4.25.1a2.54 2.54 0 0 1-1.57-.94c-1.79-2.31-4.76-4.63-4.84-7-.06-1.96 3.4-4.01 6.29-7.06zM1758.4 539.58c3.3-4.16 5.78-4.26 8.75-.59 2.65 3.27 5.71 6.34 3 10.7-.49.8-4.47.78-5.29-.18-2.56-3.01-4.4-6.66-6.46-9.93zM1785.75 630c-9.69-4.35-12.54-8.66-9.9-15 7.63 3.26 11.92 9.75 9.9 15zM1636.63 500l2.65 8.53c-8.42 2.82-12.35.55-13.54-7.41.52-.31 1-.86 1.57-.88 2.8-.1 5.61-.11 9.32-.24zM1674.78 532.81l-12.51-10.19c3.46-6.84 4.24-7.14 8.53-2.49 3.02 3.27 6.78 6.51 3.98 12.68zM1762.15 652.92c2.19 4.92 6.28 9.3 1.4 16.49l-8.66-7.88c2.41-3.13 1.45-7.97 7.26-8.61zM1631.29 579.19c-8.67-2-10-3.92-9.17-12.6 9.76 2.41 12.23 4.24 9.17 12.6zM1683.79 679.21c-2-.95-4.31-1.5-5.82-2.94a13.83 13.83 0 0 1-3.8-6.23c-.26-1 1.73-3.37 3.12-3.83s4.09.26 4.72 1.34c1.67 2.89 2.54 6.24 3.72 9.41zM1729.42 622.61c-5.58 1.35-7.86-2.15-9.64-5.78a5.14 5.14 0 0 1 .7-4.78c.91-.86 3.45-.86 4.78-.22 4.24 2.02 5.04 5.81 4.16 10.78zM1875.42 538.62l-5.29 12.65c-6.32-1.68-7.66-5.22-6.93-11zM1803.53 579.87c3 3.92 5.36 7 7.65 10.23.27.37-.08 1.18-.23 2.64l-8.62 2c1.83-5.16-6.33-9.2 1.2-14.87zM1819 546.66c-8-2.53-8.95-8.5-10.68-14.6 8.06 1.94 10.77 5.48 10.68 14.6zM1713.4 676.28c9.42 1 11 3.5 9.22 14.1-7.62-1.95-7.39-8.45-9.22-14.1zM1861.83 651.25c-3.5-.15-6.78.41-9.39-.67-1.54-.63-2-3.85-3-5.9 1.83-.75 3.8-2.35 5.47-2.09 4.09.63 6.29 3.55 6.92 8.66zM1844 487.93c1.82-4 5.22-4.55 8-3.26 1.71.81 2.66 3.93 3.22 6.19.26 1.07-.88 3.13-1.95 3.7a4.52 4.52 0 0 1-4.17-.46c-2-1.77-3.47-4.1-5.1-6.17zM1814.78 490.55l6.6 8.91c-4.61 3.76-7.83 2.57-10.35-.68s-.55-5.62 3.75-8.23zM1781.33 456.43c-4.57 2.92-7.47 2.08-9.14-1.81s.68-5.66 5.19-7.43zM1771.44 696.85c2.17-3.76 6.38-3.21 9.68-4.32.7-.24 2.43.91 2.8 1.8a3.86 3.86 0 0 1-.65 3.33c-3.15 3.65-7.35 3.34-11.83-.81zM1854.8 606.94c6.71 2.43 7.45 3.82 6.89 11.68-7.12-.22-7.12-.22-6.89-11.68zM1825.57 654c-.14 1.1.23 3.91-.73 4.48a9.5 9.5 0 0 1-6.52.81c-.72-.17-1.6-4-.85-5.22 1.6-2.62 4.36-3.19 8.1-.07zM1663.76 574.48c.61-3.19.45-5.48 1.5-6.82.81-1 3.13-.89 4.79-1.27.38 2.25 1.37 4.64.86 6.66-.21.81-3.69.8-7.15 1.43zM1716.39 528.17c-1.58-5.12-.07-7.13 4.6-7.15 1.71 4.15-.33 5.81-4.6 7.15z"/><path class="cls-18" d="M470.89 383.83c10.68 10.35 20.67 18.54 28.7 28.33a65.65 65.65 0 0 1 12.25 24c5 18.76 9.94 37.8 12 57 2.76 25.18-.28 50.18-11 73.72-4.16 9.17-7.19 19-12.42 27.5a178.69 178.69 0 0 1-21.33 27.74c-7.71 8.3-17 15.08-25.3 22.88a32.36 32.36 0 0 1-15.77 8.24c-5.16 1.16-10.09 3.47-15 5.53-10.8 4.53-21.38 9.62-32.31 13.78-23 8.75-47.05 9.54-70.35 3.68-15.33-3.86-30.09-11.6-43.85-19.72-33.67-19.88-57.84-48.38-72.2-85a162.14 162.14 0 0 0-7.31-15.38c-10.18-19.57-8.83-41-10.41-62.05-1.26-16.66 0-32.94 7.28-48.23 8.36-17.47 16.5-35 31-48.73 9-8.48 16.86-18.17 25.92-26.57A167.42 167.42 0 0 1 314 334c16.28-5.22 33.42-6.11 50.73-4.27 25.19 2.68 46.78 13.93 67.55 27 13.81 8.76 26.85 18.8 38.61 27.1z"/><path class="cls-2" d="M317.27 505.52c.14 5.27.45 10.11.28 14.94a4.86 4.86 0 0 1-2.41 3.65c-1.22.48-3.87.07-4.36-.81a47.35 47.35 0 0 1-4.86-11.54c-.28-1.17 2.3-3.58 4.05-4.55s4.32-1.05 7.3-1.69zM271.32 566.21c-2.79.12-5 .84-5.64.13-3.09-3.35-6.23-6.82-8.41-10.77-1.88-3.4.94-6.94 4.79-6.19 2.3.45 5.39 1.91 6.21 3.77 1.64 3.74 1.98 8.06 3.05 13.06zM292 390.73c11.47 5 11.47 5 11.07 15.54-8.38.21-13.28-6.27-11.07-15.54zM349.07 392.17c2.85 5 4.84 7.66 5.91 10.66.52 1.47-.21 3.92-1.25 5.22-.63.77-3 .24-4.53.11a2.7 2.7 0 0 1-1.67-1c-1.91-2.45-5.06-4.93-5.15-7.49-.07-2.06 3.62-4.24 6.69-7.5zM365.2 473.25c3.51-4.42 6.15-4.53 9.32-.63 2.82 3.48 6.08 6.75 3.22 11.39-.53.85-4.75.83-5.64-.19-2.75-3.21-4.71-7.09-6.9-10.57zM394.31 569.48c-10.32-4.63-13.34-9.22-10.53-16 8.11 3.52 12.67 10.42 10.53 16zM235.6 431.17l2.82 9.08c-9 3-13.15.59-14.41-7.88.55-.33 1.09-.91 1.67-.94 2.98-.16 5.96-.17 9.92-.26zM276.2 466l-13.32-10.85c3.68-7.28 4.51-7.6 9.08-2.65 3.22 3.5 7.21 6.97 4.24 13.5zM369.19 593.87c2.33 5.23 6.68 9.9 1.49 17.55l-9.21-8.42c2.53-3.29 1.53-8.45 7.72-9.13zM229.91 515.41c-9.23-2.18-10.62-4.17-9.75-13.41 10.38 2.51 13.01 4.51 9.75 13.41zM285.79 621.86c-2.1-1-4.59-1.6-6.19-3.13a14.72 14.72 0 0 1-4-6.63c-.28-1.08 1.84-3.58 3.32-4.07s4.36.28 5 1.43c1.78 3.07 2.7 6.64 4 10zM334.35 561.62c-5.94 1.44-8.37-2.29-10.26-6.15-.66-1.34-.27-4.13.75-5.09s3.67-.92 5.09-.24c4.5 2.15 5.36 6.19 4.42 11.48zM489.74 472.22l-5.63 13.46c-6.73-1.79-8.16-5.55-7.37-11.72zM413.23 516.13c3.15 4.18 5.7 7.49 8.14 10.89.28.4-.09 1.26-.24 2.81l-9.19 2.17c1.96-5.53-6.76-9.84 1.29-15.87zM429.7 480.78c-8.47-2.69-9.52-9-11.37-15.54 8.57 2.04 11.46 5.84 11.37 15.54zM317.3 618.74c10 1.08 11.73 3.73 9.81 15-8.11-2.07-7.86-8.99-9.81-15zM475.28 592.09c-3.72-.16-7.21.43-10-.71-1.64-.68-2.15-4.1-3.17-6.28 2-.8 4-2.5 5.83-2.22 4.35.68 6.67 3.78 7.34 9.21zM456.32 418.28c1.94-4.29 5.56-4.84 8.47-3.47 1.82.86 2.83 4.18 3.43 6.59.28 1.14-.94 3.33-2.07 3.94a4.81 4.81 0 0 1-4.43-.49c-2.12-1.85-3.72-4.4-5.4-6.57zM425.21 421.06l7 9.48c-4.91 4-8.33 2.73-11-.73s-.59-5.97 4-8.75zM389.6 384.75c-4.87 3.11-8 2.21-9.73-1.93s.72-6 5.52-7.9zM379.07 640.63c2.31-4 6.79-3.42 10.31-4.6.75-.25 2.58 1 3 1.91a4.11 4.11 0 0 1-.69 3.55c-3.37 3.89-7.85 3.59-12.62-.86zM467.79 544.94c7.14 2.59 7.93 4.06 7.34 12.44-7.58-.25-7.58-.25-7.34-12.44zM436.68 595c-.15 1.17.24 4.16-.78 4.76a10.12 10.12 0 0 1-6.93.87c-.77-.18-1.7-4.27-.91-5.56 1.71-2.76 4.65-3.37 8.62-.07zM264.47 510.39c.65-3.4.48-5.83 1.6-7.26.86-1.1 3.34-.95 5.09-1.35.41 2.39 1.46 4.94.91 7.09-.21.86-3.92.85-7.6 1.52zM320.48 461.1c-1.68-5.45-.08-7.58 4.9-7.61 1.82 4.42-.38 6.18-4.9 7.61z"/><path class="cls-15" d="M2368.25 183.6c-7.9-22.57-17.65-46-29.92-66.58-5-8.46-11.36-16.71-19.39-22.52-9.76-7.06-20-9.37-31.83-10.09-5.26-.32-10.14-.77-14.9-3.2-5.34-2.72-10.3-5.77-16-7.75-11.55-4-24-3.82-36-1.83-17.24 2.88-34.13 8-50.61 14a155.59 155.59 0 0 0-21.47 8.39l-.55.23c-22 9-44.66 20.75-58.95 40.44a79.93 79.93 0 0 0-12.54 26.38c-2.47 2.17-4.92 4.37-7.32 6.64-16 15.1-25 31.24-24.36 53.73a270.38 270.38 0 0 0 10.59 65.42c10.89 37.88 35.09 74.48 73.13 89.11 16.63 6.39 34.35 9.34 51.92 12.26a155.71 155.71 0 0 0 17.52 3.07c20.26 4 42.23 9.87 62.56 6.88 19.74-2.9 34.37-12.8 45.46-26.3 20-11.29 37.19-28.47 49.76-48a150.43 150.43 0 0 0 23.18-64.8c2.73-25.76-1.75-51.08-10.28-75.48z"/></g></g></svg>