<svg id="Layer_1" data-name="Layer 1" xmlns="http://www.w3.org/2000/svg" viewBox="0 0 2067 44" width="2067" height="44"><defs><style>.cls-1{fill:none;}.cls-2{clip-path:url(#clip-path);}.cls-3{fill:#5b3b7a;}.cls-4{fill:#472f63;}</style><clipPath id="clip-path"><path class="cls-1" d="M-10 1278.65c52.41 0 103.91 3.85 156.16 3.18 55.07-.71 110.18-1.24 165.19-2.75 30-.82 392 3.1 452 1.52 0-.72 51 3.29 66.62.93 36.24-5.45 78.88-9.15 115-4.81 60.54 7.28 123.1.56 184.15 2.75 21.56.77 36.11 5.52 55.21-2.06 17.36-6.89 36.62 2.1 55.35 1.4 26.28-1 52.68-.18 79-.16 34.55 0 75.91 3.35 109.17-5.41 34.62-9.13 77.26 3 113.17 4.48 73.51 2.95 145.86 5.66 219.16 3.4 61.14-1.88 250.27 2 284.87 2L2068 19.67c-29.39 0-58.22-4.69-87.49-6.47-48-2.92-95.8-8.21-143.91-8.78-31.45-.42-62.8-3.6-94.27-3.56-38.86 0-75.16 9.76-113.59 13.47-44.68 4.31-92.91 1.89-137.82-.45-32.69-1.7-65.12-4.63-97.89-5.95-47.55-1.91-93.47-2.06-141-.11-24.62 1-49.39-.91-74 .83-39.64 2.8-79.23 4.77-118.91 6.34-21.2.83-42.42-.12-63.58-.76-19.95-.61-38.09-.76-57.93-2.29a296.37 296.37 0 0 0-47 .3c-37.24 3.22-70.82 3.92-107.58 10-47 7.73-101.48 1.14-149 1.1-20.17 0-39.53 1.45-59.48 2.62-41.79 2.47-84.83-7.8-126-12-12.38-1.25-25.08-.33-37.55-.52-41.2-.65-81.55-8.1-122.74-8.1a582.51 582.51 0 0 0-82.46 5.37c-32.49 4.59-65.71 9.83-98.64 9.85C71.27 20.58 35.73 14 0 14.29z"/></clipPath></defs><title>wavy-top</title><g class="cls-2"><path class="cls-3" d="M26.09-.44h1999.49v1464.41H26.09z"/><path class="cls-3" d="M-2.41-5.69h2072.5v1392.81H-2.41z"/><path class="cls-4" d="M1923.11 27.92c3.3-4.16 5.78-4.26 8.75-.59 2.65 3.27 5.71 6.34 3 10.7-.49.8-4.47.78-5.29-.18-2.57-3.01-4.41-6.65-6.46-9.93zM597 16.7c3.3-4.16 5.78-4.26 8.75-.59 2.65 3.27 5.71 6.34 3 10.7-.49.8-4.47.78-5.29-.18C600.87 23.62 599 20 597 16.7zM1274.37 40.37c-4.57 2.92-7.47 2.08-9.14-1.81s.68-5.66 5.19-7.43z"/></g></svg>