<?xml version="1.0" encoding="UTF-8"?><svg id="Layer_3" xmlns="http://www.w3.org/2000/svg" viewBox="0 0 3000 3000"><defs><style>.cls-1{fill:#d1b58a;}.cls-2{fill:#e0d9d1;}.cls-3{fill:#fff;}.cls-4{fill:#cce7e0;}.cls-5{fill:#eebebe;}.cls-6{fill:#ab967c;}.cls-7,.cls-8{fill:#eba937;}.cls-8{font-size:220px;}.cls-8,.cls-9{font-family:Swiss721BT-Black, 'Swis721 Blk BT';}.cls-9{font-size:268px;}</style></defs><polyline class="cls-7" points="3.79 2999.05 3.79 -.95 3003.79 -.95 3003.79 2999.05"/><path class="cls-3" d="M1502.55,2871.64c-750.46,0-1358.83-608.37-1358.83-1358.83S752.09,153.98,1502.55,153.98s1358.83,608.37,1358.83,1358.83-608.37,1358.83-1358.83,1358.83"/><g><path class="cls-5" d="M1396,1517.89c5.12,23.67-9.92,47-33.59,52.12h0c-23.67,5.12-47-9.92-52.12-33.59l-144.87-670.25c-5.12-23.67,9.92-47,33.59-52.12h0c23.67-5.12,47,9.92,52.12,33.59l144.87,670.25Z"/><ellipse class="cls-7" cx="1503.79" cy="1663.15" rx="468.85" ry="454.14"/><polygon class="cls-2" points="1910.9 2212.58 1078.05 2212.58 986.15 1744.39 2002.8 1744.39 1910.9 2212.58"/><g><circle class="cls-1" cx="1795.46" cy="1192.02" r="247.46"/><g><g><rect class="cls-6" x="1518.85" y="1143.45" width="375.46" height="27.23" transform="translate(86.5 2432.43) rotate(-72.35)"/><rect class="cls-6" x="1609.66" y="1172.35" width="375.46" height="27.23" transform="translate(122.24 2539.11) rotate(-72.35)"/><rect class="cls-6" x="1700.47" y="1201.25" width="375.46" height="27.23" transform="translate(157.97 2645.77) rotate(-72.35)"/></g><g><rect class="cls-6" x="1812.68" y="907.43" width="27.23" height="375.46" transform="translate(228.87 2503.33) rotate(-72.35)"/><rect class="cls-6" x="1783.78" y="998.23" width="27.23" height="375.46" transform="translate(122.21 2539.08) rotate(-72.35)"/><rect class="cls-6" x="1754.88" y="1089.04" width="27.23" height="375.46" transform="translate(15.54 2574.81) rotate(-72.35)"/></g></g></g><path class="cls-4" d="M2026.85,1712.56c0-21.34-17.3-38.64-38.64-38.64H1000.74c-21.34,0-38.64,17.3-38.64,38.64h0c0,21.34,17.3,38.64,38.64,38.64h987.47c21.34,0,38.64-17.3,38.64-38.64h0Z"/><path class="cls-7" d="M1494.48,1301.84s313.51-41.85,420.26,211.38c0,0-352.37,86.02-420.26-211.38Z"/></g><text class="cls-9" transform="translate(559.42 846.88) rotate(-41.62)"><tspan x="0" y="0"> </tspan></text><text class="cls-9" transform="translate(623.18 790.13) rotate(-38.04)"><tspan x="0" y="0"> </tspan></text><text class="cls-9" transform="translate(687.54 736.26) rotate(-32.36)"><tspan x="0" y="0">S</tspan></text><text class="cls-9" transform="translate(843.48 636.68) rotate(-24.41)"><tspan x="0" y="0">P</tspan></text><text class="cls-9" transform="translate(1004.46 562.17) rotate(-16.91)"><tspan x="0" y="0">A</tspan></text><text class="cls-9" transform="translate(1186.43 505.54) rotate(-8.39)"><tspan x="0" y="0">G</tspan></text><text class="cls-9" transform="translate(1395.45 473.25) rotate(.93)"><tspan x="0" y="0">U</tspan></text><text class="cls-9" transform="translate(1608.12 476.97) rotate(8.32)"><tspan x="0" y="0">L</tspan></text><text class="cls-9" transform="translate(1772.22 500.1) rotate(15.66)"><tspan x="0" y="0">E</tspan></text><text class="cls-9" transform="translate(1946.48 548.87) rotate(23.15)"><tspan x="0" y="0">T</tspan></text><text class="cls-9" transform="translate(2110.45 619.02) rotate(30.69)"><tspan x="0" y="0">T</tspan></text><text class="cls-9" transform="translate(2258.71 708.96) rotate(36.38)"><tspan x="0" y="0">I</tspan></text><text class="cls-9" transform="translate(2338.13 767.64) rotate(40.24)"><tspan x="0" y="0"> </tspan></text><text class="cls-8" transform="translate(1068.42 2014.21)"><tspan x="0" y="0">HONEY</tspan></text><text class="cls-9" transform="translate(482.45 2305.73) rotate(46.24)"><tspan x="0" y="0"> </tspan></text><text class="cls-9" transform="translate(549.39 2375.2) rotate(42.2)"><tspan x="0" y="0"> </tspan></text><text class="cls-9" transform="translate(621.05 2439.79) rotate(38.15)"><tspan x="0" y="0"> </tspan></text><text class="cls-9" transform="translate(697.11 2499.17) rotate(34.1)"><tspan x="0" y="0"> </tspan></text><text class="cls-9" transform="translate(777.21 2553.04) rotate(30.03)"><tspan x="0" y="0"> </tspan></text><text class="cls-9" transform="translate(860.93 2601.1) rotate(25.95)"><tspan x="0" y="0"> </tspan></text><text class="cls-9" transform="translate(952.29 2649.02) rotate(18.84)"><tspan x="0" y="0">H</tspan></text><text class="cls-9" transform="translate(1179.14 2724.53) rotate(8.67)"><tspan x="0" y="0">O</tspan></text><text class="cls-9" transform="translate(1416.95 2758.84) rotate(-1.3)"><tspan x="0" y="0">N</tspan></text><text class="cls-9" transform="translate(1654.2 2750.66) rotate(-10.6)"><tspan x="0" y="0">E</tspan></text><text class="cls-9" transform="translate(1855.76 2711.89) rotate(-19.52)"><tspan x="0" y="0">Y</tspan></text><text class="cls-9" transform="translate(2053 2637.77) rotate(-26.15)"><tspan x="0" y="0"> </tspan></text></svg>