<?xml version="1.0" encoding="UTF-8"?><svg id="Layer_4" xmlns="http://www.w3.org/2000/svg" viewBox="0 0 3000 3000"><defs><style>.cls-1{fill:#d1b58a;}.cls-2{fill:#e0d9d1;}.cls-3{fill:#fff;}.cls-4{fill:#cce7e0;}.cls-5{fill:#eebebe;}.cls-6{font-size:220px;}.cls-6,.cls-7{fill:#39eaa6;}.cls-6,.cls-8{font-family:Swiss721BT-Black, 'Swis721 Blk BT';}.cls-9{fill:#ab967c;}.cls-8{font-size:268px;}</style></defs><polyline class="cls-7" points="0 2999.05 0 -.95 3000 -.95 3000 2999.05"/><path class="cls-3" d="M1498.76,2871.64c-750.46,0-1358.83-608.37-1358.83-1358.83S748.3,153.98,1498.76,153.98s1358.83,608.37,1358.83,1358.83-608.37,1358.83-1358.83,1358.83"/><g><path class="cls-5" d="M1392.21,1517.89c5.12,23.67-9.92,47-33.59,52.12h0c-23.67,5.12-47-9.92-52.12-33.59l-144.87-670.25c-5.12-23.67,9.92-47,33.59-52.12h0c23.67-5.12,47,9.92,52.12,33.59l144.87,670.25Z"/><ellipse class="cls-7" cx="1500" cy="1663.15" rx="468.85" ry="454.14"/><polygon class="cls-2" points="1907.11 2212.58 1074.26 2212.58 982.36 1744.39 1999.01 1744.39 1907.11 2212.58"/><g><circle class="cls-1" cx="1791.68" cy="1192.02" r="247.46"/><g><g><rect class="cls-9" x="1515.06" y="1143.45" width="375.46" height="27.23" transform="translate(83.86 2428.82) rotate(-72.35)"/><rect class="cls-9" x="1605.87" y="1172.35" width="375.46" height="27.23" transform="translate(119.6 2535.5) rotate(-72.35)"/><rect class="cls-9" x="1696.68" y="1201.25" width="375.46" height="27.23" transform="translate(155.33 2642.16) rotate(-72.35)"/></g><g><rect class="cls-9" x="1808.89" y="907.43" width="27.23" height="375.46" transform="translate(226.23 2499.72) rotate(-72.35)"/><rect class="cls-9" x="1779.99" y="998.23" width="27.23" height="375.46" transform="translate(119.57 2535.46) rotate(-72.35)"/><rect class="cls-9" x="1751.09" y="1089.04" width="27.23" height="375.46" transform="translate(12.9 2571.2) rotate(-72.35)"/></g></g></g><path class="cls-4" d="M2023.06,1712.56c0-21.34-17.3-38.64-38.64-38.64H996.95c-21.34,0-38.64,17.3-38.64,38.64h0c0,21.34,17.3,38.64,38.64,38.64h987.47c21.34,0,38.64-17.3,38.64-38.64h0Z"/><path class="cls-7" d="M1490.69,1301.84s313.51-41.85,420.26,211.38c0,0-352.37,86.02-420.26-211.38Z"/></g><text class="cls-8" transform="translate(555.63 846.88) rotate(-41.62)"><tspan x="0" y="0"> </tspan></text><text class="cls-8" transform="translate(619.39 790.13) rotate(-38.04)"><tspan x="0" y="0"> </tspan></text><text class="cls-8" transform="translate(683.75 736.26) rotate(-32.36)"><tspan x="0" y="0">S</tspan></text><text class="cls-8" transform="translate(839.69 636.68) rotate(-24.41)"><tspan x="0" y="0">P</tspan></text><text class="cls-8" transform="translate(1000.67 562.17) rotate(-16.91)"><tspan x="0" y="0">A</tspan></text><text class="cls-8" transform="translate(1182.64 505.54) rotate(-8.39)"><tspan x="0" y="0">G</tspan></text><text class="cls-8" transform="translate(1391.66 473.25) rotate(.93)"><tspan x="0" y="0">U</tspan></text><text class="cls-8" transform="translate(1604.33 476.97) rotate(8.32)"><tspan x="0" y="0">L</tspan></text><text class="cls-8" transform="translate(1768.43 500.1) rotate(15.66)"><tspan x="0" y="0">E</tspan></text><text class="cls-8" transform="translate(1942.69 548.87) rotate(23.15)"><tspan x="0" y="0">T</tspan></text><text class="cls-8" transform="translate(2106.66 619.02) rotate(30.69)"><tspan x="0" y="0">T</tspan></text><text class="cls-8" transform="translate(2254.93 708.96) rotate(36.38)"><tspan x="0" y="0">I</tspan></text><text class="cls-8" transform="translate(2334.35 767.64) rotate(40.24)"><tspan x="0" y="0"> </tspan></text><text class="cls-6" transform="translate(1200.63 2014.21)"><tspan x="0" y="0">MINT</tspan></text><text class="cls-8" transform="translate(478.66 2305.73) rotate(46.24)"><tspan x="0" y="0"> </tspan></text><text class="cls-8" transform="translate(545.6 2375.2) rotate(42.2)"><tspan x="0" y="0"> </tspan></text><text class="cls-8" transform="translate(617.26 2439.79) rotate(38.15)"><tspan x="0" y="0"> </tspan></text><text class="cls-8" transform="translate(693.32 2499.17) rotate(34.1)"><tspan x="0" y="0"> </tspan></text><text class="cls-8" transform="translate(773.42 2553.04) rotate(30.03)"><tspan x="0" y="0"> </tspan></text><text class="cls-8" transform="translate(857.15 2601.1) rotate(25.95)"><tspan x="0" y="0"> </tspan></text><text class="cls-8" transform="translate(944.11 2643.09) rotate(21.86)"><tspan x="0" y="0"> </tspan></text><text class="cls-8" transform="translate(1033.88 2678.79) rotate(17.76)"><tspan x="0" y="0"> </tspan></text><text class="cls-8" transform="translate(1132.5 2715.16) rotate(9.81)"><tspan x="0" y="0">M</tspan></text><text class="cls-8" transform="translate(1399.88 2754.67) rotate(1.65)"><tspan x="0" y="0">I</tspan></text><text class="cls-8" transform="translate(1516.01 2760.82) rotate(-5.59)"><tspan x="0" y="0">N</tspan></text><text class="cls-8" transform="translate(1751.63 2734.67) rotate(-14.75)"><tspan x="0" y="0">T</tspan></text><text class="cls-8" transform="translate(1935.12 2683.13) rotate(-20.95)"><tspan x="0" y="0"> </tspan></text></svg>