<svg width="488" height="397.99999999999994" xmlns="http://www.w3.org/2000/svg">

 <g>
  <title>Layer 1</title>
  <path id="svg_6" d="m486.92419,92.26437" opacity="NaN" stroke-dasharray="5,5" stroke-width="2" stroke="#000" fill="none"/>
  <path id="svg_7" d="m22.95123,1.4573c0,0 -3.65854,-7.31707 -21.95122,36.58537l8.5366,93.54877c-8.5366,90.59757 64.63414,195.47562 58.53657,97.91464c-6.09756,-97.56098 28.0488,-67.78049 96.34147,-54.0122c68.29267,13.76829 58.5366,-14.98783 92.68293,-29.2683c34.14633,-14.28048 46.34148,-6.45123 48.78049,20.73171c2.43901,27.18294 -10.97563,35.71952 45.12194,16.20733c56.09756,-19.51219 42.68293,-50 81.70732,0c39.02439,50 12.19515,91.97559 13.41465,91.10974c1.2195,-0.86584 -8.5366,10.10977 -0.00001,79.62196c17.07316,29.2683 -28.04879,43.90245 -29.26829,43.54878" opacity="NaN" stroke-dasharray="5,5" stroke-width="2" stroke="#000" fill="none"/>
 </g>
</svg>